SplineFontDB: 3.2
FontName: Inconsolata-ExtraCondensedBold
FullName: Inconsolata Extra Condensed Bold
FamilyName: Inconsolata Extra Condensed Bold
Weight: Bold
Copyright: Copyright 2006 The Inconsolata Project Authors (https://github.com/cyrealtype/Inconsolata)
Version: 3.000; ttfautohint (v1.8.3)
ItalicAngle: -9
UnderlinePosition: -297
UnderlineWidth: 102
Ascent: 1802
Descent: 246
InvalidEm: 0
sfntRevision: 0x00030000
LayerCount: 2
Layer: 0 1 "Back" 1
Layer: 1 1 "Fore" 0
XUID: [1021 702 422526546 19458]
StyleMap: 0x0040
FSType: 0
OS2Version: 4
OS2_WeightWidthSlopeOnly: 0
OS2_UseTypoMetrics: 1
CreationTime: 1576097233
ModificationTime: 1732402468
PfmFamily: 81
TTFWeight: 700
TTFWidth: 2
LineGap: 0
VLineGap: 0
Panose: 0 0 0 0 0 0 0 0 0 0
OS2TypoAscent: 1759
OS2TypoAOffset: 0
OS2TypoDescent: -389
OS2TypoDOffset: 0
OS2TypoLinegap: 0
OS2WinAscent: 2056
OS2WinAOffset: 0
OS2WinDescent: 930
OS2WinDOffset: 0
HheadAscent: 1759
HheadAOffset: 0
HheadDescent: -389
HheadDOffset: 0
OS2SubXSize: 1331
OS2SubYSize: 1229
OS2SubXOff: 0
OS2SubYOff: 154
OS2SupXSize: 1331
OS2SupYSize: 1229
OS2SupXOff: 0
OS2SupYOff: 717
OS2StrikeYSize: 102
OS2StrikeYPos: 571
OS2CapHeight: 1276
OS2XHeight: 952
OS2Vendor: 'CYRE'
OS2CodePages: 60000193.cdd40000
OS2UnicodeRanges: a00000ff.0000f9eb.00000020.00000000
Lookup: 1 0 0 "'aalt' Access All Alternates in Latin lookup 0" { "'aalt' Access All Alternates in Latin lookup 0 subtable"  } ['aalt' ('DFLT' <'dflt' > 'latn' <'AZE ' 'CAT ' 'CRT ' 'KAZ ' 'MOL ' 'ROM ' 'TAT ' 'TRK ' 'dflt' > ) ]
Lookup: 3 0 0 "'aalt' Access All Alternates in Latin lookup 1" { "'aalt' Access All Alternates in Latin lookup 1 subtable"  } ['aalt' ('DFLT' <'dflt' > 'latn' <'AZE ' 'CAT ' 'CRT ' 'KAZ ' 'MOL ' 'ROM ' 'TAT ' 'TRK ' 'dflt' > ) ]

StartChar: A
Encoding: 65 65 1
Width: 768
VWidth: 2430
GlyphClass: 2
Flags: HW
AnchorPoint: "Anchor-3" 481 0 basechar 0
AnchorPoint: "Anchor-2" 291 0 basechar 0
AnchorPoint: "Anchor-0" 530.794 1514 basechar 0
LayerCount: 2
Fore
SplineSet
448.909179688 997 m 1,0,-1
 297.2109375 538 l 1,1,-1
 453.2109375 538 l 1,2,-1
 448.909179688 997 l 1,0,-1
459 0 m 1,3,-1
 457.334960938 362 l 1,4,-1
 240.334960938 362 l 1,5,-1
 120 0 l 1,6,-1
 -77 0 l 1,7,-1
 478.803710938 1533 l 1,8,-1
 589.803710938 1533 l 1,9,-1
 659 0 l 1,10,-1
 459 0 l 1,3,-1
EndSplineSet
Substitution2: "Single Substitution lookup 29 subtable" ordfeminine
Substitution2: "'aalt' Access All Alternates in Latin lookup 0 subtable" ordfeminine
EndChar

StartChar: AE
Encoding: 198 198 26
Width: 768
VWidth: 2430
GlyphClass: 1
Flags: HW
LayerCount: 2
Fore
SplineSet
264.288085938 589 m 1,0,-1
 356.288085938 589 l 1,1,-1
 475.713867188 1242 l 1,2,-1
 264.288085938 589 l 1,0,-1
-97 0 m 1,3,-1
 433.110351562 1516 l 1,4,-1
 879.110351562 1516 l 1,5,-1
 846.80078125 1312 l 1,6,-1
 638.80078125 1312 l 1,7,-1
 572.279296875 892 l 1,8,-1
 741.279296875 892 l 1,9,-1
 708.651367188 686 l 1,10,-1
 539.651367188 686 l 1,11,-1
 463.310546875 204 l 1,12,-1
 669.310546875 204 l 1,13,-1
 635 0 l 1,14,-1
 261 0 l 1,15,-1
 322.611328125 389 l 1,16,-1
 205.611328125 389 l 1,17,-1
 73 0 l 1,18,-1
 -97 0 l 1,3,-1
EndSplineSet
EndChar

StartChar: B
Encoding: 66 66 28
Width: 768
VWidth: 2430
GlyphClass: 2
Flags: HW
AnchorPoint: "Anchor-2" 331 0 basechar 0
AnchorPoint: "Anchor-0" 570.794 1514 basechar 0
LayerCount: 2
Fore
SplineSet
214.626953125 206 m 1,0,-1
 346.626953125 206 l 2,1,2
 427.626953125 206 427.626953125 206 481.837890625 261 c 128,-1,3
 536.049804688 316 536.049804688 316 555.689453125 440 c 0,4,5
 575.170898438 563 575.170898438 563 539.57421875 635 c 128,-1,6
 503.977539062 707 503.977539062 707 396.977539062 707 c 2,7,-1
 293.977539062 707 l 1,8,-1
 214.626953125 206 l 1,0,-1
326.288085938 911 m 1,9,-1
 424.288085938 911 l 2,10,11
 524.288085938 911 524.288085938 911 570.419921875 965.5 c 128,-1,12
 616.551757812 1020 616.551757812 1020 632.390625 1120 c 0,13,14
 645.853515625 1205 645.853515625 1205 616.16796875 1257.5 c 128,-1,15
 586.483398438 1310 586.483398438 1310 505.483398438 1310 c 2,16,-1
 389.483398438 1310 l 1,17,-1
 326.288085938 911 l 1,9,-1
-29 0 m 1,18,-1
 210.793945312 1514 l 1,19,-1
 532.793945312 1514 l 2,20,21
 699.793945312 1514 699.793945312 1514 787.698242188 1425 c 128,-1,22
 875.6015625 1336 875.6015625 1336 845.033203125 1143 c 0,23,24
 802.427734375 874 802.427734375 874 639.1328125 809 c 1,25,26
 715.48046875 767 715.48046875 767 754.6171875 670 c 128,-1,27
 793.75390625 573 793.75390625 573 771.10546875 430 c 0,28,29
 738.002929688 221 738.002929688 221 618.501953125 110.5 c 128,-1,30
 499 0 499 0 290 0 c 2,31,-1
 -29 0 l 1,18,-1
EndSplineSet
EndChar

StartChar: C
Encoding: 67 67 29
Width: 768
VWidth: 2430
GlyphClass: 2
Flags: HW
AnchorPoint: "Anchor-2" 362 0 basechar 0
AnchorPoint: "Anchor-0" 592.794 1514 basechar 0
LayerCount: 2
Fore
SplineSet
365.19921875 -24 m 0,0,1
 255.19921875 -24 255.19921875 -24 173.0234375 47.5 c 128,-1,2
 90.84765625 119 90.84765625 119 61.7734375 289 c 128,-1,3
 32.6982421875 459 32.6982421875 459 76.6298828125 749 c 0,4,5
 114.325195312 987 114.325195312 987 177.3203125 1138.5 c 128,-1,6
 240.31640625 1290 240.31640625 1290 317.016601562 1376.5 c 128,-1,7
 393.716796875 1463 393.716796875 1463 473.864257812 1495.5 c 128,-1,8
 554.01171875 1528 554.01171875 1528 626.01171875 1528 c 0,9,10
 741.01171875 1528 741.01171875 1528 808.428710938 1467.5 c 128,-1,11
 875.846679688 1407 875.846679688 1407 900.375 1303 c 1,12,-1
 773.55859375 1140 l 1,13,-1
 758.390625 1120 l 1,14,-1
 745.291015625 1132 l 1,15,16
 742.983398438 1149 742.983398438 1149 747.364257812 1173.5 c 128,-1,17
 751.744140625 1198 751.744140625 1198 738.446289062 1234 c 1,18,19
 713.20703125 1283 713.20703125 1283 677.795898438 1302.5 c 128,-1,20
 642.383789062 1322 642.383789062 1322 602.383789062 1322 c 0,21,22
 543.383789062 1322 543.383789062 1322 482.014648438 1266 c 128,-1,23
 420.645507812 1210 420.645507812 1210 368.505859375 1086 c 128,-1,24
 316.366210938 962 316.366210938 962 284.055664062 758 c 0,25,26
 236.698242188 459 236.698242188 459 280.841796875 321 c 128,-1,27
 324.984375 183 324.984375 183 419.984375 183 c 0,28,29
 478.984375 183 478.984375 183 531.978515625 224 c 128,-1,30
 584.971679688 265 584.971679688 265 632.534179688 338 c 1,31,-1
 704.92578125 170 l 1,32,33
 632.770507812 68 632.770507812 68 551.984375 22 c 128,-1,34
 471.19921875 -24 471.19921875 -24 365.19921875 -24 c 0,0,1
EndSplineSet
EndChar

StartChar: D
Encoding: 68 68 36
Width: 768
VWidth: 2430
GlyphClass: 2
Flags: HW
AnchorPoint: "Anchor-4" 449.056 758 basechar 0
AnchorPoint: "Anchor-2" 324 0 basechar 0
AnchorPoint: "Anchor-0" 517.794 1514 basechar 0
LayerCount: 2
Fore
SplineSet
218.518554688 199 m 1,0,-1
 271.518554688 199 l 2,1,2
 407.518554688 199 407.518554688 199 491.11328125 338.5 c 128,-1,3
 574.708007812 478 574.708007812 478 616.521484375 742 c 0,4,5
 658.809570312 1009 658.809570312 1009 630.8046875 1160.5 c 128,-1,6
 602.80078125 1312 602.80078125 1312 464.80078125 1312 c 2,7,-1
 394.80078125 1312 l 1,8,-1
 218.518554688 199 l 1,0,-1
-27.31640625 -2 m 1,9,-1
 212.793945312 1514 l 1,10,-1
 486.793945312 1514 l 2,11,12
 624.793945312 1514 624.793945312 1514 699.928710938 1467.5 c 128,-1,13
 775.064453125 1421 775.064453125 1421 811.909179688 1319 c 0,14,15
 847.0703125 1219 847.0703125 1219 853.267578125 1084.5 c 128,-1,16
 859.46484375 950 859.46484375 950 827.629882812 749 c 0,17,18
 767.502929688 382 767.502929688 382 622.092773438 190 c 128,-1,19
 476.68359375 -2 476.68359375 -2 226.68359375 -2 c 2,20,-1
 -27.31640625 -2 l 1,9,-1
EndSplineSet
EndChar

StartChar: Eth
Encoding: 208 208 37
Width: 768
VWidth: 2430
GlyphClass: 1
Flags: HW
LayerCount: 2
Fore
SplineSet
215.310546875 204 m 1,0,-1
 263.310546875 204 l 2,1,2
 394.310546875 204 394.310546875 204 472.295898438 336.5 c 128,-1,3
 550.282226562 469 550.282226562 469 593.521484375 742 c 0,4,5
 637.869140625 1022 637.869140625 1022 606.122070312 1162.5 c 128,-1,6
 574.375 1303 574.375 1303 445.375 1303 c 2,7,-1
 389.375 1303 l 1,8,-1
 325.387695312 899 l 1,9,-1
 454.387695312 899 l 1,10,-1
 423.185546875 702 l 1,11,-1
 294.185546875 702 l 1,12,-1
 215.310546875 204 l 1,0,-1
-10.31640625 -2 m 1,13,-1
 101.185546875 702 l 1,14,-1
 45.185546875 702 l 1,15,-1
 76.3876953125 899 l 1,16,-1
 132.387695312 899 l 1,17,-1
 229.793945312 1514 l 1,18,-1
 483.793945312 1514 l 2,19,20
 580.793945312 1514 580.793945312 1514 644.879882812 1473.5 c 128,-1,21
 708.96484375 1433 708.96484375 1433 745.724609375 1371.5 c 128,-1,22
 782.483398438 1310 782.483398438 1310 798.713867188 1242 c 0,23,24
 818.418945312 1177 818.418945312 1177 818.095703125 1055 c 128,-1,25
 817.772460938 933 817.772460938 933 788.629882812 749 c 0,26,27
 724.80078125 346 724.80078125 346 586.7421875 172 c 128,-1,28
 448.68359375 -2 448.68359375 -2 225.68359375 -2 c 2,29,-1
 -10.31640625 -2 l 1,13,-1
EndSplineSet
EndChar

StartChar: E
Encoding: 69 69 42
Width: 768
VWidth: 2430
GlyphClass: 2
Flags: HW
AnchorPoint: "Anchor-3" 635.01 19 basechar 0
AnchorPoint: "Anchor-2" 331 0 basechar 0
AnchorPoint: "Anchor-0" 592.794 1514 basechar 0
LayerCount: 2
Fore
SplineSet
-9 0 m 1,0,-1
 231.110351562 1516 l 1,1,-1
 916.110351562 1516 l 1,2,-1
 883.80078125 1312 l 1,3,-1
 410.80078125 1312 l 1,4,-1
 344.279296875 892 l 1,5,-1
 729.279296875 892 l 1,6,-1
 696.96875 688 l 1,7,-1
 311.96875 688 l 1,8,-1
 235.310546875 204 l 1,9,-1
 706.310546875 204 l 1,10,-1
 674 0 l 1,11,-1
 -9 0 l 1,0,-1
EndSplineSet
EndChar

StartChar: uni01B8
Encoding: 440 440 65
Width: 768
VWidth: 2430
GlyphClass: 1
Flags: HW
LayerCount: 2
Fore
SplineSet
354.615234375 -34 m 0,0,1
 187.615234375 -34 187.615234375 -34 107.754882812 90 c 128,-1,2
 27.89453125 214 27.89453125 214 60.205078125 418 c 0,3,4
 91.40625 615 91.40625 615 190.916992188 744.5 c 128,-1,5
 290.427734375 874 290.427734375 874 425.080078125 916 c 1,6,-1
 238.383789062 1322 l 1,7,-1
 268.793945312 1514 l 1,8,-1
 840.793945312 1514 l 1,9,-1
 807.69140625 1305 l 1,10,-1
 472.69140625 1305 l 1,11,-1
 625.08984375 935 l 1,12,-1
 593.729492188 737 l 1,13,14
 577.248046875 737.947265625 577.248046875 737.947265625 561.696289062 737.947265625 c 0,15,16
 429.510742188 737.947265625 429.510742188 737.947265625 364.538085938 669.5 c 0,17,18
 291.921875 593 291.921875 593 266.580078125 433 c 0,19,20
 244.248046875 292 244.248046875 292 288.403320312 233 c 128,-1,21
 332.55859375 174 332.55859375 174 409.55859375 174 c 0,22,23
 509.55859375 174 509.55859375 174 578.061523438 234 c 1,24,25
 602.129882812 266 602.129882812 266 609.084960938 281.5 c 128,-1,26
 616.040039062 297 616.040039062 297 614.57421875 313 c 1,27,-1
 625.791992188 327 l 1,28,-1
 644.049804688 316 l 1,29,-1
 680.84765625 119 l 1,30,31
 606.702148438 36 606.702148438 36 527.158203125 1 c 128,-1,32
 447.615234375 -34 447.615234375 -34 354.615234375 -34 c 0,0,1
EndSplineSet
EndChar

StartChar: F
Encoding: 70 70 66
Width: 768
VWidth: 2430
GlyphClass: 2
Flags: HW
AnchorPoint: "Anchor-2" 331 0 basechar 0
AnchorPoint: "Anchor-0" 570.794 1514 basechar 0
LayerCount: 2
Fore
SplineSet
18 0 m 1,0,-1
 258.110351562 1516 l 1,1,-1
 916.110351562 1516 l 1,2,-1
 883.80078125 1312 l 1,3,-1
 429.80078125 1312 l 1,4,-1
 367.396484375 918 l 1,5,-1
 731.396484375 918 l 1,6,-1
 699.086914062 714 l 1,7,-1
 335.086914062 714 l 1,8,-1
 222 0 l 1,9,-1
 18 0 l 1,0,-1
EndSplineSet
EndChar

StartChar: G
Encoding: 71 71 67
Width: 768
VWidth: 2430
GlyphClass: 2
Flags: HW
AnchorPoint: "Anchor-2" 349 0 basechar 0
AnchorPoint: "Anchor-0" 597.794 1514 basechar 0
LayerCount: 2
Fore
SplineSet
361.19921875 -24 m 0,0,1
 163.19921875 -24 163.19921875 -24 86.3212890625 172.5 c 128,-1,2
 9.4443359375 369 9.4443359375 369 68.837890625 744 c 0,3,4
 70.6181640625 755.853515625 70.6181640625 755.853515625 72.4619140625 767.497070312 c 0,5,6
 108.421875 994.536132812 108.421875 994.536132812 168.795898438 1141.5 c 0,7,8
 232.266601562 1296 232.266601562 1296 309.387695312 1382 c 128,-1,9
 386.508789062 1468 386.508789062 1468 465.15625 1500.5 c 128,-1,10
 543.803710938 1533 543.803710938 1533 610.803710938 1533 c 0,11,12
 719.803710938 1533 719.803710938 1533 794.1171875 1475 c 128,-1,13
 868.430664062 1417 868.430664062 1417 893.592773438 1317 c 1,14,-1
 764.359375 1164 l 1,15,-1
 748.350585938 1145 l 1,16,-1
 734.250976562 1157 l 1,17,18
 735.259765625 1176 735.259765625 1176 736.244140625 1198 c 128,-1,19
 737.229492188 1220 737.229492188 1220 720.614257812 1254 c 1,20,21
 696.999023438 1288 696.999023438 1288 667.587890625 1307.5 c 128,-1,22
 638.17578125 1327 638.17578125 1327 584.17578125 1327 c 0,23,24
 525.17578125 1327 525.17578125 1327 468.756835938 1277 c 128,-1,25
 412.337890625 1227 412.337890625 1227 364.751953125 1106.5 c 128,-1,26
 317.166992188 986 317.166992188 986 283.748046875 775 c 0,27,28
 235.282226562 469 235.282226562 469 267.737304688 323.5 c 128,-1,29
 300.192382812 178 300.192382812 178 391.192382812 178 c 0,30,31
 472.192382812 178 472.192382812 178 536.37890625 236 c 1,32,-1
 588.329101562 564 l 1,33,-1
 438.329101562 564 l 1,34,-1
 470.639648438 768 l 1,35,-1
 808.639648438 768 l 1,36,-1
 706.956054688 126 l 1,37,38
 620.810546875 43 620.810546875 43 533.004882812 9.5 c 128,-1,39
 445.19921875 -24 445.19921875 -24 361.19921875 -24 c 0,0,1
EndSplineSet
EndChar

StartChar: H
Encoding: 72 72 74
Width: 768
VWidth: 2430
GlyphClass: 2
Flags: HW
AnchorPoint: "Anchor-4" 634.056 758 basechar 0
AnchorPoint: "Anchor-2" 514 0 basechar 0
AnchorPoint: "Anchor-0" 643.794 1514 basechar 0
LayerCount: 2
Fore
SplineSet
210.793945312 1514 m 1,0,-1
 442.793945312 1514 l 1,1,-1
 439.78515625 1495 l 1,2,3
 428.567382812 1481 428.567382812 1481 422.795898438 1463.5 c 128,-1,4
 417.0234375 1446 417.0234375 1446 410.530273438 1405 c 2,5,-1
 329.75390625 895 l 1,6,-1
 603.75390625 895 l 1,7,-1
 701.793945312 1514 l 1,8,-1
 935.793945312 1514 l 1,9,-1
 932.78515625 1495 l 1,10,11
 921.567382812 1481 921.567382812 1481 915.795898438 1463.5 c 128,-1,12
 910.0234375 1446 910.0234375 1446 903.530273438 1405 c 2,13,-1
 681 0 l 1,14,-1
 462 0 l 1,15,-1
 571.443359375 691 l 1,16,-1
 297.443359375 691 l 1,17,-1
 188 0 l 1,18,-1
 -29 0 l 1,19,-1
 210.793945312 1514 l 1,0,-1
EndSplineSet
EndChar

StartChar: Hbar
Encoding: 294 294 75
Width: 768
VWidth: 2430
GlyphClass: 2
Flags: HW
AnchorPoint: "Anchor-4" 561.056 758 basechar 0
AnchorPoint: "Anchor-2" 441 0 basechar 0
AnchorPoint: "Anchor-0" 583.794 1514 basechar 0
LayerCount: 2
Fore
SplineSet
293.75390625 895 m 1,0,-1
 537.75390625 895 l 1,1,-1
 583.051757812 1181 l 1,2,-1
 339.051757812 1181 l 1,3,-1
 293.75390625 895 l 1,0,-1
96.0517578125 1181 m 1,4,-1
 127.5703125 1380 l 1,5,-1
 177.5703125 1380 l 1,6,-1
 198.793945312 1514 l 1,7,-1
 404.793945312 1514 l 1,8,-1
 401.78515625 1495 l 1,9,10
 391.567382812 1481 391.567382812 1481 386.295898438 1463.5 c 128,-1,11
 381.0234375 1446 381.0234375 1446 374.530273438 1405 c 2,12,-1
 370.5703125 1380 l 1,13,-1
 614.5703125 1380 l 1,14,-1
 635.793945312 1514 l 1,15,-1
 843.793945312 1514 l 1,16,-1
 840.78515625 1495 l 1,17,18
 830.567382812 1481 830.567382812 1481 824.795898438 1463.5 c 128,-1,19
 819.0234375 1446 819.0234375 1446 812.530273438 1405 c 2,20,-1
 808.5703125 1380 l 1,21,-1
 863.5703125 1380 l 1,22,-1
 832.051757812 1181 l 1,23,-1
 777.051757812 1181 l 1,24,-1
 590 0 l 1,25,-1
 396 0 l 1,26,-1
 505.443359375 691 l 1,27,-1
 261.443359375 691 l 1,28,-1
 152 0 l 1,29,-1
 -41 0 l 1,30,-1
 146.051757812 1181 l 1,31,-1
 96.0517578125 1181 l 1,4,-1
EndSplineSet
EndChar

StartChar: I
Encoding: 73 73 79
Width: 768
VWidth: 2430
GlyphClass: 2
Flags: HW
AnchorPoint: "Anchor-3" 509 0 basechar 0
AnchorPoint: "Anchor-2" 333 0 basechar 0
AnchorPoint: "Anchor-0" 558.794 1514 basechar 0
LayerCount: 2
Fore
SplineSet
20 0 m 1,0,-1
 52.310546875 204 l 1,1,-1
 249.310546875 204 l 1,2,-1
 424.166992188 1308 l 1,3,-1
 234.166992188 1308 l 1,4,-1
 266.793945312 1514 l 1,5,-1
 859.793945312 1514 l 1,6,-1
 827.166992188 1308 l 1,7,-1
 630.166992188 1308 l 1,8,-1
 454.994140625 202 l 1,9,-1
 661.994140625 202 l 1,10,-1
 630 0 l 1,11,-1
 20 0 l 1,0,-1
EndSplineSet
EndChar

StartChar: J
Encoding: 74 74 94
Width: 768
VWidth: 2430
GlyphClass: 2
Flags: HW
AnchorPoint: "Anchor-2" 288 0 basechar 0
AnchorPoint: "Anchor-0" 683.794 1514 basechar 0
LayerCount: 2
Fore
SplineSet
221.248046875 -30 m 0,0,1
 143.248046875 -30 143.248046875 -30 78.212890625 4.5 c 128,-1,2
 13.1767578125 39 13.1767578125 39 -23.2607421875 112 c 1,3,-1
 91.3662109375 318 l 1,4,-1
 105.008789062 341 l 1,5,-1
 119.7421875 333 l 1,6,7
 125.732421875 314 125.732421875 314 125.352539062 289.5 c 128,-1,8
 124.971679688 265 124.971679688 265 146.061523438 234 c 1,9,10
 185.092773438 190 185.092773438 190 242.092773438 190 c 0,11,12
 300.092773438 190 300.092773438 190 344.813476562 264 c 128,-1,13
 389.534179688 338 389.534179688 338 417.884765625 517 c 2,14,-1
 543.483398438 1310 l 1,15,-1
 347.483398438 1310 l 1,16,-1
 379.793945312 1514 l 1,17,-1
 934.793945312 1514 l 1,18,-1
 902.483398438 1310 l 1,19,-1
 755.483398438 1310 l 1,20,-1
 628.776367188 510 l 2,21,22
 597.2578125 311 597.2578125 311 536.831054688 191.5 c 128,-1,23
 476.403320312 72 476.403320312 72 394.66796875 20 c 0,24,25
 315.958984375 -30.07421875 315.958984375 -30.07421875 228.026367188 -30.07421875 c 0,26,27
 224.64453125 -30.07421875 224.64453125 -30.07421875 221.248046875 -30 c 0,0,1
EndSplineSet
EndChar

StartChar: K
Encoding: 75 75 96
Width: 768
VWidth: 2430
GlyphClass: 1
Flags: HW
LayerCount: 2
Fore
SplineSet
330.900390625 656 m 1,0,-1
 260.537109375 559 l 1,1,-1
 175 0 l 1,2,-1
 -31 0 l 1,3,-1
 208.793945312 1514 l 1,4,-1
 433.793945312 1514 l 1,5,-1
 430.78515625 1495 l 1,6,7
 417.567382812 1481 417.567382812 1481 410.795898438 1463.5 c 128,-1,8
 404.0234375 1446 404.0234375 1446 397.530273438 1405 c 2,9,-1
 320.396484375 918 l 1,10,-1
 711.694335938 1526 l 1,11,12
 741.90234375 1521 741.90234375 1521 786.348632812 1517.5 c 128,-1,13
 830.793945312 1514 830.793945312 1514 856.793945312 1514 c 2,14,-1
 923.793945312 1514 l 1,15,-1
 495.309570312 848 l 1,16,-1
 705 0 l 1,17,-1
 481.57421875 -9 l 1,18,-1
 330.900390625 656 l 1,0,-1
EndSplineSet
EndChar

StartChar: uni0198
Encoding: 408 408 98
Width: 768
VWidth: 2430
GlyphClass: 1
Flags: HW
LayerCount: 2
Fore
SplineSet
211.793945312 1514 m 1,0,-1
 446.793945312 1514 l 1,1,-1
 443.78515625 1495 l 1,2,3
 427.567382812 1481 427.567382812 1481 421.295898438 1463.5 c 128,-1,4
 415.0234375 1446 415.0234375 1446 408.530273438 1405 c 2,5,-1
 337.732421875 958 l 1,6,7
 462.051757812 1181 462.051757812 1181 551.69140625 1305 c 128,-1,8
 641.331054688 1429 641.331054688 1429 713.512695312 1477.5 c 128,-1,9
 785.694335938 1526 785.694335938 1526 856.694335938 1526 c 0,10,11
 879.694335938 1526 879.694335938 1526 903.40234375 1521 c 128,-1,12
 927.110351562 1516 927.110351562 1516 939.685546875 1507 c 1,13,-1
 903.098632812 1276 l 1,14,-1
 899.296875 1252 l 1,15,-1
 885.296875 1252 l 1,16,17
 878.514648438 1266 878.514648438 1266 869.415039062 1278 c 128,-1,18
 860.31640625 1290 860.31640625 1290 835.583007812 1298 c 0,19,20
 830.583007812 1298 830.583007812 1298 818.583007812 1298 c 0,21,22
 787.583007812 1298 787.583007812 1298 747.619140625 1263.5 c 128,-1,23
 707.654296875 1229 707.654296875 1229 641.979492188 1139.5 c 128,-1,24
 576.303710938 1050 576.303710938 1050 475.6953125 882 c 1,25,-1
 708 0 l 1,26,-1
 483.099609375 -12 l 1,27,-1
 324.040039062 619 l 1,28,29
 297.75390625 573 297.75390625 573 268.360351562 520 c 1,30,-1
 186 0 l 1,31,-1
 -28 0 l 1,32,-1
 211.793945312 1514 l 1,0,-1
EndSplineSet
EndChar

StartChar: L
Encoding: 76 76 99
Width: 768
VWidth: 2430
GlyphClass: 2
Flags: HW
AnchorPoint: "Anchor-4" 221.056 758 basechar 0
AnchorPoint: "Anchor-2" 331 0 basechar 0
AnchorPoint: "Anchor-1" 407.599 1115 basechar 0
AnchorPoint: "Anchor-0" 514.794 1514 basechar 0
LayerCount: 2
Fore
SplineSet
238.793945312 1514 m 1,0,-1
 476.793945312 1514 l 1,1,-1
 473.78515625 1495 l 1,2,3
 457.567382812 1481 457.567382812 1481 450.795898438 1463.5 c 128,-1,4
 444.0234375 1446 444.0234375 1446 437.530273438 1405 c 2,5,-1
 248.102539062 209 l 1,6,-1
 714.102539062 209 l 1,7,-1
 681 0 l 1,8,-1
 -1 0 l 1,9,-1
 238.793945312 1514 l 1,0,-1
EndSplineSet
EndChar

StartChar: uni01C7
Encoding: 455 455 100
Width: 768
VWidth: 2350
GlyphClass: 1
Flags: HW
LayerCount: 2
Fore
SplineSet
0.431640625 129 m 1,0,-1
 219.793945312 1514 l 1,1,-1
 427.793945312 1514 l 1,2,3
 425.41796875 1499 425.41796875 1499 421.78515625 1495 c 128,-1,4
 418.151367188 1491 418.151367188 1491 412.146484375 1481.5 c 128,-1,5
 406.141601562 1472 406.141601562 1472 400.756835938 1438 c 2,6,-1
 222.732421875 314 l 1,7,-1
 392.732421875 314 l 1,8,-1
 363.431640625 129 l 1,9,-1
 0.431640625 129 l 1,0,-1
316.037109375 -246 m 0,10,11
 174.037109375 -246 174.037109375 -246 98.9345703125 -133 c 1,12,-1
 230.751953125 30 l 1,13,14
 245.05859375 13 245.05859375 13 239.5546875 3.5 c 128,-1,15
 234.049804688 -6 234.049804688 -6 250.565429688 -28 c 0,16,17
 259.505859375 -41 259.505859375 -41 277.368164062 -54.5 c 128,-1,18
 295.229492188 -68 295.229492188 -68 328.229492188 -68 c 0,19,20
 379.229492188 -68 379.229492188 -68 416.475585938 3 c 128,-1,21
 453.720703125 74 453.720703125 74 484.2890625 267 c 2,22,-1
 652.651367188 1330 l 1,23,-1
 516.651367188 1330 l 1,24,-1
 545.793945312 1514 l 1,25,-1
 872.793945312 1514 l 1,26,-1
 673.546875 256 l 2,27,28
 672.073242188 246.026367188 672.073242188 246.026367188 670.528320312 236.272460938 c 0,0,0
 643.106445312 63.1337890625 643.106445312 63.1337890625 593.005859375 -41 c 128,-1,29
 540.083984375 -151 540.083984375 -151 469.060546875 -198.5 c 128,-1,30
 398.037109375 -246 398.037109375 -246 316.037109375 -246 c 0,10,11
EndSplineSet
EndChar

StartChar: Lcaron
Encoding: 317 317 102
Width: 768
VWidth: 2430
GlyphClass: 2
Flags: HW
AnchorPoint: "Anchor-4" 221.056 758 basechar 0
AnchorPoint: "Anchor-2" 331 0 basechar 0
AnchorPoint: "Anchor-1" 407.599 1115 basechar 0
AnchorPoint: "Anchor-0" 514.794 1514 basechar 0
LayerCount: 2
Fore
SplineSet
238.793945312 1514 m 1,0,-1
 476.793945312 1514 l 1,1,-1
 473.78515625 1495 l 1,2,3
 457.567382812 1481 457.567382812 1481 450.795898438 1463.5 c 128,-1,4
 444.0234375 1446 444.0234375 1446 437.530273438 1405 c 2,5,-1
 248.102539062 209 l 1,6,-1
 714.102539062 209 l 1,7,-1
 681 0 l 1,8,-1
 -1 0 l 1,9,-1
 238.793945312 1514 l 1,0,-1
648.80078125 990 m 1,10,-1
 560.99609375 1067 l 1,11,12
 613.07421875 1118 613.07421875 1118 644.9140625 1167.5 c 128,-1,13
 676.75390625 1217 676.75390625 1217 683.088867188 1257 c 0,14,15
 687.365234375 1284 687.365234375 1284 675.4296875 1306.5 c 128,-1,16
 663.493164062 1329 663.493164062 1329 650.53125 1354.5 c 128,-1,17
 637.5703125 1380 637.5703125 1380 643.747070312 1419 c 0,18,19
 652.93359375 1477 652.93359375 1477 694.422851562 1508.5 c 128,-1,20
 735.912109375 1540 735.912109375 1540 778.912109375 1540 c 0,21,22
 831.912109375 1540 831.912109375 1540 861.15625 1500.5 c 128,-1,23
 890.399414062 1461 890.399414062 1461 877.887695312 1382 c 0,24,25
 848.427734375 1196 848.427734375 1196 648.80078125 990 c 1,10,-1
EndSplineSet
EndChar

StartChar: uni01C8
Encoding: 456 456 106
Width: 768
VWidth: 2355
GlyphClass: 1
Flags: HW
LayerCount: 2
Fore
SplineSet
274.037109375 -246 m 0,0,1
 219.037109375 -246 219.037109375 -246 169.051757812 -217.5 c 128,-1,2
 119.065429688 -189 119.065429688 -189 88.826171875 -140 c 1,3,-1
 221.602539062 48 l 1,4,5
 232.2265625 33 232.2265625 33 225.55859375 13 c 128,-1,6
 218.891601562 -7 218.891601562 -7 252.139648438 -37 c 0,7,8
 271.763671875 -52 271.763671875 -52 304.763671875 -52 c 0,9,10
 355.763671875 -52 355.763671875 -52 397.31640625 2 c 128,-1,11
 438.869140625 56 438.869140625 56 459.618164062 187 c 2,12,-1
 587.1171875 992 l 1,13,-1
 430.1171875 992 l 1,14,-1
 459.1015625 1175 l 1,15,-1
 795.1015625 1175 l 1,16,-1
 640.04296875 196 l 2,17,18
 602.665039062 -40 602.665039062 -40 504.850585938 -143 c 128,-1,19
 407.037109375 -246 407.037109375 -246 274.037109375 -246 c 0,0,1
17.9658203125 145 m 1,20,-1
 236.219726562 1523 l 1,21,-1
 436.219726562 1523 l 1,22,23
 432.735351562 1501 432.735351562 1501 425.596679688 1487.5 c 128,-1,24
 418.458984375 1474 418.458984375 1474 413.865234375 1445 c 2,25,-1
 238.05859375 335 l 1,26,-1
 392.05859375 335 l 1,27,-1
 359.965820312 145 l 1,28,-1
 17.9658203125 145 l 1,20,-1
725.244140625 1359 m 0,29,30
 672.244140625 1359 672.244140625 1359 641.025390625 1395.5 c 128,-1,31
 609.806640625 1432 609.806640625 1432 618.201171875 1485 c 128,-1,32
 626.595703125 1538 626.595703125 1538 669.375976562 1574.5 c 128,-1,33
 712.157226562 1611 712.157226562 1611 765.157226562 1611 c 0,34,35
 816.157226562 1611 816.157226562 1611 847.717773438 1573.5 c 128,-1,36
 879.278320312 1536 879.278320312 1536 871.201171875 1485 c 0,37,38
 862.806640625 1432 862.806640625 1432 819.525390625 1395.5 c 128,-1,39
 776.244140625 1359 776.244140625 1359 725.244140625 1359 c 0,29,30
EndSplineSet
EndChar

StartChar: Lslash
Encoding: 321 321 108
Width: 768
VWidth: 2430
GlyphClass: 1
Flags: HW
LayerCount: 2
Fore
SplineSet
10 0 m 1,0,-1
 95.52734375 540 l 1,1,-1
 6.6669921875 503 l 1,2,-1
 41.9873046875 726 l 1,3,-1
 131.639648438 768 l 1,4,-1
 249.793945312 1514 l 1,5,-1
 472.793945312 1514 l 2,6,7
 479.477539062 1512 479.477539062 1512 478.685546875 1507 c 0,8,9
 477.259765625 1498 477.259765625 1498 464.883789062 1483 c 128,-1,10
 452.508789062 1468 452.508789062 1468 444.6484375 1431 c 2,11,-1
 355.319335938 867 l 1,12,-1
 593.266601562 974 l 2,13,14
 631.483398438 988 631.483398438 988 652.334960938 1006 c 1,15,-1
 613.530273438 761 l 1,16,-1
 320.57421875 635 l 1,17,-1
 253.102539062 209 l 1,18,-1
 696.102539062 209 l 1,19,-1
 663 0 l 1,20,-1
 10 0 l 1,0,-1
EndSplineSet
EndChar

StartChar: M
Encoding: 77 77 109
Width: 768
VWidth: 2430
GlyphClass: 2
Flags: HW
AnchorPoint: "Anchor-2" 325 0 basechar 0
AnchorPoint: "Anchor-0" 564.794 1514 basechar 0
LayerCount: 2
Fore
SplineSet
-42 0 m 1,0,-1
 197.793945312 1514 l 1,1,-1
 372.793945312 1514 l 1,2,-1
 468.1796875 904 l 1,3,-1
 762.110351562 1516 l 1,4,-1
 934.110351562 1516 l 1,5,-1
 694 0 l 1,6,-1
 513 0 l 1,7,-1
 679.245117188 1037 l 1,8,-1
 441.2109375 538 l 1,9,-1
 370.2109375 538 l 1,10,-1
 298.453125 1032 l 1,11,-1
 137 0 l 1,12,-1
 -42 0 l 1,0,-1
EndSplineSet
EndChar

StartChar: N
Encoding: 78 78 111
Width: 768
VWidth: 2430
GlyphClass: 2
Flags: HW
AnchorPoint: "Anchor-2" 328 0 basechar 0
AnchorPoint: "Anchor-0" 567.794 1514 basechar 0
LayerCount: 2
Fore
SplineSet
207.793945312 1514 m 1,0,-1
 412.793945312 1514 l 1,1,-1
 595.86328125 580 l 1,2,-1
 736.793945312 1514 l 1,3,-1
 943.793945312 1514 l 1,4,-1
 940.78515625 1495 l 1,5,6
 924.567382812 1481 924.567382812 1481 919.795898438 1463.5 c 128,-1,7
 915.0234375 1446 915.0234375 1446 908.530273438 1405 c 2,8,-1
 686 0 l 1,9,-1
 507 0 l 1,10,-1
 317.225585938 999 l 1,11,-1
 159 0 l 1,12,-1
 -32 0 l 1,13,-1
 207.793945312 1514 l 1,0,-1
EndSplineSet
EndChar

StartChar: Eng
Encoding: 330 330 117
Width: 768
VWidth: 2328
GlyphClass: 2
Flags: HW
AnchorPoint: "Anchor-2" 310.45 167 basechar 0
AnchorPoint: "Anchor-0" 527.794 1514 basechar 0
LayerCount: 2
Fore
SplineSet
686.793945312 1514 m 1,0,-1
 859.793945312 1514 l 1,1,2
 856.78515625 1495 856.78515625 1495 850.067382812 1481 c 128,-1,3
 843.349609375 1467 843.349609375 1467 839.390625 1442 c 2,4,-1
 637.450195312 167 l 2,5,6
 601.813476562 -58 601.813476562 -58 512.92578125 -152 c 128,-1,7
 424.037109375 -246 424.037109375 -246 317.037109375 -246 c 0,8,9
 278.037109375 -246 278.037109375 -246 239.150390625 -229.5 c 128,-1,10
 200.263671875 -213 200.263671875 -213 164.173828125 -182 c 1,11,-1
 266.68359375 -2 l 1,12,13
 281.049804688 -6 281.049804688 -6 285.83203125 -20 c 128,-1,14
 290.615234375 -34 290.615234375 -34 300.055664062 -47 c 128,-1,15
 309.497070312 -60 309.497070312 -60 342.497070312 -60 c 0,16,17
 390.497070312 -60 390.497070312 -60 420.920898438 -0.5 c 128,-1,18
 451.344726562 59 451.344726562 59 473.202148438 197 c 1,19,-1
 300.25390625 1056 l 1,20,-1
 159.450195312 167 l 1,21,-1
 -11.5498046875 167 l 1,22,-1
 201.793945312 1514 l 1,23,-1
 370.793945312 1514 l 1,24,-1
 555.176757812 683 l 1,25,-1
 686.793945312 1514 l 1,0,-1
EndSplineSet
EndChar

StartChar: O
Encoding: 79 79 120
Width: 768
VWidth: 2430
GlyphClass: 2
Flags: HW
AnchorPoint: "Anchor-4" 425.056 758 basechar 0
AnchorPoint: "Anchor-3" 359.752 30 basechar 0
AnchorPoint: "Anchor-2" 307 0 basechar 0
AnchorPoint: "Anchor-1" 758.956 1414 basechar 0
AnchorPoint: "Anchor-0" 545.11 1516 basechar 0
LayerCount: 2
Fore
SplineSet
334.55859375 174 m 0,0,1
 386.55859375 174 386.55859375 174 432.953125 227 c 128,-1,2
 479.34765625 280 479.34765625 280 518.8828125 406.5 c 128,-1,3
 558.418945312 533 558.418945312 533 593.263671875 753 c 0,4,5
 642.521484375 1064 642.521484375 1064 619.848632812 1195.5 c 128,-1,6
 597.17578125 1327 597.17578125 1327 517.17578125 1327 c 0,7,8
 435.17578125 1327 435.17578125 1327 371.348632812 1195.5 c 128,-1,9
 307.521484375 1064 307.521484375 1064 258.263671875 753 c 0,10,11
 223.260742188 532 223.260742188 532 222.803710938 406 c 128,-1,12
 222.34765625 280 222.34765625 280 250.953125 227 c 128,-1,13
 279.55859375 174 279.55859375 174 334.55859375 174 c 0,0,1
302.723632812 -27 m 128,-1,15
 178.723632812 -27 178.723632812 -27 109.33984375 49.5 c 128,-1,16
 39.9560546875 126 39.9560546875 126 26.119140625 297.5 c 128,-1,17
 12.2822265625 469 12.2822265625 469 56.9462890625 751 c 0,18,19
 122.359375 1164 122.359375 1164 243.685546875 1346 c 128,-1,20
 365.01171875 1528 365.01171875 1528 549.01171875 1528 c 0,21,22
 734.01171875 1528 734.01171875 1528 796.185546875 1346 c 128,-1,23
 858.359375 1164 858.359375 1164 792.946289062 751 c 0,24,25
 748.282226562 469 748.282226562 469 680.119140625 297.5 c 128,-1,26
 611.956054688 126 611.956054688 126 519.33984375 49.5 c 128,-1,14
 426.723632812 -27 426.723632812 -27 302.723632812 -27 c 128,-1,15
EndSplineSet
Substitution2: "Single Substitution lookup 29 subtable" ordmasculine
Substitution2: "'aalt' Access All Alternates in Latin lookup 0 subtable" ordmasculine
EndChar

StartChar: Oslash
Encoding: 216 216 148
Width: 768
VWidth: 2430
GlyphClass: 2
Flags: HW
AnchorPoint: "Anchor-4" 425.056 758 basechar 0
AnchorPoint: "Anchor-3" 359.752 30 basechar 0
AnchorPoint: "Anchor-2" 307 0 basechar 0
AnchorPoint: "Anchor-1" 758.956 1414 basechar 0
AnchorPoint: "Anchor-0" 545.11 1516 basechar 0
LayerCount: 2
Fore
SplineSet
334.55859375 174 m 0,0,1
 386.55859375 174 386.55859375 174 432.953125 227 c 128,-1,2
 479.34765625 280 479.34765625 280 518.8828125 406.5 c 128,-1,3
 558.418945312 533 558.418945312 533 593.263671875 753 c 0,4,5
 622.248046875 936 622.248046875 936 628.412109375 1057 c 1,6,7
 629.412109375 1057 629.412109375 1057 237.497070312 262 c 1,8,9
 261.55859375 174 261.55859375 174 334.55859375 174 c 0,0,1
258.263671875 753 m 0,10,11
 233.23828125 595 233.23828125 595 224.974609375 486 c 1,12,-1
 605.40625 1259 l 1,13,14
 577.17578125 1327 577.17578125 1327 517.17578125 1327 c 0,15,16
 435.17578125 1327 435.17578125 1327 371.348632812 1195.5 c 128,-1,17
 307.521484375 1064 307.521484375 1064 258.263671875 753 c 0,10,11
48.626953125 -116 m 1,18,-1
 -47.294921875 -65 l 1,19,-1
 56.8076171875 144 l 1,20,21
 23.537109375 237 23.537109375 237 23.3740234375 387.5 c 128,-1,22
 23.2109375 538 23.2109375 538 56.9462890625 751 c 0,23,24
 122.359375 1164 122.359375 1164 243.685546875 1346 c 128,-1,25
 365.01171875 1528 365.01171875 1528 549.01171875 1528 c 0,26,27
 649.01171875 1528 649.01171875 1528 711.93359375 1477 c 1,28,-1
 799.6015625 1658 l 1,29,-1
 897.048828125 1604 l 1,30,-1
 785.25390625 1378 l 1,31,32
 862.953125 1193 862.953125 1193 792.946289062 751 c 0,33,34
 748.282226562 469 748.282226562 469 680.119140625 297.5 c 128,-1,35
 611.956054688 126 611.956054688 126 518.83984375 49.5 c 128,-1,36
 425.723632812 -27 425.723632812 -27 302.723632812 -27 c 0,37,38
 188.723632812 -27 188.723632812 -27 123.384765625 34 c 1,39,-1
 48.626953125 -116 l 1,18,-1
EndSplineSet
EndChar

StartChar: OE
Encoding: 338 338 154
Width: 768
VWidth: 2430
GlyphClass: 1
Flags: HW
LayerCount: 2
Fore
SplineSet
227.092773438 190 m 128,-1,1
 281.092773438 190 281.092773438 190 316.534179688 338 c 1,2,-1
 447.04296875 1162 l 1,3,4
 461.6015625 1336 461.6015625 1336 398.6015625 1336 c 0,5,6
 371.6015625 1336 371.6015625 1336 344.157226562 1289 c 128,-1,7
 316.713867188 1242 316.713867188 1242 284.415039062 1117 c 128,-1,8
 256.572265625 1009.24121094 256.572265625 1009.24121094 227.028320312 822.70703125 c 0,0,0
 222.30078125 792.862304688 222.30078125 792.862304688 217.530273438 761 c 0,9,10
 170.490234375 464 170.490234375 464 171.791992188 327 c 128,-1,0
 173.092773438 190 173.092773438 190 227.092773438 190 c 128,-1,1
163.307617188 -17 m 0,11,12
 89.3076171875 -17 89.3076171875 -17 43.6318359375 54.5 c 128,-1,13
 -2.0439453125 126 -2.0439453125 126 -6.7763671875 295 c 128,-1,14
 -11.509765625 464 -11.509765625 464 35.0556640625 758 c 0,15,16
 101.577148438 1178 101.577148438 1178 195.848632812 1356.5 c 128,-1,17
 290.120117188 1535 290.120117188 1535 411.120117188 1535 c 0,18,19
 472.120117188 1535 472.120117188 1535 502.033203125 1465 c 1,20,-1
 510.110351562 1516 l 1,21,-1
 891.110351562 1516 l 1,22,-1
 858.80078125 1312 l 1,23,-1
 651.80078125 1312 l 1,24,-1
 585.279296875 892 l 1,25,-1
 762.279296875 892 l 1,26,-1
 729.651367188 686 l 1,27,-1
 552.651367188 686 l 1,28,-1
 475.994140625 202 l 1,29,-1
 679.994140625 202 l 1,30,-1
 648 0 l 1,31,-1
 268 0 l 1,32,-1
 275.760742188 49 l 1,33,34
 253.375976562 15 253.375976562 15 222.841796875 -1 c 128,-1,35
 192.307617188 -17 192.307617188 -17 163.307617188 -17 c 0,11,12
EndSplineSet
EndChar

StartChar: P
Encoding: 80 80 155
Width: 768
VWidth: 2430
GlyphClass: 2
Flags: HW
AnchorPoint: "Anchor-2" 168 0 basechar 0
AnchorPoint: "Anchor-0" 570.794 1514 basechar 0
LayerCount: 2
Fore
SplineSet
335.884765625 839 m 1,0,-1
 463.884765625 839 l 2,1,2
 535.884765625 839 535.884765625 839 589.125 900.5 c 128,-1,3
 642.366210938 962 642.366210938 962 659.3125 1069 c 0,4,5
 677.685546875 1185 677.685546875 1185 644.188476562 1245 c 128,-1,6
 610.69140625 1305 610.69140625 1305 537.69140625 1305 c 2,7,-1
 409.69140625 1305 l 1,8,-1
 335.884765625 839 l 1,0,-1
-16 0 m 1,9,-1
 223.793945312 1514 l 1,10,-1
 578.793945312 1514 l 2,11,12
 763.793945312 1514 763.793945312 1514 836.500976562 1398.5 c 128,-1,13
 909.20703125 1283 909.20703125 1283 875.629882812 1071 c 0,14,15
 844.427734375 874 844.427734375 874 730.184570312 752.5 c 128,-1,16
 615.940429688 631 615.940429688 631 445.940429688 631 c 2,17,-1
 302.940429688 631 l 1,18,-1
 203 0 l 1,19,-1
 -16 0 l 1,9,-1
EndSplineSet
EndChar

StartChar: Thorn
Encoding: 222 222 156
Width: 768
VWidth: 2430
GlyphClass: 1
Flags: HW
LayerCount: 2
Fore
SplineSet
291.853515625 561 m 1,0,-1
 429.853515625 561 l 2,1,2
 517.853515625 561 517.853515625 561 565.806640625 627 c 128,-1,3
 613.760742188 693 613.760742188 693 629.916015625 795 c 128,-1,4
 646.071289062 897 646.071289062 897 616.658203125 967 c 128,-1,5
 587.245117188 1037 587.245117188 1037 500.245117188 1037 c 2,6,-1
 367.245117188 1037 l 1,7,-1
 291.853515625 561 l 1,0,-1
-13 0 m 1,8,-1
 226.793945312 1514 l 1,9,-1
 456.793945312 1514 l 2,10,11
 458.477539062 1512 458.477539062 1512 457.368164062 1505 c 128,-1,12
 456.259765625 1498 456.259765625 1498 447.04296875 1484 c 128,-1,13
 437.825195312 1470 437.825195312 1470 431.073242188 1440 c 2,14,-1
 400.822265625 1249 l 1,15,-1
 550.822265625 1249 l 2,16,17
 735.822265625 1249 735.822265625 1249 805.866210938 1123 c 128,-1,18
 875.909179688 997 875.909179688 997 845.024414062 802 c 0,19,20
 813.030273438 600 813.030273438 600 702.682617188 481 c 128,-1,21
 592.334960938 362 592.334960938 362 406.334960938 362 c 2,22,-1
 260.334960938 362 l 1,23,-1
 203 0 l 1,24,-1
 -13 0 l 1,8,-1
EndSplineSet
EndChar

StartChar: Q
Encoding: 81 81 157
Width: 768
VWidth: 2380
GlyphClass: 2
Flags: HW
AnchorPoint: "Anchor-2" 320.305 84 basechar 0
AnchorPoint: "Anchor-0" 546.952 1515 basechar 0
LayerCount: 2
Fore
SplineSet
355.229492188 254 m 0,0,1
 426.229492188 254 426.229492188 254 490.418945312 372 c 128,-1,2
 554.608398438 490 554.608398438 490 598.639648438 768 c 0,3,4
 633.642578125 989 633.642578125 989 631.940429688 1114 c 128,-1,5
 630.23828125 1239 630.23828125 1239 598.736328125 1289.5 c 128,-1,6
 567.235351562 1340 567.235351562 1340 521.235351562 1340 c 0,7,8
 440.235351562 1340 440.235351562 1340 376.75390625 1217 c 128,-1,9
 313.272460938 1094 313.272460938 1094 270.350585938 823 c 0,10,11
 222.04296875 518 222.04296875 518 247.13671875 386 c 128,-1,12
 272.229492188 254 272.229492188 254 355.229492188 254 c 0,0,1
489.196289062 -245 m 1,13,14
 471.603515625 -246.025390625 471.603515625 -246.025390625 455.184570312 -246.025390625 c 0,15,16
 327.489257812 -246.025390625 327.489257812 -246.025390625 270.857421875 -184 c 0,17,18
 206.944335938 -114 206.944335938 -114 236.086914062 70 c 1,19,20
 109.263671875 109 109.263671875 109 60.53125 278 c 128,-1,21
 11.7978515625 447 11.7978515625 447 66.7568359375 794 c 0,22,23
 101.443359375 1013 101.443359375 1013 153.592773438 1156 c 128,-1,24
 205.741210938 1299 205.741210938 1299 270.387695312 1382 c 128,-1,25
 335.033203125 1465 335.033203125 1465 406.91796875 1499 c 128,-1,26
 478.803710938 1533 478.803710938 1533 551.803710938 1533 c 0,27,28
 652.803710938 1533 652.803710938 1533 726.508789062 1468 c 128,-1,29
 800.212890625 1403 800.212890625 1403 824.213867188 1242 c 128,-1,30
 848.213867188 1081 848.213867188 1081 803.390625 798 c 0,31,32
 765.219726562 557 765.219726562 557 709.224609375 405.5 c 128,-1,33
 653.229492188 254 653.229492188 254 580.637695312 174.5 c 128,-1,34
 508.046875 95 508.046875 95 417.086914062 70 c 1,35,36
 410.633789062 4 410.633789062 4 425.931640625 -32 c 128,-1,37
 441.229492188 -68 441.229492188 -68 491.229492188 -68 c 2,38,-1
 607.338867188 -61 l 1,39,-1
 576.196289062 -245 l 1,40,-1
 489.196289062 -245 l 1,13,14
EndSplineSet
EndChar

StartChar: R
Encoding: 82 82 158
Width: 768
VWidth: 2430
GlyphClass: 2
Flags: HW
AnchorPoint: "Anchor-2" 331 0 basechar 0
AnchorPoint: "Anchor-0" 570.794 1514 basechar 0
LayerCount: 2
Fore
SplineSet
332.884765625 839 m 1,0,-1
 456.884765625 839 l 2,1,2
 524.884765625 839 524.884765625 839 572.674804688 894.5 c 128,-1,3
 620.46484375 950 620.46484375 950 640.104492188 1074 c 0,4,5
 658.477539062 1190 658.477539062 1190 628.584960938 1247.5 c 128,-1,6
 598.69140625 1305 598.69140625 1305 530.69140625 1305 c 2,7,-1
 406.69140625 1305 l 1,8,-1
 332.884765625 839 l 1,0,-1
-13 0 m 1,9,-1
 226.793945312 1514 l 1,10,-1
 546.793945312 1514 l 2,11,12
 738.793945312 1514 738.793945312 1514 812.659179688 1399.5 c 128,-1,13
 886.524414062 1285 886.524414062 1285 853.421875 1076 c 0,14,15
 827.60546875 913 827.60546875 913 762.029296875 811.5 c 128,-1,16
 696.453125 710 696.453125 710 597.484375 666 c 1,17,-1
 713 0 l 1,18,-1
 502 0 l 1,19,-1
 394.366210938 640 l 1,20,-1
 301.366210938 640 l 1,21,-1
 200 0 l 1,22,-1
 -13 0 l 1,9,-1
EndSplineSet
EndChar

StartChar: S
Encoding: 83 83 166
Width: 768
VWidth: 2430
GlyphClass: 2
Flags: HW
AnchorPoint: "Anchor-2" 331 0 basechar 0
AnchorPoint: "Anchor-0" 583.794 1514 basechar 0
LayerCount: 2
Fore
SplineSet
313.19921875 -24 m 0,0,1
 88.19921875 -24 88.19921875 -24 -13.0439453125 126 c 1,2,-1
 112.434570312 350 l 1,3,-1
 123.235351562 374 l 1,4,-1
 137.65234375 364 l 1,5,6
 143.958984375 347 143.958984375 347 143.658203125 323 c 128,-1,7
 143.357421875 299 143.357421875 299 161.971679688 265 c 1,8,9
 194.794921875 226 194.794921875 226 238.65234375 203 c 128,-1,10
 282.508789062 180 282.508789062 180 337.508789062 180 c 0,11,12
 418.508789062 180 418.508789062 180 472.037109375 237 c 128,-1,13
 525.565429688 294 525.565429688 294 542.51171875 401 c 0,14,15
 550.90625 454 550.90625 454 546.271484375 500.5 c 128,-1,16
 541.63671875 547 541.63671875 547 508.763671875 592 c 128,-1,17
 475.890625 637 475.890625 637 402.760742188 693 c 1,18,19
 262.490234375 786 262.490234375 786 214.200195312 891.5 c 128,-1,20
 165.909179688 997 165.909179688 997 189.666992188 1147 c 0,21,22
 218.967773438 1332 218.967773438 1332 330.043945312 1433.5 c 128,-1,23
 441.120117188 1535 441.120117188 1535 589.120117188 1535 c 0,24,25
 793.120117188 1535 793.120117188 1535 884.778320312 1375 c 1,26,-1
 763.051757812 1181 l 1,27,-1
 750.567382812 1159 l 1,28,-1
 735.151367188 1169 l 1,29,30
 730.84375 1186 730.84375 1186 731.803710938 1211 c 128,-1,31
 732.762695312 1236 732.762695312 1236 714.831054688 1268 c 1,32,33
 686.69140625 1305 686.69140625 1305 652.250976562 1318 c 128,-1,34
 617.809570312 1331 617.809570312 1331 573.809570312 1331 c 0,35,36
 508.809570312 1331 508.809570312 1331 462.26171875 1286.5 c 128,-1,37
 415.713867188 1242 415.713867188 1242 402.567382812 1159 c 0,38,39
 393.380859375 1101 393.380859375 1101 402.095703125 1055 c 128,-1,40
 410.809570312 1009 410.809570312 1009 448.4453125 962.5 c 128,-1,41
 486.080078125 916 486.080078125 916 566.2109375 860 c 0,42,43
 699.48046875 767 699.48046875 767 741.166992188 664 c 128,-1,44
 782.853515625 561 782.853515625 561 760.837890625 422 c 0,45,46
 729.63671875 225 729.63671875 225 610.41796875 100.5 c 128,-1,47
 491.19921875 -24 491.19921875 -24 313.19921875 -24 c 0,0,1
EndSplineSet
EndChar

StartChar: uni1E9E
Encoding: 7838 7838 177
Width: 768
VWidth: 2430
GlyphClass: 1
Flags: HW
LayerCount: 2
Fore
SplineSet
407.19921875 -24 m 0,0,1
 305.19921875 -24 305.19921875 -24 244.384765625 34 c 1,2,-1
 323.63671875 225 l 1,3,4
 354.275390625 182.913085938 354.275390625 182.913085938 399.813476562 182.913085938 c 0,0,0
 401.883789062 182.913085938 401.883789062 182.913085938 403.984375 183 c 0,5,6
 461.984375 183 461.984375 183 506.071289062 253 c 128,-1,7
 550.158203125 323 550.158203125 323 571.698242188 459 c 0,8,9
 591.655273438 585 591.655273438 585 566.642578125 667 c 128,-1,10
 541.629882812 749 541.629882812 749 435.629882812 749 c 2,11,-1
 393.629882812 749 l 1,12,-1
 426.256835938 955 l 1,13,-1
 638.120117188 1213 l 1,14,15
 652.849609375 1306 652.849609375 1306 634.353515625 1366 c 128,-1,16
 615.856445312 1426 615.856445312 1426 549.856445312 1426 c 0,17,18
 488.856445312 1426 488.856445312 1426 439.823242188 1359.5 c 128,-1,19
 390.791015625 1293 390.791015625 1293 367.033203125 1143 c 2,20,-1
 186 0 l 1,21,-1
 -24 0 l 1,22,-1
 151.490234375 1108 l 2,23,24
 183.483398438 1310 183.483398438 1310 248.801757812 1422.5 c 128,-1,25
 314.120117188 1535 314.120117188 1535 400.485351562 1581.5 c 128,-1,26
 486.849609375 1628 486.849609375 1628 578.849609375 1628 c 0,27,28
 733.849609375 1628 733.849609375 1628 798.8984375 1511.5 c 128,-1,29
 863.946289062 1395 863.946289062 1395 829.577148438 1178 c 1,30,-1
 606.98046875 928 l 1,31,32
 729.01171875 884 729.01171875 884 769.317382812 756.5 c 128,-1,33
 809.624023438 629 809.624023438 629 779.689453125 440 c 0,34,35
 742.626953125 206 742.626953125 206 644.413085938 91 c 128,-1,36
 546.19921875 -24 546.19921875 -24 407.19921875 -24 c 0,0,1
EndSplineSet
EndChar

StartChar: T
Encoding: 84 84 179
Width: 768
VWidth: 2430
GlyphClass: 2
Flags: HW
AnchorPoint: "Anchor-4" 425.056 758 basechar 0
AnchorPoint: "Anchor-2" 315 0 basechar 0
AnchorPoint: "Anchor-0" 554.794 1514 basechar 0
LayerCount: 2
Fore
SplineSet
205 0 m 1,0,-1
 412.166992188 1308 l 1,1,-1
 153.166992188 1308 l 1,2,-1
 186.110351562 1516 l 1,3,-1
 922.110351562 1516 l 1,4,-1
 889.166992188 1308 l 1,5,-1
 615.166992188 1308 l 1,6,-1
 408 0 l 1,7,-1
 205 0 l 1,0,-1
EndSplineSet
EndChar

StartChar: Tbar
Encoding: 358 358 180
Width: 768
VWidth: 2430
GlyphClass: 2
Flags: HW
AnchorPoint: "Anchor-4" 425.056 758 basechar 0
AnchorPoint: "Anchor-2" 315 0 basechar 0
AnchorPoint: "Anchor-0" 554.794 1514 basechar 0
LayerCount: 2
Fore
SplineSet
205 0 m 1,0,-1
 311.909179688 675 l 1,1,-1
 133.909179688 675 l 1,2,-1
 163.2109375 860 l 1,3,-1
 341.2109375 860 l 1,4,-1
 412.166992188 1308 l 1,5,-1
 153.166992188 1308 l 1,6,-1
 186.110351562 1516 l 1,7,-1
 922.110351562 1516 l 1,8,-1
 889.166992188 1308 l 1,9,-1
 615.166992188 1308 l 1,10,-1
 544.2109375 860 l 1,11,-1
 720.2109375 860 l 1,12,-1
 690.909179688 675 l 1,13,-1
 514.909179688 675 l 1,14,-1
 408 0 l 1,15,-1
 205 0 l 1,0,-1
EndSplineSet
EndChar

StartChar: U
Encoding: 85 85 186
Width: 768
VWidth: 2430
GlyphClass: 2
Flags: HW
AnchorPoint: "Anchor-3" 403.801 24 basechar 0
AnchorPoint: "Anchor-2" 331 0 basechar 0
AnchorPoint: "Anchor-1" 922.794 1514 basechar 0
AnchorPoint: "Anchor-0" 570.794 1514 basechar 0
LayerCount: 2
Fore
SplineSet
328.248046875 -30 m 0,0,1
 133.248046875 -30 133.248046875 -30 70.9716796875 104 c 128,-1,2
 8.6953125 238 8.6953125 238 49.55859375 496 c 2,3,-1
 210.793945312 1514 l 1,4,-1
 446.793945312 1514 l 1,5,-1
 443.78515625 1495 l 1,6,7
 429.567382812 1481 429.567382812 1481 423.295898438 1463.5 c 128,-1,8
 417.0234375 1446 417.0234375 1446 410.530273438 1405 c 2,9,-1
 266.2421875 494 l 2,10,11
 240.900390625 334 240.900390625 334 258.571289062 253 c 0,12,13
 275.81640625 173.952148438 275.81640625 173.952148438 356.534179688 173.952148438 c 0,14,15
 358.52734375 173.952148438 358.52734375 173.952148438 360.55859375 174 c 0,16,17
 445.55859375 174 445.55859375 174 490.600585938 259.5 c 128,-1,18
 535.642578125 345 535.642578125 345 560.350585938 501 c 2,19,-1
 720.793945312 1514 l 1,20,-1
 935.793945312 1514 l 1,21,-1
 775.666992188 503 l 2,22,23
 730.52734375 218 730.52734375 218 618.546875 95 c 128,-1,24
 506.565429688 -28 506.565429688 -28 328.248046875 -30 c 0,0,1
EndSplineSet
EndChar

StartChar: V
Encoding: 86 86 209
Width: 768
VWidth: 2430
GlyphClass: 2
Flags: HW
AnchorPoint: "Anchor-2" 301 0 basechar 0
AnchorPoint: "Anchor-0" 540.794 1514 basechar 0
LayerCount: 2
Fore
SplineSet
232.891601562 -7 m 1,0,-1
 176.110351562 1516 l 1,1,-1
 371.110351562 1516 l 1,2,-1
 391.2421875 494 l 1,3,-1
 720.793945312 1514 l 1,4,-1
 911.793945312 1514 l 1,5,-1
 378.891601562 -7 l 1,6,-1
 232.891601562 -7 l 1,0,-1
EndSplineSet
EndChar

StartChar: W
Encoding: 87 87 210
Width: 768
VWidth: 2430
GlyphClass: 2
Flags: HW
AnchorPoint: "Anchor-2" 280 0 basechar 0
AnchorPoint: "Anchor-0" 529.794 1514 basechar 0
LayerCount: 2
Fore
SplineSet
44 0 m 1,0,-1
 152.793945312 1514 l 1,1,-1
 316.793945312 1514 l 1,2,-1
 234.624023438 629 l 1,3,-1
 459.34375 1347 l 1,4,-1
 553.34375 1347 l 1,5,-1
 549.624023438 629 l 1,6,-1
 735.793945312 1514 l 1,7,-1
 888.793945312 1514 l 1,8,-1
 520 0 l 1,9,-1
 409 0 l 1,10,-1
 418.884765625 839 l 1,11,-1
 159 0 l 1,12,-1
 44 0 l 1,0,-1
EndSplineSet
EndChar

StartChar: X
Encoding: 88 88 215
Width: 768
VWidth: 2430
GlyphClass: 2
Flags: HW
AnchorPoint: "Anchor-2" 319 0 basechar 0
AnchorPoint: "Anchor-0" 558.794 1514 basechar 0
LayerCount: 2
Fore
SplineSet
-40 0 m 1,0,-1
 329.272460938 772 l 1,1,-1
 205.110351562 1516 l 1,2,-1
 404.110351562 1516 l 1,3,-1
 480.551757812 1020 l 1,4,-1
 716.110351562 1516 l 1,5,-1
 903.110351562 1516 l 1,6,-1
 557.748046875 775 l 1,7,-1
 696 0 l 1,8,-1
 494 0 l 1,9,-1
 404.360351562 520 l 1,10,-1
 155 0 l 1,11,-1
 -40 0 l 1,0,-1
EndSplineSet
EndChar

StartChar: Y
Encoding: 89 89 216
Width: 768
VWidth: 2430
GlyphClass: 2
Flags: HW
AnchorPoint: "Anchor-2" 319 0 basechar 0
AnchorPoint: "Anchor-0" 541.794 1514 basechar 0
LayerCount: 2
Fore
SplineSet
217 0 m 1,0,-1
 306.645507812 566 l 1,1,-1
 177.793945312 1514 l 1,2,-1
 376.793945312 1514 l 1,3,-1
 457.427734375 874 l 1,4,-1
 721.793945312 1514 l 1,5,-1
 913.793945312 1514 l 1,6,-1
 503.645507812 566 l 1,7,-1
 414 0 l 1,8,-1
 217 0 l 1,0,-1
EndSplineSet
EndChar

StartChar: Z
Encoding: 90 90 226
Width: 768
VWidth: 2430
GlyphClass: 2
Flags: HW
AnchorPoint: "Anchor-2" 361 0 basechar 0
AnchorPoint: "Anchor-0" 586.794 1514 basechar 0
LayerCount: 2
Fore
SplineSet
-5.4599609375 136 m 1,0,-1
 646.166992188 1308 l 1,1,-1
 200.166992188 1308 l 1,2,-1
 232.793945312 1514 l 1,3,-1
 927.793945312 1514 l 1,4,-1
 906.25390625 1378 l 1,5,-1
 259.626953125 206 l 1,6,-1
 633.626953125 206 l 2,7,8
 674.626953125 206 674.626953125 206 691.918945312 211 c 128,-1,9
 709.2109375 216 709.2109375 216 726.586914062 231 c 1,10,-1
 745.586914062 231 l 1,11,-1
 709 0 l 1,12,-1
 -27 0 l 1,13,-1
 -5.4599609375 136 l 1,0,-1
EndSplineSet
EndChar

StartChar: a
Encoding: 97 97 232
Width: 768
VWidth: 2430
GlyphClass: 2
Flags: HW
AnchorPoint: "Anchor-3" 569 0 basechar 0
AnchorPoint: "Anchor-2" 307 0 basechar 0
AnchorPoint: "Anchor-0" 506.173 1106 basechar 0
LayerCount: 2
Fore
SplineSet
225.424804688 331 m 0,0,1
 213.546875 256 213.546875 256 238.498046875 211.5 c 128,-1,2
 263.450195312 167 263.450195312 167 314.450195312 167 c 0,3,4
 402.450195312 167 402.450195312 167 458.595703125 250 c 128,-1,5
 514.7421875 333 514.7421875 333 548.884765625 517 c 1,6,7
 532.201171875 519 532.201171875 519 514.280273438 519.5 c 128,-1,8
 496.360351562 520 496.360351562 520 479.360351562 520 c 0,9,10
 363.360351562 520 363.360351562 520 302.07421875 474 c 128,-1,11
 240.788085938 428 240.788085938 428 225.424804688 331 c 0,0,1
237.723632812 -27 m 0,12,13
 105.723632812 -27 105.723632812 -27 49.0322265625 66.5 c 128,-1,14
 -7.658203125 160 -7.658203125 160 14.673828125 301 c 0,15,16
 46.984375 505 46.984375 505 177.71875 607.5 c 128,-1,17
 308.453125 710 308.453125 710 507.453125 710 c 0,18,19
 537.453125 710 537.453125 710 576.661132812 705 c 1,20,21
 595.002929688 865 595.002929688 865 563.421875 915 c 128,-1,22
 531.840820312 965 531.840820312 965 457.840820312 965 c 0,23,24
 401.840820312 965 401.840820312 965 354.356445312 943 c 128,-1,25
 306.872070312 921 306.872070312 921 252.002929688 865 c 1,26,-1
 165.809570312 1009 l 1,27,28
 237.580078125 1077 237.580078125 1077 322.415039062 1117 c 128,-1,29
 407.250976562 1157 407.250976562 1157 509.250976562 1157 c 0,30,31
 618.250976562 1157 618.250976562 1157 689.782226562 1113 c 128,-1,32
 761.3125 1069 761.3125 1069 784.624023438 951 c 128,-1,33
 807.934570312 833 807.934570312 833 773.40625 615 c 2,34,-1
 676 0 l 1,35,-1
 465 0 l 1,36,-1
 483.373046875 116 l 1,37,38
 428.2265625 33 428.2265625 33 367.975585938 3 c 128,-1,39
 307.723632812 -27 307.723632812 -27 237.723632812 -27 c 0,12,13
EndSplineSet
Substitution2: "Single Substitution lookup 29 subtable" ordfeminine
Substitution2: "'aalt' Access All Alternates in Latin lookup 0 subtable" ordfeminine
EndChar

StartChar: ae
Encoding: 230 230 257
Width: 768
VWidth: 2430
GlyphClass: 1
Flags: HW
LayerCount: 2
Fore
SplineSet
144.232421875 153 m 0,0,1
 193.232421875 153 193.232421875 153 220.12109375 247 c 128,-1,2
 247.008789062 341 247.008789062 341 274.568359375 515 c 1,3,4
 196.776367188 510 196.776367188 510 158.64453125 455.5 c 128,-1,5
 120.4921875 400.971679688 120.4921875 400.971679688 104.403320312 299.389648438 c 0,6,7
 81.2177734375 153 81.2177734375 153 144.232421875 153 c 0,0,1
452.185546875 702 m 1,8,-1
 600.453125 710 l 1,9,10
 621.359375 842 621.359375 842 613.100585938 903.5 c 128,-1,11
 604.840820312 965 604.840820312 965 570.840820312 965 c 0,12,13
 493.682617188 964 493.682617188 964 452.185546875 702 c 1,8,-1
103.723632812 -27 m 0,14,15
 7.7236328125 -27 7.7236328125 -27 -33.86328125 64 c 128,-1,16
 -75.4501953125 155 -75.4501953125 155 -51.8515625 304 c 0,17,18
 -22.2333984375 491 -22.2333984375 491 62.837890625 583 c 128,-1,19
 147.909179688 675 147.909179688 675 300.760742188 693 c 1,20,21
 323.092773438 834 323.092773438 834 310.966796875 899.5 c 128,-1,22
 298.840820312 965 298.840820312 965 253.840820312 965 c 0,23,24
 193.840820312 965 193.840820312 965 137.6953125 882 c 1,25,-1
 90.02734375 1023 l 1,26,27
 178.19140625 1144 178.19140625 1144 297.350585938 1145 c 0,28,29
 348.350585938 1145 348.350585938 1145 387.172851562 1106 c 128,-1,30
 425.99609375 1067 425.99609375 1067 437.443359375 1013 c 1,31,32
 467.3125 1069 467.3125 1069 515.83203125 1107 c 128,-1,33
 564.350585938 1145 564.350585938 1145 607.350585938 1145 c 0,34,35
 713.350585938 1145 713.350585938 1145 742.15625 1017.5 c 128,-1,36
 770.961914062 890 770.961914062 890 732.474609375 647 c 2,37,-1
 716.63671875 547 l 1,38,-1
 425.418945312 533 l 1,39,-1
 408.629882812 427 l 2,40,41
 387.723632812 295 387.723632812 295 406.58203125 221.5 c 128,-1,42
 425.440429688 148 425.440429688 148 484.440429688 148 c 0,43,44
 548.440429688 148 548.440429688 148 600.63671875 225 c 1,45,-1
 650.254882812 90 l 1,46,47
 558.881835938 -26 558.881835938 -26 447.723632812 -27 c 0,48,49
 398.723632812 -27 398.723632812 -27 352.450195312 6 c 128,-1,50
 306.176757812 39 306.176757812 39 286.155273438 102 c 1,51,52
 250.494140625 41 250.494140625 41 202.608398438 7 c 128,-1,53
 154.723632812 -27 154.723632812 -27 103.723632812 -27 c 0,14,15
EndSplineSet
EndChar

StartChar: b
Encoding: 98 98 259
Width: 768
VWidth: 2430
GlyphClass: 2
Flags: HW
AnchorPoint: "Anchor-2" 518 0 basechar 0
AnchorPoint: "Anchor-0" 694.599 1115 basechar 0
LayerCount: 2
Fore
SplineSet
372.92578125 170 m 0,0,1
 421.92578125 170 421.92578125 170 461.09765625 199.5 c 128,-1,2
 500.270507812 229 500.270507812 229 534.336914062 311.5 c 128,-1,3
 568.403320312 394 568.403320312 394 594.061523438 556 c 0,4,5
 630.33203125 785 630.33203125 785 604.0859375 875 c 128,-1,6
 577.840820312 965 577.840820312 965 500.840820312 965 c 0,7,8
 432.840820312 965 432.840820312 965 372.240234375 866.5 c 128,-1,9
 311.639648438 768 311.639648438 768 278.537109375 559 c 0,10,11
 245.91015625 353 245.91015625 353 270.41796875 261.5 c 128,-1,12
 294.92578125 170 294.92578125 170 372.92578125 170 c 0,0,1
382.723632812 -27 m 0,13,14
 317.723632812 -27 317.723632812 -27 266.2421875 11 c 128,-1,15
 214.760742188 49 214.760742188 49 195.431640625 129 c 1,16,-1
 151 0 l 1,17,-1
 -22 0 l 1,18,-1
 234.741210938 1621 l 1,19,-1
 465.741210938 1621 l 1,20,-1
 462.731445312 1602 l 1,21,22
 448.514648438 1588 448.514648438 1588 442.243164062 1570.5 c 128,-1,23
 435.970703125 1553 435.970703125 1553 429.477539062 1512 c 2,24,-1
 347.1171875 992 l 1,25,26
 394.580078125 1077 394.580078125 1077 462.07421875 1118 c 0,27,28
 526.428710938 1157.09277344 526.428710938 1157.09277344 583.681640625 1157.09277344 c 0,29,30
 586.474609375 1157.09277344 586.474609375 1157.09277344 589.250976562 1157 c 0,31,32
 684.250976562 1157 684.250976562 1157 744.435546875 1104.5 c 128,-1,33
 804.620117188 1052 804.620117188 1052 822.426757812 924.5 c 128,-1,34
 840.232421875 797 840.232421875 797 804.75390625 573 c 0,35,36
 767.375976562 337 767.375976562 337 701.865234375 207.5 c 128,-1,37
 636.353515625 78 636.353515625 78 554.5390625 25.5 c 128,-1,38
 472.723632812 -27 472.723632812 -27 382.723632812 -27 c 0,13,14
EndSplineSet
EndChar

StartChar: c
Encoding: 99 99 261
Width: 768
VWidth: 2430
GlyphClass: 2
Flags: HW
AnchorPoint: "Anchor-2" 382 0 basechar 0
AnchorPoint: "Anchor-0" 561.291 1132 basechar 0
LayerCount: 2
Fore
SplineSet
390.723632812 -27 m 0,0,1
 200.723632812 -27 200.723632812 -27 112.1640625 121 c 128,-1,2
 23.60546875 269 23.60546875 269 69.853515625 561 c 0,3,4
 101.372070312 760 101.372070312 760 176.358398438 892.5 c 128,-1,5
 251.34375 1025 251.34375 1025 353.797851562 1091 c 128,-1,6
 456.250976562 1157 456.250976562 1157 567.250976562 1157 c 0,7,8
 676.250976562 1157 676.250976562 1157 748.227539062 1109.5 c 128,-1,9
 820.204101562 1062 820.204101562 1062 853.741210938 977 c 1,10,-1
 732.924804688 814 l 1,11,-1
 719.916015625 795 l 1,12,-1
 703.024414062 802 l 1,13,14
 701.033203125 821 701.033203125 821 702.518554688 843 c 128,-1,15
 704.002929688 865 704.002929688 865 684.75390625 895 c 1,16,17
 637.1484375 948 637.1484375 948 552.1484375 948 c 0,18,19
 499.1484375 948 499.1484375 948 446.025390625 912.5 c 128,-1,20
 392.903320312 877 392.903320312 877 348.940429688 792 c 128,-1,21
 304.977539062 707 304.977539062 707 281.853515625 561 c 0,22,23
 248.750976562 352 248.750976562 352 296.497070312 262 c 128,-1,24
 344.2421875 172 344.2421875 172 431.2421875 172 c 0,25,26
 543.2421875 172 543.2421875 172 637.456054688 287 c 1,27,-1
 700.739257812 112 l 1,28,29
 636.65234375 42 636.65234375 42 555.1875 7.5 c 128,-1,30
 473.723632812 -27 473.723632812 -27 390.723632812 -27 c 0,0,1
EndSplineSet
EndChar

StartChar: d
Encoding: 100 100 268
Width: 768
VWidth: 2430
GlyphClass: 2
Flags: HW
AnchorPoint: "Anchor-4" 730.869 1344 basechar 0
AnchorPoint: "Anchor-2" 331 0 basechar 0
AnchorPoint: "Anchor-1" 881.599 1115 basechar 0
AnchorPoint: "Anchor-0" 507.599 1115 basechar 0
LayerCount: 2
Fore
SplineSet
342.55859375 174 m 0,0,1
 492.55859375 174 492.55859375 174 554.329101562 564 c 0,2,3
 587.431640625 773 587.431640625 773 565.135742188 869 c 128,-1,4
 542.840820312 965 542.840820312 965 469.840820312 965 c 0,5,6
 397.840820312 965 397.840820312 965 345.219726562 879 c 128,-1,7
 292.598632812 793 292.598632812 793 259.813476562 586 c 0,8,9
 224.176757812 361 224.176757812 361 253.368164062 267.5 c 128,-1,10
 282.55859375 174 282.55859375 174 342.55859375 174 c 0,0,1
267.19921875 -24 m 0,11,12
 182.19921875 -24 182.19921875 -24 121.013671875 28.5 c 128,-1,13
 59.8291015625 81 59.8291015625 81 37.9189453125 211 c 128,-1,14
 16.0087890625 341 16.0087890625 341 51.9619140625 568 c 0,15,16
 86.96484375 789 86.96484375 789 147.4765625 918.5 c 128,-1,17
 207.987304688 1048 207.987304688 1048 286.27734375 1103.5 c 128,-1,18
 364.567382812 1159 364.567382812 1159 459.567382812 1159 c 0,19,20
 529.567382812 1159 529.567382812 1159 573.786132812 1122.5 c 128,-1,21
 618.005859375 1086 618.005859375 1086 626.334960938 1006 c 1,22,-1
 723.741210938 1621 l 1,23,-1
 954.741210938 1621 l 1,24,-1
 951.731445312 1602 l 1,25,26
 935.514648438 1588 935.514648438 1588 928.243164062 1570.5 c 128,-1,27
 920.970703125 1553 920.970703125 1553 914.477539062 1512 c 2,28,-1
 700.81640625 163 l 2,29,30
 694.1640625 121 694.1640625 121 690.408203125 81.5 c 128,-1,31
 686.65234375 42 686.65234375 42 693 0 c 1,32,-1
 490 0 l 1,33,34
 483.384765625 34 483.384765625 34 482.161132812 61 c 128,-1,35
 480.9375 88 480.9375 88 487.431640625 129 c 1,36,37
 444.028320312 57 444.028320312 57 384.61328125 16.5 c 128,-1,38
 325.19921875 -24 325.19921875 -24 267.19921875 -24 c 0,11,12
EndSplineSet
EndChar

StartChar: eth
Encoding: 240 240 269
Width: 768
VWidth: 2430
GlyphClass: 1
Flags: HW
LayerCount: 2
Fore
SplineSet
368.450195312 167 m 0,0,1
 433.450195312 167 433.450195312 167 490.4921875 252.5 c 128,-1,2
 547.534179688 338 547.534179688 338 582.853515625 561 c 0,3,4
 613.263671875 753 613.263671875 753 581.309570312 848 c 128,-1,5
 549.356445312 943 549.356445312 943 486.356445312 943 c 0,6,7
 419.040039062 941 419.040039062 941 355.943359375 852 c 128,-1,8
 292.84765625 763 292.84765625 763 260.853515625 561 c 0,9,10
 229.334960938 362 229.334960938 362 262.892578125 264.5 c 128,-1,11
 296.450195312 167 296.450195312 167 368.450195312 167 c 0,0,1
334.931640625 -32 m 0,12,13
 230.931640625 -32 230.931640625 -32 154.5390625 25.5 c 128,-1,14
 78.1455078125 83 78.1455078125 83 47.4443359375 208 c 128,-1,15
 16.7421875 333 16.7421875 333 49.52734375 540 c 0,16,17
 97.9931640625 846 97.9931640625 846 218.038085938 991.5 c 128,-1,18
 338.083007812 1137 338.083007812 1137 473.083007812 1137 c 0,19,20
 584.083007812 1137 584.083007812 1137 627.887695312 1060 c 1,21,22
 619.182617188 1125 619.182617188 1125 599.501953125 1187 c 128,-1,23
 579.822265625 1249 579.822265625 1249 552.583007812 1298 c 1,24,-1
 372.446289062 1234 l 1,25,-1
 333.6796875 1387 l 1,26,-1
 480.073242188 1440 l 1,27,28
 450.04296875 1484 450.04296875 1484 422.561523438 1522 c 128,-1,29
 395.080078125 1560 395.080078125 1560 351.672851562 1589 c 1,30,-1
 562.75 1640 l 1,31,32
 594.682617188 1608 594.682617188 1608 620.16796875 1579.5 c 128,-1,33
 645.654296875 1551 645.654296875 1551 671.685546875 1507 c 1,34,-1
 853.98046875 1572 l 1,35,-1
 887.430664062 1417 l 1,36,-1
 749.877929688 1363 l 1,37,38
 807.862304688 1224 807.862304688 1224 822.828125 1047 c 128,-1,39
 837.794921875 870 837.794921875 870 797.40625 615 c 0,40,41
 741.1796875 260 741.1796875 260 623.555664062 114 c 128,-1,42
 505.931640625 -32 505.931640625 -32 334.931640625 -32 c 0,12,13
EndSplineSet
EndChar

StartChar: dcaron
Encoding: 271 271 270
Width: 768
VWidth: 2430
GlyphClass: 1
Flags: HW
LayerCount: 2
Fore
SplineSet
224.2421875 172 m 0,0,1
 332.2421875 172 332.2421875 172 394.853515625 561 c 0,2,3
 429.064453125 777 429.064453125 777 418.26953125 873 c 128,-1,4
 407.474609375 969 407.474609375 969 360.474609375 969 c 0,5,6
 330.474609375 969 330.474609375 969 302.827148438 936.5 c 128,-1,7
 275.1796875 904 275.1796875 904 249.61328125 821.5 c 128,-1,8
 224.045898438 739 224.045898438 739 200.60546875 591 c 0,9,10
 174.788085938 428 174.788085938 428 172.875976562 337 c 128,-1,11
 170.962890625 246 170.962890625 246 185.102539062 209 c 128,-1,12
 199.2421875 172 199.2421875 172 224.2421875 172 c 0,0,1
156.19921875 -24 m 0,13,14
 93.19921875 -24 93.19921875 -24 50.484375 22 c 128,-1,15
 7.7705078125 68 7.7705078125 68 -0.8779296875 196.5 c 128,-1,16
 -9.525390625 325 -9.525390625 325 28.6455078125 566 c 0,17,18
 65.7080078125 800 65.7080078125 800 112.059570312 928.5 c 128,-1,19
 158.412109375 1057 158.412109375 1057 216.990234375 1108 c 128,-1,20
 275.567382812 1159 275.567382812 1159 345.567382812 1159 c 0,21,22
 405.567382812 1159 405.567382812 1159 434.786132812 1122.5 c 128,-1,23
 464.005859375 1086 464.005859375 1086 464.54296875 1001 c 1,24,-1
 562.265625 1618 l 1,25,-1
 753.265625 1618 l 1,26,-1
 750.256835938 1599 l 1,27,28
 737.0390625 1585 737.0390625 1585 729.346679688 1568 c 128,-1,29
 721.654296875 1551 721.654296875 1551 717.001953125 1509 c 2,30,-1
 502.92578125 170 l 2,31,32
 495.956054688 126 495.956054688 126 491.962890625 85 c 128,-1,33
 487.96875 44 487.96875 44 490 0 c 1,34,-1
 323 0 l 1,35,36
 316.751953125 30 316.751953125 30 316.107421875 57.5 c 128,-1,37
 315.462890625 85 315.462890625 85 322.431640625 129 c 1,38,39
 291.028320312 57 291.028320312 57 242.61328125 16.5 c 128,-1,40
 194.19921875 -24 194.19921875 -24 156.19921875 -24 c 0,13,14
846.057617188 1623 m 0,41,42
 884.057617188 1623 884.057617188 1623 902.514648438 1588 c 128,-1,43
 920.970703125 1553 920.970703125 1553 910.517578125 1487 c 0,44,45
 884.701171875 1324 884.701171875 1324 747.698242188 1103 c 1,46,-1
 667.04296875 1162 l 1,47,48
 705.912109375 1218 705.912109375 1218 731.911132812 1268.5 c 128,-1,49
 757.909179688 1319 757.909179688 1319 764.877929688 1363 c 0,50,51
 769.154296875 1390 769.154296875 1390 760.743164062 1409.5 c 128,-1,52
 752.331054688 1429 752.331054688 1429 746.1328125 1453 c 128,-1,53
 740.966796875 1473 740.966796875 1473 746.333984375 1506.88867188 c 0,0,0
 747.408203125 1513.66699219 747.408203125 1513.66699219 748.90234375 1521 c 0,54,55
 755.872070312 1565 755.872070312 1565 783.96484375 1594 c 128,-1,56
 812.057617188 1623 812.057617188 1623 846.057617188 1623 c 0,41,42
EndSplineSet
EndChar

StartChar: e
Encoding: 101 101 274
Width: 768
VWidth: 2430
GlyphClass: 2
Flags: HW
AnchorPoint: "Anchor-3" 449.801 24 basechar 0
AnchorPoint: "Anchor-2" 379 0 basechar 0
AnchorPoint: "Anchor-0" 520.599 1115 basechar 0
LayerCount: 2
Fore
SplineSet
288.96875 688 m 1,0,-1
 582.96875 688 l 1,1,2
 605.30078125 829 605.30078125 829 584.174804688 894.5 c 128,-1,3
 563.048828125 960 563.048828125 960 488.048828125 960 c 0,4,5
 425.048828125 960 425.048828125 960 374.571289062 897 c 128,-1,6
 324.092773438 834 324.092773438 834 288.96875 688 c 1,0,-1
361.19921875 -24 m 0,7,8
 181.19921875 -24 181.19921875 -24 95.134765625 114.5 c 128,-1,9
 9.0712890625 253 9.0712890625 253 56.7451171875 554 c 0,10,11
 106.794921875 870 106.794921875 870 231.522460938 1013.5 c 128,-1,12
 356.250976562 1157 356.250976562 1157 527.250976562 1157 c 0,13,14
 682.250976562 1157 682.250976562 1157 752.501953125 1026 c 128,-1,15
 822.75390625 895 822.75390625 895 774.288085938 589 c 0,16,17
 770.487304688 565 770.487304688 565 766.685546875 541 c 128,-1,18
 762.884765625 517 762.884765625 517 756.55859375 496 c 1,19,-1
 256.55859375 496 l 1,20,21
 232.57421875 313 232.57421875 313 276.56640625 243.5 c 128,-1,22
 320.55859375 174 320.55859375 174 402.2421875 172 c 0,23,24
 458.2421875 172 458.2421875 172 505.939453125 198.5 c 128,-1,25
 553.63671875 225 553.63671875 225 596.397460938 274 c 1,26,-1
 681.015625 139 l 1,27,28
 618.13671875 64 618.13671875 64 536.16796875 20 c 128,-1,29
 454.19921875 -24 454.19921875 -24 361.19921875 -24 c 0,7,8
EndSplineSet
EndChar

StartChar: uni029A
Encoding: 666 666 296
Width: 768
VWidth: 2430
GlyphClass: 1
Flags: HW
LayerCount: 2
Fore
SplineSet
332.92578125 170 m 0,0,1
 426.92578125 170 426.92578125 170 484.784179688 257.5 c 128,-1,2
 542.642578125 345 542.642578125 345 576.853515625 561 c 0,3,4
 609.956054688 770 609.956054688 770 585.84375 864 c 128,-1,5
 561.732421875 958 561.732421875 958 472.732421875 958 c 0,6,7
 412.732421875 958 412.732421875 958 377.763671875 914 c 128,-1,8
 342.794921875 870 342.794921875 870 334.2421875 816 c 0,9,10
 324.580078125 755 324.580078125 755 343.116210938 720.5 c 128,-1,11
 361.651367188 686 361.651367188 686 414.651367188 686 c 0,12,13
 430.651367188 686 430.651367188 686 443.651367188 686 c 128,-1,14
 456.651367188 686 456.651367188 686 472.96875 688 c 1,15,-1
 441.450195312 489 l 1,16,17
 414.766601562 491 414.766601562 491 404.663085938 493.5 c 128,-1,18
 394.55859375 496 394.55859375 496 373.55859375 496 c 0,19,20
 245.55859375 496 245.55859375 496 219.534179688 338 c 0,21,22
 208.129882812 266 208.129882812 266 237.02734375 218 c 128,-1,23
 265.92578125 170 265.92578125 170 332.92578125 170 c 0,0,1
294.248046875 -30 m 0,24,25
 130.565429688 -28 130.565429688 -28 57.849609375 68.5 c 128,-1,26
 -14.8662109375 165 -14.8662109375 165 11.7421875 333 c 0,27,28
 28.2138671875 437 28.2138671875 437 80.3798828125 507.5 c 128,-1,29
 132.545898438 578 132.545898438 578 202.297851562 608 c 1,30,31
 155.950195312 650 155.950195312 650 138.111328125 711 c 128,-1,32
 120.272460938 772 120.272460938 772 131.993164062 846 c 0,33,34
 153.533203125 982 153.533203125 982 253.100585938 1064.5 c 128,-1,35
 352.666992188 1147 352.666992188 1147 485.666992188 1147 c 0,36,37
 876.666992188 1147 876.666992188 1147 783.853515625 561 c 0,38,39
 735.705078125 257 735.705078125 257 610.4765625 113.5 c 128,-1,40
 485.248046875 -30 485.248046875 -30 294.248046875 -30 c 0,24,25
EndSplineSet
EndChar

StartChar: f
Encoding: 102 102 300
Width: 768
VWidth: 2430
GlyphClass: 1
Flags: HW
LayerCount: 2
Fore
SplineSet
266.08984375 935 m 1,0,-1
 107.08984375 935 l 1,1,-1
 137.974609375 1130 l 1,2,-1
 296.974609375 1130 l 1,3,-1
 308.219726562 1201 l 2,4,5
 332.135742188 1352 332.135742188 1352 392.999023438 1449 c 128,-1,6
 453.862304688 1546 453.862304688 1546 534.068359375 1591.5 c 128,-1,7
 614.275390625 1637 614.275390625 1637 696.275390625 1637 c 0,8,9
 768.275390625 1637 768.275390625 1637 834.731445312 1602 c 128,-1,10
 901.188476562 1567 901.188476562 1567 932.1015625 1497 c 1,11,-1
 838.17578125 1327 l 1,12,-1
 825.69140625 1305 l 1,13,-1
 809.80078125 1312 l 1,14,15
 805.809570312 1331 805.809570312 1331 803.635742188 1352 c 128,-1,16
 801.461914062 1373 801.461914062 1373 778.212890625 1403 c 1,17,18
 743.926757812 1438.10253906 743.926757812 1438.10253906 688.779296875 1438.10253906 c 0,0,0
 685.798828125 1438.10253906 685.798828125 1438.10253906 682.756835938 1438 c 0,19,20
 622.756835938 1438 622.756835938 1438 576.728515625 1381 c 128,-1,21
 530.701171875 1324 530.701171875 1324 511.536132812 1203 c 2,22,-1
 499.974609375 1130 l 1,23,-1
 718.974609375 1130 l 1,24,-1
 688.08984375 935 l 1,25,-1
 469.08984375 935 l 1,26,-1
 321 0 l 1,27,-1
 118 0 l 1,28,-1
 266.08984375 935 l 1,0,-1
EndSplineSet
EndChar

StartChar: g
Encoding: 103 103 301
Width: 768
VWidth: 2286
GlyphClass: 2
Flags: HW
AnchorPoint: "Anchor-2" 247.997 -221 basechar 0
AnchorPoint: "Anchor-0" 435.549 1121 basechar 0
LayerCount: 2
Fore
SplineSet
112.810546875 43 m 0,0,1
 102.990234375 -19 102.990234375 -19 147.081054688 -50 c 128,-1,2
 191.170898438 -81 191.170898438 -81 268.170898438 -81 c 0,3,4
 346.170898438 -81 346.170898438 -81 393.189453125 -43 c 128,-1,5
 440.208007812 -5 440.208007812 -5 448.760742188 49 c 0,6,7
 458.581054688 111 458.581054688 111 432.381835938 135 c 128,-1,8
 406.18359375 159 406.18359375 159 334.18359375 159 c 0,9,10
 293.18359375 159 293.18359375 159 254.737304688 162.5 c 128,-1,11
 216.291992188 166 216.291992188 166 184.55859375 174 c 1,12,13
 156.124023438 146 156.124023438 146 137.713867188 115 c 128,-1,14
 119.3046875 84 119.3046875 84 112.810546875 43 c 0,0,1
356.990234375 625 m 0,15,16
 455.990234375 625 455.990234375 625 485.608398438 812 c 0,17,18
 514.592773438 995 514.592773438 995 415.750976562 996 c 0,19,20
 318.750976562 996 318.750976562 996 289.608398438 812 c 0,21,22
 259.990234375 625 259.990234375 625 356.990234375 625 c 0,15,16
331.965820312 467 m 0,23,24
 286.965820312 467 286.965820312 467 248.708007812 478 c 1,25,26
 233.33203125 463 233.33203125 463 222.297851562 447 c 128,-1,27
 211.263671875 431 211.263671875 431 208.413085938 413 c 0,28,29
 202.235351562 374 202.235351562 374 246.884765625 356 c 128,-1,30
 291.534179688 338 291.534179688 338 412.534179688 338 c 0,31,32
 546.534179688 338 546.534179688 338 590.208984375 266.5 c 128,-1,33
 633.884765625 195 633.884765625 195 614.245117188 71 c 0,34,35
 600.624023438 -15 600.624023438 -15 553.799804688 -86.5 c 128,-1,36
 506.975585938 -158 506.975585938 -158 426.505859375 -202 c 128,-1,37
 346.037109375 -246 346.037109375 -246 233.037109375 -246 c 0,38,39
 75.037109375 -246 75.037109375 -246 1.9912109375 -180 c 128,-1,40
 -71.0556640625 -114 -71.0556640625 -114 -50.4658203125 16 c 0,41,42
 -39.37890625 86 -39.37890625 86 -2.9052734375 139.5 c 128,-1,43
 33.568359375 193 33.568359375 193 79.794921875 226 c 1,44,45
 57.595703125 250 57.595703125 250 48.9814453125 284 c 128,-1,46
 40.3662109375 318 40.3662109375 318 47.96875 366 c 0,47,48
 57.7294921875 415 57.7294921875 415 87.77734375 459.5 c 128,-1,49
 117.826171875 504 117.826171875 504 158.002929688 543 c 1,50,51
 88.416015625 634 88.416015625 634 116.608398438 812 c 0,52,53
 142.900390625 978 142.900390625 978 233.129882812 1071 c 128,-1,54
 323.359375 1164 323.359375 1164 442.359375 1164 c 0,55,56
 559.359375 1164 559.359375 1164 616.055664062 1080 c 1,57,58
 661.548828125 1121 661.548828125 1121 707.637695312 1140.5 c 0,59,60
 745.880859375 1156.68066406 745.880859375 1156.68066406 789.135742188 1156.68066406 c 0,61,62
 798.008789062 1156.68066406 798.008789062 1156.68066406 807.092773438 1156 c 1,63,-1
 795.067382812 998 l 1,64,65
 779.9140625 1000.81640625 779.9140625 1000.81640625 764.970703125 1000.81640625 c 0,66,67
 710.947265625 1000.81640625 710.947265625 1000.81640625 659.682617188 964 c 1,68,69
 668.229492188 898 668.229492188 898 655.608398438 812 c 0,70,71
 628.208007812 639 628.208007812 639 537.586914062 553 c 128,-1,72
 446.965820312 467 446.965820312 467 331.965820312 467 c 0,23,24
EndSplineSet
EndChar

StartChar: h
Encoding: 104 104 308
Width: 768
VWidth: 2430
GlyphClass: 2
Flags: HW
AnchorPoint: "Anchor-4" 342.602 1336 basechar 0
AnchorPoint: "Anchor-2" 331 0 basechar 0
AnchorPoint: "Anchor-0" 364.741 1621 basechar 0
LayerCount: 2
Fore
SplineSet
252.741210938 1621 m 1,0,-1
 485.741210938 1621 l 1,1,-1
 482.731445312 1602 l 1,2,3
 466.514648438 1588 466.514648438 1588 459.743164062 1570.5 c 128,-1,4
 452.970703125 1553 452.970703125 1553 446.477539062 1512 c 2,5,-1
 360.94921875 972 l 1,6,7
 414.99609375 1067 414.99609375 1067 484.123046875 1112 c 128,-1,8
 553.250976562 1157 553.250976562 1157 627.250976562 1157 c 0,9,10
 743.250976562 1157 743.250976562 1157 785.858398438 1053.5 c 128,-1,11
 828.46484375 950 828.46484375 950 788.077148438 695 c 2,12,-1
 678 0 l 1,13,-1
 467 0 l 1,14,-1
 576.443359375 691 l 2,15,16
 600.359375 842 600.359375 842 585.30859375 898.5 c 128,-1,17
 570.256835938 955 570.256835938 955 521.256835938 955 c 0,18,19
 456.256835938 955 456.256835938 955 394.745117188 876 c 128,-1,20
 333.232421875 797 333.232421875 797 309 644 c 2,21,-1
 207 0 l 1,22,-1
 -4 0 l 1,23,-1
 252.741210938 1621 l 1,0,-1
EndSplineSet
EndChar

StartChar: i
Encoding: 105 105 313
Width: 768
VWidth: 2430
GlyphClass: 2
Flags: HW
AnchorPoint: "Anchor-3" 492 0 basechar 0
AnchorPoint: "Anchor-2" 333 0 basechar 0
AnchorPoint: "Anchor-0" 569.31 1492 basechar 0
LayerCount: 2
Fore
SplineSet
40 0 m 1,0,-1
 71.2021484375 197 l 1,1,-1
 268.202148438 197 l 1,2,-1
 384.772460938 933 l 1,3,-1
 194.772460938 933 l 1,4,-1
 225.974609375 1130 l 1,5,-1
 624.974609375 1130 l 1,6,-1
 477.202148438 197 l 1,7,-1
 656.202148438 197 l 1,8,-1
 625 0 l 1,9,-1
 40 0 l 1,0,-1
544.34375 1347 m 0,10,11
 486.34375 1347 486.34375 1347 452.837890625 1388 c 128,-1,12
 419.331054688 1429 419.331054688 1429 428.04296875 1484 c 0,13,14
 437.228515625 1542 437.228515625 1542 483.880859375 1584 c 128,-1,15
 530.533203125 1626 530.533203125 1626 588.533203125 1626 c 0,16,17
 644.533203125 1626 644.533203125 1626 679.459960938 1584.5 c 128,-1,18
 714.38671875 1543 714.38671875 1543 705.04296875 1484 c 0,19,20
 696.172851562 1428 696.172851562 1428 648.258789062 1387.5 c 128,-1,21
 600.34375 1347 600.34375 1347 544.34375 1347 c 0,10,11
EndSplineSet
Substitution2: "'locl' Localized Forms in Latin lookup 18 subtable" i.loclTRK
Substitution2: "'locl' Localized Forms in Latin lookup 17 subtable" i.loclTRK
Substitution2: "'locl' Localized Forms in Latin lookup 16 subtable" i.loclTRK
Substitution2: "'locl' Localized Forms in Latin lookup 15 subtable" i.loclTRK
Substitution2: "'locl' Localized Forms in Latin lookup 14 subtable" i.loclTRK
Substitution2: "Single Substitution lookup 4 subtable" dotlessi
Substitution2: "Single Substitution lookup 3 subtable" dotlessi
AlternateSubs2: "'aalt' Access All Alternates in Latin lookup 1 subtable" dotlessi i.loclTRK
EndChar

StartChar: dotlessi
Encoding: 305 305 314
Width: 768
VWidth: 2430
GlyphClass: 2
Flags: HW
AnchorPoint: "Anchor-3" 492 0 basechar 0
AnchorPoint: "Anchor-2" 333 0 basechar 0
AnchorPoint: "Anchor-0" 511.499 1127 basechar 0
LayerCount: 2
Fore
SplineSet
40 0 m 1,0,-1
 71.2021484375 197 l 1,1,-1
 268.202148438 197 l 1,2,-1
 384.772460938 933 l 1,3,-1
 194.772460938 933 l 1,4,-1
 225.974609375 1130 l 1,5,-1
 624.974609375 1130 l 1,6,-1
 477.202148438 197 l 1,7,-1
 656.202148438 197 l 1,8,-1
 625 0 l 1,9,-1
 40 0 l 1,0,-1
EndSplineSet
EndChar

StartChar: j
Encoding: 106 106 329
Width: 768
VWidth: 2358
GlyphClass: 2
Flags: HW
AnchorPoint: "Anchor-2" 261.652 -280 basechar 0
AnchorPoint: "Anchor-0" 648.052 1503 basechar 0
LayerCount: 2
Fore
SplineSet
162.037109375 -246 m 0,0,1
 14.037109375 -246 14.037109375 -246 -66.0654296875 -133 c 1,2,-1
 47.0185546875 38 l 1,3,-1
 58.7109375 55 l 1,4,-1
 72.7607421875 49 l 1,5,6
 76.068359375 32 76.068359375 32 78.2177734375 14 c 128,-1,7
 80.3662109375 -4 80.3662109375 -4 98.4072265625 -29 c 1,8,9
 135.497070312 -60 135.497070312 -60 191.497070312 -60 c 0,10,11
 251.497070312 -60 251.497070312 -60 287.262695312 -1.5 c 128,-1,12
 323.028320312 57 323.028320312 57 342.826171875 182 c 2,13,-1
 470.958984375 991 l 1,14,-1
 215.958984375 991 l 1,15,-1
 244.78515625 1173 l 1,16,-1
 694.78515625 1173 l 1,17,-1
 540.202148438 197 l 2,18,19
 513.751953125 30 513.751953125 30 456.467773438 -66.5 c 128,-1,20
 399.18359375 -163 399.18359375 -163 322.610351562 -204.5 c 128,-1,21
 246.037109375 -246 246.037109375 -246 162.037109375 -246 c 0,0,1
624.145507812 1371 m 0,22,23
 571.145507812 1371 571.145507812 1371 540.584960938 1408.5 c 128,-1,24
 510.0234375 1446 510.0234375 1446 518.1015625 1497 c 0,25,26
 526.49609375 1550 526.49609375 1550 569.014648438 1588 c 128,-1,27
 611.533203125 1626 611.533203125 1626 664.533203125 1626 c 0,28,29
 715.533203125 1626 715.533203125 1626 747.514648438 1588 c 128,-1,30
 779.49609375 1550 779.49609375 1550 771.1015625 1497 c 0,31,32
 763.0234375 1446 763.0234375 1446 719.084960938 1408.5 c 128,-1,33
 675.145507812 1371 675.145507812 1371 624.145507812 1371 c 0,22,23
EndSplineSet
Substitution2: "Single Substitution lookup 4 subtable" uni0237
Substitution2: "Single Substitution lookup 3 subtable" uni0237
Substitution2: "'aalt' Access All Alternates in Latin lookup 0 subtable" uni0237
EndChar

StartChar: uni0237
Encoding: 567 567 330
Width: 768
VWidth: 2279
GlyphClass: 2
Flags: HW
AnchorPoint: "Anchor-2" 248.811 -279 basechar 0
AnchorPoint: "Anchor-0" 572.657 1128 basechar 0
LayerCount: 2
Fore
SplineSet
153.037109375 -246 m 0,0,1
 9.037109375 -246 9.037109375 -246 -68.6982421875 -137 c 1,2,-1
 41.5927734375 29 l 1,3,-1
 53.2861328125 46 l 1,4,-1
 66.3349609375 40 l 1,5,6
 69.642578125 23 69.642578125 23 71.87109375 5.5 c 128,-1,7
 74.099609375 -12 74.099609375 -12 91.2978515625 -36 c 1,8,9
 126.376953125 -65.0322265625 126.376953125 -65.0322265625 178.229492188 -65.0322265625 c 0,10,11
 179.958007812 -65.0322265625 179.958007812 -65.0322265625 181.705078125 -65 c 0,12,13
 239.705078125 -65 239.705078125 -65 274.653320312 -8.5 c 128,-1,14
 309.602539062 48 309.602539062 48 328.766601562 169 c 2,15,-1
 452.940429688 953 l 1,16,-1
 204.940429688 953 l 1,17,-1
 232.974609375 1130 l 1,18,-1
 669.974609375 1130 l 1,19,-1
 519.984375 183 l 2,20,21
 494.326171875 21 494.326171875 21 438.596679688 -72 c 128,-1,22
 382.866210938 -165 382.866210938 -165 308.952148438 -205.5 c 128,-1,23
 235.037109375 -246 235.037109375 -246 153.037109375 -246 c 0,0,1
EndSplineSet
EndChar

StartChar: k
Encoding: 107 107 332
Width: 768
VWidth: 2430
GlyphClass: 2
Flags: HW
AnchorPoint: "Anchor-2" 323 0 basechar 0
AnchorPoint: "Anchor-0" 341.741 1621 basechar 0
LayerCount: 2
Fore
SplineSet
326.340820312 482 m 1,0,-1
 257.403320312 394 l 1,1,-1
 192 0 l 1,2,-1
 -15 0 l 1,3,-1
 241.741210938 1621 l 1,4,-1
 469.741210938 1621 l 1,5,-1
 466.731445312 1602 l 1,6,7
 450.514648438 1588 450.514648438 1588 444.243164062 1570.5 c 128,-1,8
 437.970703125 1553 437.970703125 1553 431.477539062 1512 c 2,9,-1
 298.1171875 670 l 1,10,-1
 664.55859375 1140 l 1,11,12
 690.44921875 1133 690.44921875 1133 724.578125 1127.5 c 128,-1,13
 758.70703125 1122 758.70703125 1122 784.70703125 1122 c 2,14,-1
 863.70703125 1122 l 1,15,-1
 492 644 l 1,16,-1
 721 0 l 1,17,-1
 496.57421875 -9 l 1,18,-1
 326.340820312 482 l 1,0,-1
EndSplineSet
EndChar

StartChar: kgreenlandic
Encoding: 312 312 334
Width: 768
VWidth: 2430
GlyphClass: 2
Flags: HW
AnchorPoint: "Anchor-2" 323 0 basechar 0
AnchorPoint: "Anchor-0" 266.599 1115 basechar 0
LayerCount: 2
Fore
SplineSet
326.340820312 482 m 1,0,-1
 257.403320312 394 l 1,1,-1
 192 0 l 1,2,-1
 -15 0 l 1,3,-1
 163.974609375 1130 l 1,4,-1
 391.974609375 1130 l 1,5,-1
 388.96484375 1111 l 1,6,7
 372.748046875 1097 372.748046875 1097 366.475585938 1079.5 c 128,-1,8
 360.204101562 1062 360.204101562 1062 353.551757812 1020 c 2,9,-1
 298.1171875 670 l 1,10,-1
 664.55859375 1140 l 1,11,12
 690.44921875 1133 690.44921875 1133 724.578125 1127.5 c 128,-1,13
 758.70703125 1122 758.70703125 1122 784.70703125 1122 c 2,14,-1
 863.70703125 1122 l 1,15,-1
 492 644 l 1,16,-1
 721 0 l 1,17,-1
 496.57421875 -9 l 1,18,-1
 326.340820312 482 l 1,0,-1
EndSplineSet
EndChar

StartChar: l
Encoding: 108 108 335
Width: 768
VWidth: 2430
GlyphClass: 2
Flags: HW
AnchorPoint: "Anchor-4" 421.537 559 basechar 0
AnchorPoint: "Anchor-2" 333 0 basechar 0
AnchorPoint: "Anchor-1" 901.599 1115 basechar 0
AnchorPoint: "Anchor-0" 589.741 1621 basechar 0
LayerCount: 2
Fore
SplineSet
8 0 m 1,0,-1
 39.5185546875 199 l 1,1,-1
 260.518554688 199 l 1,2,-1
 454.5390625 1424 l 1,3,-1
 243.5390625 1424 l 1,4,-1
 274.741210938 1621 l 1,5,-1
 697.741210938 1621 l 1,6,-1
 472.518554688 199 l 1,7,-1
 688.518554688 199 l 1,8,-1
 657 0 l 1,9,-1
 8 0 l 1,0,-1
EndSplineSet
EndChar

StartChar: ldot
Encoding: 320 320 339
Width: 768
VWidth: 2430
GlyphClass: 1
Flags: HW
LayerCount: 2
Fore
SplineSet
681.008789062 663 m 128,-1,1
 620.008789062 663 620.008789062 663 584.477539062 707 c 128,-1,2
 548.946289062 751 548.946289062 751 558.608398438 812 c 128,-1,3
 568.26953125 873 568.26953125 873 619.159179688 916.5 c 128,-1,4
 670.048828125 960 670.048828125 960 728.048828125 960 c 0,5,6
 789.048828125 960 789.048828125 960 824.580078125 916 c 128,-1,7
 860.111328125 872 860.111328125 872 850.608398438 812 c 0,8,9
 840.946289062 751 840.946289062 751 791.477539062 707 c 128,-1,0
 742.008789062 663 742.008789062 663 681.008789062 663 c 128,-1,1
3 0 m 1,10,-1
 34.5185546875 199 l 1,11,-1
 209.518554688 199 l 1,12,-1
 403.856445312 1426 l 1,13,-1
 238.856445312 1426 l 1,14,-1
 270.533203125 1626 l 1,15,-1
 647.533203125 1626 l 1,16,-1
 421.518554688 199 l 1,17,-1
 658.518554688 199 l 1,18,-1
 627 0 l 1,19,-1
 3 0 l 1,10,-1
EndSplineSet
EndChar

StartChar: uni01C9
Encoding: 457 457 341
Width: 768
VWidth: 2358
GlyphClass: 1
Flags: HW
LayerCount: 2
Fore
SplineSet
271.037109375 -246 m 0,0,1
 211.037109375 -246 211.037109375 -246 162.734375 -219.5 c 128,-1,2
 114.431640625 -193 114.431640625 -193 86.083984375 -151 c 1,3,-1
 198.334960938 40 l 1,4,5
 210.384765625 34 210.384765625 34 208.721679688 23.5 c 128,-1,6
 207.05859375 13 207.05859375 13 211.68359375 -2 c 128,-1,7
 216.307617188 -17 216.307617188 -17 242.981445312 -38 c 0,8,9
 265.2890625 -55 265.2890625 -55 301.2890625 -55 c 0,10,11
 356.2890625 -55 356.2890625 -55 396.524414062 -3 c 128,-1,12
 436.760742188 49 436.760742188 49 457.826171875 182 c 2,13,-1
 585.958984375 991 l 1,14,-1
 428.958984375 991 l 1,15,-1
 457.78515625 1173 l 1,16,-1
 798.78515625 1173 l 1,17,-1
 643.092773438 190 l 2,18,19
 617.434570312 28 617.434570312 28 562.650390625 -68.5 c 128,-1,20
 507.866210938 -165 507.866210938 -165 432.952148438 -205.5 c 128,-1,21
 358.037109375 -246 358.037109375 -246 271.037109375 -246 c 0,0,1
724.244140625 1359 m 128,-1,23
 673.244140625 1359 673.244140625 1359 642.762695312 1397 c 128,-1,24
 612.28125 1435 612.28125 1435 620.359375 1486 c 0,25,26
 628.75390625 1539 628.75390625 1539 670.272460938 1577 c 128,-1,27
 711.791015625 1615 711.791015625 1615 764.791015625 1615 c 0,28,29
 815.791015625 1615 815.791015625 1615 847.772460938 1577 c 128,-1,30
 879.75390625 1539 879.75390625 1539 871.359375 1486 c 0,31,32
 863.28125 1435 863.28125 1435 819.262695312 1397 c 128,-1,22
 775.244140625 1359 775.244140625 1359 724.244140625 1359 c 128,-1,23
-40.509765625 142 m 1,33,-1
 -8.68359375 324 l 1,34,-1
 70.31640625 324 l 1,35,-1
 247.70703125 1444 l 1,36,-1
 176.70703125 1444 l 1,37,-1
 205.533203125 1626 l 1,38,-1
 455.533203125 1626 l 1,39,-1
 249.31640625 324 l 1,40,-1
 393.31640625 324 l 1,41,-1
 364.490234375 142 l 1,42,-1
 -40.509765625 142 l 1,33,-1
EndSplineSet
EndChar

StartChar: lslash
Encoding: 322 322 343
Width: 768
VWidth: 2430
GlyphClass: 1
Flags: HW
LayerCount: 2
Fore
SplineSet
20 0 m 1,0,-1
 51.5185546875 199 l 1,1,-1
 257.518554688 199 l 1,2,-1
 323.40625 615 l 1,3,-1
 199.745117188 554 l 1,4,-1
 239.81640625 807 l 1,5,-1
 363.002929688 865 l 1,6,-1
 451.5390625 1424 l 1,7,-1
 254.5390625 1424 l 1,8,-1
 285.741210938 1621 l 1,9,-1
 695.741210938 1621 l 1,10,-1
 591.366210938 962 l 1,11,-1
 734.819335938 1028 l 1,12,-1
 694.748046875 775 l 1,13,-1
 550.661132812 705 l 1,14,-1
 470.518554688 199 l 1,15,-1
 676.518554688 199 l 1,16,-1
 645 0 l 1,17,-1
 20 0 l 1,0,-1
EndSplineSet
EndChar

StartChar: m
Encoding: 109 109 344
Width: 768
VWidth: 2430
GlyphClass: 2
Flags: HW
AnchorPoint: "Anchor-2" 324 0 basechar 0
AnchorPoint: "Anchor-0" 665.599 1115 basechar 0
LayerCount: 2
Fore
SplineSet
-47 0 m 1,0,-1
 131.974609375 1130 l 1,1,-1
 294.974609375 1130 l 1,2,-1
 279.453125 1032 l 1,3,4
 311.638671875 1090 311.638671875 1090 350.4453125 1123.5 c 128,-1,5
 389.250976562 1157 389.250976562 1157 429.250976562 1157 c 0,6,7
 521.250976562 1157 521.250976562 1157 526.017578125 1004 c 1,8,9
 560.421875 1076 560.421875 1076 608.3359375 1116.5 c 128,-1,10
 656.250976562 1157 656.250976562 1157 710.250976562 1157 c 0,11,12
 790.250976562 1157 790.250976562 1157 820.342773438 1075.5 c 0,13,14
 847.299804688 1002.48925781 847.299804688 1002.48925781 827.283203125 876.111328125 c 0,15,16
 824.956054688 861.416992188 824.956054688 861.416992188 821.993164062 846 c 1,17,-1
 688 0 l 1,18,-1
 515 0 l 1,19,-1
 641.708007812 800 l 2,20,21
 659.446289062 912 659.446289062 912 655.252929688 945.5 c 128,-1,22
 651.05859375 979 651.05859375 979 631.05859375 979 c 0,23,24
 598.05859375 979 598.05859375 979 567.580078125 916 c 128,-1,25
 537.1015625 853 537.1015625 853 520.629882812 749 c 2,26,-1
 402 0 l 1,27,-1
 241 0 l 1,28,-1
 365.806640625 788 l 2,29,30
 384.1796875 904 384.1796875 904 380.619140625 941.5 c 128,-1,31
 377.05859375 979 377.05859375 979 352.05859375 979 c 0,32,33
 323.05859375 979 323.05859375 979 294.926757812 924.5 c 128,-1,34
 266.794921875 870 266.794921875 870 249.055664062 758 c 2,35,-1
 129 0 l 1,36,-1
 -47 0 l 1,0,-1
EndSplineSet
EndChar

StartChar: n
Encoding: 110 110 346
Width: 768
VWidth: 2430
GlyphClass: 2
Flags: HW
AnchorPoint: "Anchor-2" 349 0 basechar 0
AnchorPoint: "Anchor-0" 532.599 1115 basechar 0
LayerCount: 2
Fore
SplineSet
-4 0 m 1,0,-1
 174.974609375 1130 l 1,1,-1
 385.974609375 1130 l 1,2,-1
 360.474609375 969 l 1,3,4
 412.9375 1054 412.9375 1054 477.09375 1105.5 c 128,-1,5
 541.250976562 1157 541.250976562 1157 616.250976562 1157 c 0,6,7
 686.250976562 1157 686.250976562 1157 736.732421875 1119 c 128,-1,8
 787.213867188 1081 787.213867188 1081 801.612304688 982.5 c 128,-1,9
 816.01171875 884 816.01171875 884 788.453125 710 c 2,10,-1
 676 0 l 1,11,-1
 467 0 l 1,12,-1
 578.661132812 705 l 2,13,14
 600.993164062 846 600.993164062 846 584.125 900.5 c 128,-1,15
 567.256835938 955 567.256835938 955 519.256835938 955 c 0,16,17
 461.256835938 955 461.256835938 955 398.037109375 881 c 128,-1,18
 334.81640625 807 334.81640625 807 312.80078125 668 c 2,19,-1
 207 0 l 1,20,-1
 -4 0 l 1,0,-1
EndSplineSet
EndChar

StartChar: eng
Encoding: 331 331 352
Width: 768
VWidth: 2281
GlyphClass: 1
Flags: HW
LayerCount: 2
Fore
SplineSet
267.037109375 -246 m 0,0,1
 226.037109375 -246 226.037109375 -246 178.229492188 -229 c 128,-1,2
 130.422851562 -212 130.422851562 -212 99.44140625 -174 c 1,3,-1
 189.158203125 1 l 1,4,5
 201.524414062 -3 201.524414062 -3 203.411132812 -19.5 c 128,-1,6
 205.297851562 -36 205.297851562 -36 219.422851562 -51 c 128,-1,7
 233.546875 -66 233.546875 -66 278.546875 -66 c 0,8,9
 342.546875 -66 342.546875 -66 379.291992188 5 c 128,-1,10
 416.037109375 76 416.037109375 76 440.111328125 228 c 2,11,-1
 519.779296875 731 l 2,12,13
 542.26953125 873 542.26953125 873 524.767578125 923.5 c 128,-1,14
 507.266601562 974 507.266601562 974 466.266601562 974 c 0,15,16
 406.266601562 974 406.266601562 974 354.100585938 903.5 c 128,-1,17
 301.934570312 833 301.934570312 833 281.819335938 706 c 2,18,-1
 191.223632812 134 l 1,19,-1
 5.2236328125 134 l 1,20,-1
 163.44921875 1133 l 1,21,-1
 349.44921875 1133 l 1,22,-1
 326.958984375 991 l 1,23,24
 422.250976562 1157 422.250976562 1157 551.250976562 1157 c 0,25,26
 613.250976562 1157 613.250976562 1157 657.57421875 1118 c 128,-1,27
 701.896484375 1079 701.896484375 1079 715.483398438 988 c 128,-1,28
 729.071289062 897 729.071289062 897 703.095703125 733 c 2,29,-1
 626.913085938 252 l 2,30,31
 583.673828125 -21 583.673828125 -21 488.85546875 -133.5 c 128,-1,32
 394.037109375 -246 394.037109375 -246 267.037109375 -246 c 0,0,1
EndSplineSet
EndChar

StartChar: o
Encoding: 111 111 355
Width: 768
VWidth: 2430
GlyphClass: 2
Flags: HW
AnchorPoint: "Anchor-4" 409.537 559 basechar 0
AnchorPoint: "Anchor-3" 387.177 39 basechar 0
AnchorPoint: "Anchor-2" 321 0 basechar 0
AnchorPoint: "Anchor-1" 668.996 1067 basechar 0
AnchorPoint: "Anchor-0" 497.599 1115 basechar 0
LayerCount: 2
Fore
SplineSet
346.192382812 178 m 0,0,1
 508.192382812 178 508.192382812 178 571.329101562 564 c 0,2,3
 603.322265625 766 603.322265625 766 575.790039062 860.5 c 128,-1,4
 548.256835938 955 548.256835938 955 469.256835938 955 c 0,5,6
 396.256835938 955 396.256835938 955 336.7109375 860 c 128,-1,7
 277.1640625 765 277.1640625 765 245.329101562 564 c 0,8,9
 214.126953125 367 214.126953125 367 242.16015625 272.5 c 128,-1,10
 270.192382812 178 270.192382812 178 346.192382812 178 c 0,0,1
314.673828125 -21 m 128,-1,12
 154.673828125 -21 154.673828125 -21 72.873046875 116 c 128,-1,13
 -8.9287109375 253 -8.9287109375 253 39.537109375 559 c 0,14,15
 89.111328125 872 89.111328125 872 215.180664062 1014.5 c 128,-1,16
 341.250976562 1157 341.250976562 1157 501.250976562 1157 c 128,-1,17
 661.250976562 1157 661.250976562 1157 743.180664062 1014.5 c 128,-1,18
 825.111328125 872 825.111328125 872 775.537109375 559 c 0,19,20
 727.387695312 255 727.387695312 255 601.03125 117 c 128,-1,11
 474.673828125 -21 474.673828125 -21 314.673828125 -21 c 128,-1,12
EndSplineSet
Substitution2: "Single Substitution lookup 29 subtable" ordmasculine
Substitution2: "'aalt' Access All Alternates in Latin lookup 0 subtable" ordmasculine
EndChar

StartChar: oslash
Encoding: 248 248 383
Width: 768
VWidth: 2430
GlyphClass: 2
Flags: HW
AnchorPoint: "Anchor-4" 409.537 559 basechar 0
AnchorPoint: "Anchor-3" 387.177 39 basechar 0
AnchorPoint: "Anchor-2" 321 0 basechar 0
AnchorPoint: "Anchor-1" 668.996 1067 basechar 0
AnchorPoint: "Anchor-0" 497.599 1115 basechar 0
LayerCount: 2
Fore
SplineSet
346.192382812 178 m 0,0,1
 508.192382812 178 508.192382812 178 571.329101562 564 c 0,2,3
 587.80078125 668 587.80078125 668 587.155273438 746 c 1,4,-1
 294.41015625 192 l 1,5,6
 315.192382812 178 315.192382812 178 346.192382812 178 c 0,0,1
245.329101562 564 m 0,7,8
 229.490234375 464 229.490234375 464 228.611328125 389 c 1,9,-1
 523.356445312 943 l 1,10,11
 502.256835938 955 502.256835938 955 469.256835938 955 c 0,12,13
 396.256835938 955 396.256835938 955 336.790039062 860.5 c 128,-1,14
 277.322265625 766 277.322265625 766 245.329101562 564 c 0,7,8
120.459960938 -136 m 1,15,-1
 -13.0869140625 -70 l 1,16,-1
 80.4716796875 104 l 1,17,18
 37.55859375 174 37.55859375 174 26.03515625 287.5 c 128,-1,19
 14.51171875 401 14.51171875 401 39.537109375 559 c 0,20,21
 89.111328125 872 89.111328125 872 215.180664062 1014.5 c 128,-1,22
 341.250976562 1157 341.250976562 1157 501.250976562 1157 c 0,23,24
 569.250976562 1157 569.250976562 1157 623.291015625 1132 c 1,25,-1
 690.72265625 1261 l 1,26,-1
 824.111328125 1194 l 1,27,-1
 736.819335938 1028 l 1,28,29
 779.415039062 956 779.415039062 956 790.54296875 840 c 128,-1,30
 801.669921875 724 801.669921875 724 775.537109375 559 c 0,31,32
 727.387695312 255 727.387695312 255 602.03125 117 c 128,-1,33
 476.673828125 -21 476.673828125 -21 314.673828125 -21 c 0,34,35
 246.673828125 -21 246.673828125 -21 194.31640625 2 c 1,36,-1
 120.459960938 -136 l 1,15,-1
EndSplineSet
EndChar

StartChar: oe
Encoding: 339 339 389
Width: 768
VWidth: 2430
GlyphClass: 1
Flags: HW
LayerCount: 2
Fore
SplineSet
175.549804688 155 m 0,0,1
 199.549804688 155 199.549804688 155 218.716796875 175 c 128,-1,2
 237.884765625 195 237.884765625 195 244.061523438 234 c 0,3,4
 245.170898438 241 245.170898438 241 246.071289062 253 c 128,-1,5
 246.971679688 265 246.971679688 265 248.456054688 287 c 0,6,7
 254.810546875 365 254.810546875 365 260.580078125 433 c 128,-1,8
 266.350585938 501 266.350585938 501 278.86328125 580 c 0,9,10
 300.403320312 716 300.403320312 716 320.490234375 786 c 128,-1,11
 340.577148438 856 340.577148438 856 343.111328125 872 c 0,12,13
 349.288085938 911 349.288085938 911 340.327148438 936.5 c 128,-1,14
 331.366210938 962 331.366210938 962 301.366210938 962 c 0,15,16
 264.366210938 962 264.366210938 962 225.1953125 882 c 128,-1,17
 186.024414062 802 186.024414062 802 151.813476562 586 c 0,18,19
 114.118164062 348 114.118164062 348 120.333984375 251.5 c 128,-1,20
 126.549804688 155 126.549804688 155 175.549804688 155 c 0,0,1
446.760742188 693 m 1,21,-1
 613.760742188 693 l 1,22,23
 637.993164062 846 637.993164062 846 630.733398438 907.5 c 128,-1,24
 623.474609375 969 623.474609375 969 576.474609375 969 c 0,25,26
 531.474609375 969 531.474609375 969 499.887695312 899 c 128,-1,27
 468.30078125 829 468.30078125 829 446.760742188 693 c 1,21,-1
445.248046875 -30 m 0,28,29
 342.248046875 -30 342.248046875 -30 293.39453125 53 c 1,30,31
 221.453125 -27.01171875 221.453125 -27.01171875 135.83984375 -27.01171875 c 0,0,0
 134.782226562 -27.01171875 134.782226562 -27.01171875 133.723632812 -27 c 0,32,33
 77.7236328125 -27 77.7236328125 -27 32.009765625 19 c 128,-1,34
 -13.705078125 65 -13.705078125 65 -28.1689453125 191.5 c 128,-1,35
 -42.6337890625 318 -42.6337890625 318 -4.462890625 559 c 0,36,37
 30.5400390625 780 30.5400390625 780 82.2333984375 907.5 c 128,-1,38
 133.927734375 1035 133.927734375 1035 197.638671875 1090 c 128,-1,39
 261.350585938 1145 261.350585938 1145 330.350585938 1145 c 0,40,41
 416.350585938 1145 416.350585938 1145 454.095703125 1055 c 1,42,43
 520.350585938 1145 520.350585938 1145 610.350585938 1145 c 0,44,45
 709.350585938 1145 709.350585938 1145 749.82421875 1037.5 c 128,-1,46
 790.297851562 930 790.297851562 930 751.96875 688 c 2,47,-1
 725.360351562 520 l 1,48,-1
 414.360351562 520 l 1,49,50
 391.810546875 365 391.810546875 365 394.060546875 284.5 c 128,-1,51
 396.310546875 204 396.310546875 204 419.375976562 176 c 128,-1,52
 442.440429688 148 442.440429688 148 480.440429688 148 c 0,53,54
 558.440429688 148 558.440429688 148 617.6953125 238 c 1,55,-1
 655.729492188 93 l 1,56,57
 557.248046875 -30 557.248046875 -30 445.248046875 -30 c 0,28,29
EndSplineSet
EndChar

StartChar: p
Encoding: 112 112 390
Width: 768
VWidth: 2298
GlyphClass: 2
Flags: HW
AnchorPoint: "Anchor-2" 332.689 118 basechar 0
AnchorPoint: "Anchor-0" 492.975 1130 basechar 0
LayerCount: 2
Fore
SplineSet
345.129882812 266 m 0,0,1
 387.129882812 266 387.129882812 266 422.985351562 293.5 c 128,-1,2
 458.841796875 321 458.841796875 321 489.616210938 398.5 c 128,-1,3
 520.390625 476 520.390625 476 543.83203125 624 c 0,4,5
 575.508789062 824 575.508789062 824 553.862304688 902 c 128,-1,6
 532.216796875 980 532.216796875 980 465.533203125 982 c 0,7,8
 398.533203125 982 398.533203125 982 343.06640625 887.5 c 128,-1,9
 287.598632812 793 287.598632812 793 255.921875 593 c 0,10,11
 228.62109375 408 228.62109375 408 255.375976562 337 c 128,-1,12
 282.129882812 266 282.129882812 266 345.129882812 266 c 0,0,1
-65.962890625 -246 m 1,13,-1
 152.766601562 1135 l 1,14,-1
 341.766601562 1135 l 1,15,-1
 319.909179688 997 l 1,16,17
 363.104492188 1074 363.104492188 1074 417.677734375 1115.5 c 128,-1,18
 472.250976562 1157 472.250976562 1157 539.250976562 1157 c 0,19,20
 616.250976562 1157 616.250976562 1157 670.46484375 1111 c 128,-1,21
 724.6796875 1065 724.6796875 1065 744.385742188 949.5 c 128,-1,22
 764.092773438 834 764.092773438 834 730.83203125 624 c 0,23,24
 699.471679688 426 699.471679688 426 645.01953125 309.5 c 128,-1,25
 590.568359375 193 590.568359375 193 519.569335938 142.5 c 128,-1,26
 448.571289062 92 448.571289062 92 367.571289062 92 c 0,27,28
 234.571289062 92 234.571289062 92 199.319335938 223 c 1,29,-1
 125.037109375 -246 l 1,30,-1
 -65.962890625 -246 l 1,13,-1
EndSplineSet
EndChar

StartChar: thorn
Encoding: 254 254 391
Width: 768
VWidth: 2365
GlyphClass: 1
Flags: HW
LayerCount: 2
Fore
SplineSet
358.34765625 280 m 0,0,1
 401.34765625 280 401.34765625 280 437.703125 307.5 c 128,-1,2
 474.05859375 335 474.05859375 335 505.729492188 415 c 128,-1,3
 537.400390625 495 537.400390625 495 561.474609375 647 c 0,4,5
 593.943359375 852 593.943359375 852 571.614257812 932 c 128,-1,6
 549.28515625 1012 549.28515625 1012 480.6015625 1014 c 0,7,8
 411.6015625 1014 411.6015625 1014 354.73828125 917 c 128,-1,9
 297.875 820 297.875 820 265.40625 615 c 0,10,11
 237.313476562 425 237.313476562 425 265.830078125 352.5 c 128,-1,12
 294.34765625 280 294.34765625 280 358.34765625 280 c 0,0,1
231.741210938 1621 m 1,13,-1
 444.741210938 1621 l 1,14,-1
 441.890625 1603 l 1,15,16
 426.831054688 1590 426.831054688 1590 420.875976562 1574.5 c 128,-1,17
 414.920898438 1559 414.920898438 1559 408.744140625 1520 c 2,18,-1
 331.135742188 1030 l 1,19,20
 375.6484375 1109 375.6484375 1109 431.80078125 1151 c 128,-1,21
 487.953125 1193 487.953125 1193 555.953125 1193 c 0,22,23
 634.953125 1193 634.953125 1193 691.008789062 1146 c 128,-1,24
 747.064453125 1099 747.064453125 1099 767.295898438 980.5 c 128,-1,25
 787.52734375 862 787.52734375 862 753.474609375 647 c 0,26,27
 721.322265625 444 721.322265625 444 665.31640625 324 c 128,-1,28
 609.310546875 204 609.310546875 204 536.57421875 152 c 128,-1,29
 463.838867188 100 463.838867188 100 380.838867188 100 c 0,30,31
 243.838867188 100 243.838867188 100 208.220703125 235 c 1,32,-1
 132.037109375 -246 l 1,33,-1
 -63.962890625 -246 l 1,34,-1
 231.741210938 1621 l 1,13,-1
EndSplineSet
EndChar

StartChar: q
Encoding: 113 113 392
Width: 768
VWidth: 2299
GlyphClass: 1
Flags: HW
LayerCount: 2
Fore
SplineSet
323.921875 271 m 0,0,1
 384.921875 271 384.921875 271 434.750976562 352 c 128,-1,2
 484.580078125 433 484.580078125 433 517.840820312 643 c 0,3,4
 548.884765625 839 548.884765625 839 524.10546875 913 c 128,-1,5
 499.325195312 987 499.325195312 987 437.325195312 987 c 0,6,7
 372.325195312 987 372.325195312 987 320.708984375 910.5 c 128,-1,8
 269.092773438 834 269.092773438 834 236.624023438 629 c 0,9,10
 205.263671875 431 205.263671875 431 231.092773438 351 c 128,-1,11
 256.921875 271 256.921875 271 323.921875 271 c 0,0,1
377.037109375 -246 m 1,12,-1
 451.953125 227 l 1,13,14
 411.07421875 152 411.07421875 152 363.481445312 123 c 128,-1,15
 320.349609375 96.71875 320.349609375 96.71875 268.240234375 96.71875 c 0,0,0
 262.849609375 96.71875 262.849609375 96.71875 257.36328125 97 c 0,16,17
 109.36328125 97 109.36328125 97 57.7451171875 232 c 128,-1,18
 6.126953125 367 6.126953125 367 46.5146484375 622 c 0,19,20
 77.875 820 77.875 820 133.643554688 938.5 c 128,-1,21
 189.412109375 1057 189.412109375 1057 264.990234375 1108 c 128,-1,22
 340.567382812 1159 340.567382812 1159 429.567382812 1159 c 0,23,24
 496.567382812 1159 496.567382812 1159 532.70703125 1122 c 128,-1,25
 568.846679688 1085 568.846679688 1085 581.759765625 1015 c 1,26,-1
 600.44921875 1133 l 1,27,-1
 785.44921875 1133 l 1,28,-1
 567.037109375 -246 l 1,29,-1
 377.037109375 -246 l 1,12,-1
EndSplineSet
EndChar

StartChar: r
Encoding: 114 114 393
Width: 768
VWidth: 2430
GlyphClass: 2
Flags: HW
AnchorPoint: "Anchor-2" 375 0 basechar 0
AnchorPoint: "Anchor-0" 567.074 1118 basechar 0
LayerCount: 2
Fore
SplineSet
205.974609375 1130 m 1,0,-1
 422.974609375 1130 l 1,1,-1
 395.158203125 967 l 1,2,3
 443.887695312 1060 443.887695312 1060 519.227539062 1109.5 c 0,4,5
 591.641601562 1157.078125 591.641601562 1157.078125 661.6015625 1157.078125 c 0,6,7
 664.427734375 1157.078125 664.427734375 1157.078125 667.250976562 1157 c 0,8,9
 745.250976562 1157 745.250976562 1157 794.127929688 1121.5 c 128,-1,10
 843.005859375 1086 843.005859375 1086 874.551757812 1020 c 1,11,-1
 757.884765625 839 l 1,12,-1
 747.2421875 816 l 1,13,-1
 729.350585938 823 l 1,14,15
 725.359375 842 725.359375 842 722.502929688 865 c 128,-1,16
 719.645507812 888 719.645507812 888 698.080078125 916 c 1,17,18
 654.940429688 953 654.940429688 953 605.940429688 953 c 0,19,20
 552.940429688 953 552.940429688 953 499.609375 922.5 c 128,-1,21
 446.279296875 892 446.279296875 892 402.662109375 815.5 c 128,-1,22
 359.045898438 739 359.045898438 739 336.713867188 598 c 2,23,-1
 241.68359375 -2 l 1,24,-1
 26.68359375 -2 l 1,25,-1
 205.974609375 1130 l 1,0,-1
EndSplineSet
EndChar

StartChar: uni027B
Encoding: 635 635 399
Width: 768
VWidth: 2276
GlyphClass: 1
Flags: HW
LayerCount: 2
Fore
SplineSet
467.037109375 -246 m 0,0,1
 360.037109375 -246 360.037109375 -246 311.416015625 -171 c 128,-1,2
 262.794921875 -96 262.794921875 -96 289.9375 88 c 1,3,-1
 317.4375 249 l 1,4,5
 280.508789062 180 280.508789062 180 224.88671875 144.5 c 128,-1,6
 169.263671875 109 169.263671875 109 117.263671875 109 c 0,7,8
 68.263671875 109 68.263671875 109 27.3525390625 128.5 c 128,-1,9
 -13.5595703125 148 -13.5595703125 148 -46.005859375 202 c 1,10,-1
 39.7109375 377 l 1,11,-1
 48.1953125 399 l 1,12,-1
 59.5615234375 395 l 1,13,14
 63.1865234375 380 63.1865234375 380 63.9931640625 363 c 128,-1,15
 64.80078125 346 64.80078125 346 78.6337890625 326 c 0,16,17
 111.456054688 287 111.456054688 287 158.456054688 287 c 0,18,19
 220.456054688 287 220.456054688 287 282.755859375 361.5 c 128,-1,20
 345.055664062 436 345.055664062 436 371.030273438 600 c 2,21,-1
 455.291015625 1132 l 1,22,-1
 642.291015625 1132 l 1,23,-1
 474.9375 88 l 2,24,25
 461.633789062 4 461.633789062 4 470.481445312 -38 c 128,-1,26
 479.329101562 -80 479.329101562 -80 516.329101562 -80 c 0,27,28
 529.329101562 -80 529.329101562 -80 541.883789062 -76.5 c 128,-1,29
 554.4375 -73 554.4375 -73 565.86328125 -64 c 0,30,31
 577.130859375 -56 577.130859375 -56 583.03125 -44 c 128,-1,32
 588.931640625 -32 588.931640625 -32 599.565429688 -28 c 1,33,-1
 608.431640625 -193 l 1,34,35
 547.037109375 -246 547.037109375 -246 467.037109375 -246 c 0,0,1
EndSplineSet
EndChar

StartChar: uni024D
Encoding: 589 589 402
Width: 768
VWidth: 2430
GlyphClass: 2
Flags: HW
AnchorPoint: "Anchor-2" 361 0 basechar 0
AnchorPoint: "Anchor-0" 553.074 1118 basechar 0
LayerCount: 2
Fore
SplineSet
15.720703125 396 m 1,0,-1
 47.3974609375 596 l 1,1,-1
 117.397460938 596 l 1,2,-1
 201.974609375 1130 l 1,3,-1
 412.974609375 1130 l 1,4,-1
 385.158203125 967 l 1,5,6
 432.887695312 1060 432.887695312 1060 506.727539062 1109.5 c 0,7,8
 577.700195312 1157.078125 577.700195312 1157.078125 644.83203125 1157.078125 c 0,9,10
 647.544921875 1157.078125 647.544921875 1157.078125 650.250976562 1157 c 0,11,12
 726.250976562 1157 726.250976562 1157 773.627929688 1121.5 c 128,-1,13
 821.005859375 1086 821.005859375 1086 850.551757812 1020 c 1,14,-1
 736.884765625 839 l 1,15,-1
 726.2421875 816 l 1,16,-1
 709.350585938 823 l 1,17,18
 705.359375 842 705.359375 842 702.502929688 865 c 128,-1,19
 699.645507812 888 699.645507812 888 679.080078125 916 c 1,20,21
 637.940429688 953 637.940429688 953 589.940429688 953 c 0,22,23
 537.940429688 953 537.940429688 953 486.109375 922.5 c 128,-1,24
 434.279296875 892 434.279296875 892 391.662109375 815.5 c 128,-1,25
 349.045898438 739 349.045898438 739 326.713867188 598 c 2,26,-1
 326.397460938 596 l 1,27,-1
 533.397460938 596 l 1,28,-1
 501.720703125 396 l 1,29,-1
 294.720703125 396 l 1,30,-1
 231.68359375 -2 l 1,31,-1
 22.68359375 -2 l 1,32,-1
 85.720703125 396 l 1,33,-1
 15.720703125 396 l 1,0,-1
EndSplineSet
EndChar

StartChar: s
Encoding: 115 115 403
Width: 768
VWidth: 2430
GlyphClass: 1
Flags: HW
LayerCount: 2
Fore
SplineSet
320.19921875 -24 m 0,0,1
 208.19921875 -24 208.19921875 -24 126.42578125 9 c 128,-1,2
 44.65234375 42 44.65234375 42 -6.1611328125 100 c 1,3,-1
 106.456054688 287 l 1,4,-1
 117.940429688 309 l 1,5,-1
 133.673828125 301 l 1,6,7
 139.6640625 282 139.6640625 282 145.313476562 264 c 128,-1,8
 150.962890625 246 150.962890625 246 177.319335938 223 c 0,9,10
 209.568359375 193 209.568359375 193 249.350585938 179 c 128,-1,11
 289.133789062 165 289.133789062 165 343.133789062 165 c 0,12,13
 411.133789062 165 411.133789062 165 455.365234375 207.5 c 128,-1,14
 499.595703125 250 499.595703125 250 509.57421875 313 c 0,15,16
 517.96875 366 517.96875 366 488.62109375 408 c 128,-1,17
 459.2734375 450 459.2734375 450 373.2421875 494 c 0,18,19
 262.63671875 547 262.63671875 547 195.911132812 624.5 c 128,-1,20
 129.185546875 702 129.185546875 702 151.676757812 844 c 0,21,22
 172.108398438 973 172.108398438 973 270.6796875 1065 c 128,-1,23
 369.250976562 1157 369.250976562 1157 519.250976562 1157 c 0,24,25
 735.250976562 1157 735.250976562 1157 818.017578125 1004 c 1,26,-1
 695.993164062 846 l 1,27,-1
 680.825195312 826 l 1,28,-1
 667.567382812 837 l 1,29,30
 665.577148438 856 665.577148438 856 661.666015625 875.5 c 128,-1,31
 657.75390625 895 657.75390625 895 636.188476562 923 c 1,32,33
 609.514648438 944 609.514648438 944 575.3359375 955.5 c 128,-1,34
 541.158203125 967 541.158203125 967 504.158203125 967 c 0,35,36
 443.158203125 967 443.158203125 967 400.510742188 934.5 c 128,-1,37
 357.862304688 902 357.862304688 902 349.309570312 848 c 0,38,39
 340.124023438 790 340.124023438 790 376.446289062 751 c 128,-1,40
 412.76953125 712 412.76953125 712 507.484375 666 c 0,41,42
 633.822265625 605 633.822265625 605 682.760742188 532 c 128,-1,43
 731.698242188 459 731.698242188 459 710.474609375 325 c 0,44,45
 684.024414062 158 684.024414062 158 578.611328125 67 c 128,-1,46
 473.19921875 -24 473.19921875 -24 320.19921875 -24 c 0,0,1
EndSplineSet
EndChar

StartChar: germandbls
Encoding: 223 223 414
Width: 768
VWidth: 2430
GlyphClass: 1
Flags: HW
LayerCount: 2
Fore
SplineSet
400.723632812 -27 m 0,0,1
 347.723632812 -27 347.723632812 -27 310.361328125 -13.5 c 128,-1,2
 273 0 273 0 240.276367188 27 c 1,3,-1
 325.2109375 216 l 1,4,5
 357.2421875 172 357.2421875 172 409.2421875 172 c 0,6,7
 467.2421875 172 467.2421875 172 511.284179688 257.5 c 128,-1,8
 555.326171875 343 555.326171875 343 575.598632812 471 c 0,9,10
 595.555664062 597 595.555664062 597 569.147460938 676.5 c 128,-1,11
 542.73828125 756 542.73828125 756 436.73828125 756 c 2,12,-1
 381.73828125 756 l 1,13,-1
 412.940429688 953 l 1,14,-1
 474.940429688 953 l 2,15,16
 527.940429688 953 527.940429688 953 568.522460938 1013.5 c 128,-1,17
 609.104492188 1074 609.104492188 1074 627.161132812 1188 c 128,-1,18
 645.216796875 1302 645.216796875 1302 623.274414062 1365.5 c 128,-1,19
 601.331054688 1429 601.331054688 1429 538.331054688 1429 c 0,20,21
 473.331054688 1429 473.331054688 1429 423.73046875 1330.5 c 128,-1,22
 374.129882812 1232 374.129882812 1232 344.987304688 1048 c 2,23,-1
 179 0 l 1,24,-1
 -29 0 l 1,25,-1
 134.927734375 1035 l 2,26,27
 169.456054688 1253 169.456054688 1253 231.625 1383.5 c 128,-1,28
 293.793945312 1514 293.793945312 1514 376.322265625 1571 c 128,-1,29
 458.849609375 1628 458.849609375 1628 558.849609375 1628 c 0,30,31
 706.849609375 1628 706.849609375 1628 784.293945312 1514 c 128,-1,32
 861.73828125 1400 861.73828125 1400 830.219726562 1201 c 0,33,34
 814.064453125 1099 814.064453125 1099 770.864257812 1012.5 c 128,-1,35
 727.6640625 926 727.6640625 926 654.903320312 877 c 1,36,37
 735.7265625 838 735.7265625 838 771.174804688 733.5 c 128,-1,38
 806.624023438 629 806.624023438 629 777.1640625 443 c 0,39,40
 738.676757812 200 738.676757812 200 636.200195312 86.5 c 128,-1,41
 533.723632812 -27 533.723632812 -27 400.723632812 -27 c 0,0,1
EndSplineSet
EndChar

StartChar: t
Encoding: 116 116 415
Width: 768
VWidth: 2430
GlyphClass: 2
Flags: HW
AnchorPoint: "Anchor-4" 376.155 746 basechar 0
AnchorPoint: "Anchor-2" 377 0 basechar 0
AnchorPoint: "Anchor-1" 599.499 1127 basechar 0
AnchorPoint: "Anchor-0" 530.539 1424 basechar 0
LayerCount: 2
Fore
SplineSet
416.723632812 -27 m 0,0,1
 314.723632812 -27 314.723632812 -27 261.776367188 27 c 128,-1,2
 208.829101562 81 208.829101562 81 202.131835938 215.5 c 0,3,4
 196.774414062 323.099609375 196.774414062 323.099609375 225.118164062 502.059570312 c 0,5,6
 232.205078125 546.799804688 232.205078125 546.799804688 241.397460938 596 c 2,7,-1
 297.1796875 904 l 1,8,-1
 139.1796875 904 l 1,9,-1
 173.698242188 1103 l 1,10,-1
 335.698242188 1103 l 1,11,-1
 388.946289062 1395 l 1,12,-1
 617.5390625 1424 l 1,13,-1
 639.856445312 1426 l 1,14,-1
 638.846679688 1407 l 1,15,16
 624.154296875 1390 624.154296875 1390 614.303710938 1372 c 128,-1,17
 604.452148438 1354 604.452148438 1354 596.275390625 1315 c 2,18,-1
 549.698242188 1103 l 1,19,-1
 792.698242188 1103 l 1,20,-1
 759.1796875 904 l 1,21,-1
 518.1796875 904 l 1,22,-1
 456.60546875 591 l 2,23,24
 447.760742188 543.75 447.760742188 543.75 441.19921875 502.322265625 c 0,25,26
 414.015625 330.694335938 414.015625 330.694335938 426.021484375 259 c 0,27,28
 440.92578125 170 440.92578125 170 503.92578125 170 c 0,29,30
 556.92578125 170 556.92578125 170 603.963867188 195.5 c 128,-1,31
 651.002929688 221 651.002929688 221 688.071289062 253 c 1,32,-1
 697.403320312 72 l 1,33,34
 633.009765625 19 633.009765625 19 559.866210938 -4 c 128,-1,35
 486.723632812 -27 486.723632812 -27 416.723632812 -27 c 0,0,1
EndSplineSet
EndChar

StartChar: tbar
Encoding: 359 359 416
Width: 768
VWidth: 2430
GlyphClass: 2
Flags: HW
AnchorPoint: "Anchor-4" 376.155 746 basechar 0
AnchorPoint: "Anchor-2" 377 0 basechar 0
AnchorPoint: "Anchor-1" 599.499 1127 basechar 0
AnchorPoint: "Anchor-0" 530.539 1424 basechar 0
LayerCount: 2
Fore
SplineSet
71.458984375 508 m 1,0,-1
 104.561523438 717 l 1,1,-1
 262.561523438 717 l 1,2,-1
 297.1796875 904 l 1,3,-1
 139.1796875 904 l 1,4,-1
 173.698242188 1103 l 1,5,-1
 335.698242188 1103 l 1,6,-1
 388.946289062 1395 l 1,7,-1
 617.5390625 1424 l 1,8,-1
 639.856445312 1426 l 1,9,-1
 638.846679688 1407 l 1,10,11
 624.154296875 1390 624.154296875 1390 614.303710938 1372 c 128,-1,12
 604.452148438 1354 604.452148438 1354 596.275390625 1315 c 2,13,-1
 549.698242188 1103 l 1,14,-1
 792.698242188 1103 l 1,15,-1
 759.1796875 904 l 1,16,-1
 518.1796875 904 l 1,17,-1
 481.561523438 717 l 1,18,-1
 717.561523438 717 l 1,19,-1
 684.458984375 508 l 1,20,-1
 440.458984375 508 l 1,21,22
 410.049804688 316 410.049804688 316 428.987304688 243 c 128,-1,23
 447.92578125 170 447.92578125 170 503.92578125 170 c 0,24,25
 556.92578125 170 556.92578125 170 603.963867188 195.5 c 128,-1,26
 651.002929688 221 651.002929688 221 688.071289062 253 c 1,27,-1
 697.403320312 72 l 1,28,29
 633.009765625 19 633.009765625 19 560.366210938 -4 c 128,-1,30
 487.723632812 -27 487.723632812 -27 416.723632812 -27 c 0,31,32
 321.723632812 -27 321.723632812 -27 267.509765625 19 c 128,-1,33
 213.294921875 65 213.294921875 65 202.326171875 182 c 128,-1,34
 191.357421875 299 191.357421875 299 224.458984375 508 c 1,35,-1
 71.458984375 508 l 1,0,-1
EndSplineSet
EndChar

StartChar: u
Encoding: 117 117 423
Width: 768
VWidth: 2430
GlyphClass: 2
Flags: HW
AnchorPoint: "Anchor-3" 511 0 basechar 0
AnchorPoint: "Anchor-2" 288 0 basechar 0
AnchorPoint: "Anchor-1" 819.599 1115 basechar 0
AnchorPoint: "Anchor-0" 502.599 1115 basechar 0
LayerCount: 2
Fore
SplineSet
258.723632812 -27 m 0,0,1
 173.723632812 -27 173.723632812 -27 120.192382812 17 c 128,-1,2
 66.6611328125 61 66.6611328125 61 51.1630859375 171.5 c 0,3,4
 36.9560546875 272.791992188 36.9560546875 272.791992188 64.91015625 449.288085938 c 0,5,6
 67.451171875 465.333007812 67.451171875 465.333007812 70.3408203125 482 c 2,7,-1
 174.974609375 1130 l 1,8,-1
 383.974609375 1130 l 1,9,-1
 278.490234375 464 l 2,10,11
 259.326171875 343 259.326171875 343 262.426757812 280.5 c 128,-1,12
 265.52734375 218 265.52734375 218 286.384765625 195 c 128,-1,13
 307.2421875 172 307.2421875 172 341.2421875 172 c 0,14,15
 404.2421875 172 404.2421875 172 453.833984375 251.5 c 128,-1,16
 503.424804688 331 503.424804688 331 527.658203125 484 c 2,17,-1
 629.974609375 1130 l 1,18,-1
 840.974609375 1130 l 1,19,-1
 689.55859375 174 l 2,20,21
 682.2734375 128 682.2734375 128 678.12109375 86 c 128,-1,22
 673.96875 44 673.96875 44 678 0 c 1,23,-1
 484 0 l 1,24,25
 473.869140625 56 473.869140625 56 485.431640625 129 c 1,26,27
 444.028320312 57 444.028320312 57 385.375976562 15 c 128,-1,28
 326.723632812 -27 326.723632812 -27 258.723632812 -27 c 0,0,1
EndSplineSet
EndChar

StartChar: v
Encoding: 118 118 446
Width: 768
VWidth: 2430
GlyphClass: 2
Flags: HW
AnchorPoint: "Anchor-2" 333 0 basechar 0
AnchorPoint: "Anchor-0" 511.499 1127 basechar 0
LayerCount: 2
Fore
SplineSet
239 0 m 1,0,-1
 140.974609375 1130 l 1,1,-1
 349.974609375 1130 l 1,2,-1
 403.008789062 341 l 1,3,-1
 535.484375 666 l 2,4,5
 587.916015625 795 587.916015625 795 626.684570312 913.5 c 128,-1,6
 665.453125 1032 665.453125 1032 684.974609375 1130 c 1,7,-1
 874.974609375 1130 l 1,8,9
 849.501953125 1026 849.501953125 1026 804.387695312 899 c 128,-1,10
 759.272460938 772 759.272460938 772 702.366210938 640 c 2,11,-1
 426 0 l 1,12,-1
 239 0 l 1,0,-1
EndSplineSet
EndChar

StartChar: w
Encoding: 119 119 447
Width: 768
VWidth: 2430
GlyphClass: 2
Flags: HW
AnchorPoint: "Anchor-2" 292 0 basechar 0
AnchorPoint: "Anchor-0" 468.599 1115 basechar 0
LayerCount: 2
Fore
SplineSet
47.68359375 -2 m 1,0,-1
 100.974609375 1130 l 1,1,-1
 264.974609375 1130 l 1,2,-1
 216.126953125 367 l 1,3,-1
 396.1484375 948 l 1,4,-1
 507.1484375 948 l 1,5,-1
 518.444335938 369 l 1,6,7
 588.900390625 656 588.900390625 656 621.721679688 828.5 c 128,-1,8
 654.54296875 1001 654.54296875 1001 667.530273438 1083 c 2,9,-1
 674.974609375 1130 l 1,10,-1
 836.974609375 1130 l 1,11,12
 776.260742188 854 776.260742188 854 703.432617188 561.5 c 128,-1,13
 630.60546875 269 630.60546875 269 554.68359375 -2 c 1,14,-1
 384.68359375 -2 l 1,15,-1
 386.953125 549 l 1,16,-1
 217.68359375 -2 l 1,17,-1
 47.68359375 -2 l 1,0,-1
EndSplineSet
EndChar

StartChar: x
Encoding: 120 120 452
Width: 768
VWidth: 2430
GlyphClass: 2
Flags: HW
AnchorPoint: "Anchor-2" 321 0 basechar 0
AnchorPoint: "Anchor-0" 499.499 1127 basechar 0
LayerCount: 2
Fore
SplineSet
-44 0 m 1,0,-1
 304.4375 571 l 1,1,-1
 138.974609375 1130 l 1,2,-1
 342.974609375 1130 l 1,3,-1
 443.806640625 788 l 1,4,-1
 642.974609375 1130 l 1,5,-1
 836.974609375 1130 l 1,6,-1
 512.545898438 578 l 1,7,-1
 692 0 l 1,8,-1
 483 0 l 1,9,-1
 376.018554688 360 l 1,10,-1
 164 0 l 1,11,-1
 -44 0 l 1,0,-1
EndSplineSet
EndChar

StartChar: y
Encoding: 121 121 453
Width: 768
VWidth: 2279
GlyphClass: 2
Flags: HW
AnchorPoint: "Anchor-2" 511.59 130 basechar 0
AnchorPoint: "Anchor-0" 476.657 1128 basechar 0
LayerCount: 2
Fore
SplineSet
64.037109375 -246 m 0,0,1
 -34.962890625 -246 -34.962890625 -246 -90.4501953125 -167 c 1,2,-1
 -4.9501953125 -6 l 1,3,-1
 5.05859375 13 l 1,4,-1
 18.1083984375 7 l 1,5,6
 21.7333984375 -8 21.7333984375 -8 27.0400390625 -25 c 128,-1,7
 32.34765625 -42 32.34765625 -42 56.3388671875 -61 c 0,8,9
 72.0712890625 -69 72.0712890625 -69 94.9130859375 -70 c 0,10,11
 139.913085938 -70 139.913085938 -70 172.782226562 -14 c 128,-1,12
 205.65234375 42 205.65234375 42 247.916015625 151 c 2,13,-1
 254.450195312 167 l 1,14,-1
 135.974609375 1130 l 1,15,-1
 318.974609375 1130 l 1,16,-1
 386.400390625 495 l 1,17,-1
 485.6796875 743 l 2,18,19
 525.04296875 840 525.04296875 840 557.985351562 937.5 c 128,-1,20
 590.927734375 1035 590.927734375 1035 611.974609375 1130 c 1,21,-1
 779.974609375 1130 l 1,22,23
 758.293945312 1031 758.293945312 1031 715.609375 922.5 c 128,-1,24
 672.924804688 814 672.924804688 814 632.245117188 715 c 2,25,-1
 351.592773438 29 l 2,26,27
 289.46875 -117 289.46875 -117 214.752929688 -181.5 c 128,-1,28
 140.037109375 -246 140.037109375 -246 64.037109375 -246 c 0,0,1
EndSplineSet
EndChar

StartChar: z
Encoding: 122 122 463
Width: 768
VWidth: 2430
GlyphClass: 2
Flags: HW
AnchorPoint: "Anchor-2" 368 0 basechar 0
AnchorPoint: "Anchor-0" 548.499 1127 basechar 0
LayerCount: 2
Fore
SplineSet
-4.4501953125 155 m 1,0,-1
 548.98046875 928 l 1,1,-1
 154.98046875 928 l 1,2,-1
 186.974609375 1130 l 1,3,-1
 828.974609375 1130 l 1,4,-1
 803.94921875 972 l 1,5,-1
 262.518554688 199 l 1,6,-1
 612.518554688 199 l 2,7,8
 651.518554688 199 651.518554688 199 670.810546875 204 c 128,-1,9
 690.102539062 209 690.102539062 209 706.319335938 223 c 1,10,-1
 727.319335938 223 l 1,11,-1
 692 0 l 1,12,-1
 -29 0 l 1,13,-1
 -4.4501953125 155 l 1,0,-1
EndSplineSet
EndChar

StartChar: u.i
Encoding: 65539 -1 468
Width: 768
VWidth: 2430
GlyphClass: 2
Flags: HW
AnchorPoint: "Anchor-3" 474 0 basechar 0
AnchorPoint: "Anchor-2" 237 0 basechar 0
AnchorPoint: "Anchor-1" 731.499 1127 basechar 0
AnchorPoint: "Anchor-0" 434.499 1127 basechar 0
LayerCount: 2
Fore
SplineSet
198.723632812 -27 m 0,0,1
 120.723632812 -27 120.723632812 -27 70.1923828125 17 c 128,-1,2
 19.6611328125 61 19.6611328125 61 7.1630859375 171.5 c 0,3,4
 -4.5546875 275.09375 -4.5546875 275.09375 24.3125 457.349609375 c 0,5,6
 26.236328125 469.5 26.236328125 469.5 28.3408203125 482 c 2,7,-1
 133.974609375 1130 l 1,8,-1
 327.974609375 1130 l 1,9,-1
 222.490234375 464 l 2,10,11
 203.326171875 343 203.326171875 343 205.426757812 280.5 c 128,-1,12
 207.52734375 218 207.52734375 218 226.884765625 195 c 128,-1,13
 246.2421875 172 246.2421875 172 278.2421875 172 c 0,14,15
 336.2421875 172 336.2421875 172 383.833984375 251.5 c 128,-1,16
 431.424804688 331 431.424804688 331 455.658203125 484 c 2,17,-1
 557.974609375 1130 l 1,18,-1
 752.974609375 1130 l 1,19,-1
 601.55859375 174 l 2,20,21
 594.2734375 128 594.2734375 128 590.12109375 86 c 128,-1,22
 585.96875 44 585.96875 44 592 0 c 1,23,-1
 411 0 l 1,24,25
 400.869140625 56 400.869140625 56 412.431640625 129 c 1,26,27
 374.028320312 57 374.028320312 57 317.875976562 15 c 128,-1,28
 261.723632812 -27 261.723632812 -27 198.723632812 -27 c 0,0,1
EndSplineSet
EndChar

StartChar: r.serif
Encoding: 65540 -1 469
Width: 768
VWidth: 2430
GlyphClass: 1
Flags: HW
LayerCount: 2
Fore
SplineSet
-4.31640625 -2 m 1,0,-1
 27.2021484375 197 l 1,1,-1
 117.202148438 197 l 1,2,-1
 233.772460938 933 l 1,3,-1
 148.772460938 933 l 1,4,-1
 179.974609375 1130 l 1,5,-1
 480.974609375 1130 l 1,6,-1
 454.840820312 965 l 1,7,8
 502.303710938 1050 502.303710938 1050 572.77734375 1103.5 c 128,-1,9
 643.250976562 1157 643.250976562 1157 711.250976562 1157 c 0,10,11
 832.250976562 1157 832.250976562 1157 892.927734375 1035 c 1,12,-1
 787.350585938 823 l 1,13,14
 769.142578125 828 769.142578125 828 764.73046875 847.5 c 128,-1,15
 760.319335938 867 760.319335938 867 752.041015625 890.5 c 128,-1,16
 743.763671875 914 743.763671875 914 721.956054688 931 c 128,-1,17
 700.1484375 948 700.1484375 948 649.1484375 948 c 0,18,19
 574.1484375 948 574.1484375 948 497.1015625 853 c 128,-1,20
 420.055664062 758 420.055664062 758 395.030273438 600 c 2,21,-1
 331.202148438 197 l 1,22,-1
 457.202148438 197 l 1,23,-1
 425.68359375 -2 l 1,24,-1
 -4.31640625 -2 l 1,0,-1
EndSplineSet
EndChar

StartChar: ordfeminine
Encoding: 170 170 470
Width: 768
VWidth: 2430
GlyphClass: 1
Flags: HW
LayerCount: 2
Fore
SplineSet
102.418945312 533 m 1,0,-1
 732.418945312 533 l 1,1,-1
 701.534179688 338 l 1,2,-1
 71.5341796875 338 l 1,3,-1
 102.418945312 533 l 1,0,-1
373.288085938 911 m 0,4,5
 365.2109375 860 365.2109375 860 380.166992188 825 c 128,-1,6
 395.124023438 790 395.124023438 790 430.124023438 790 c 0,7,8
 486.124023438 790 486.124023438 790 520.151367188 847 c 128,-1,9
 554.1796875 904 554.1796875 904 579.51171875 1045 c 1,10,11
 565.51171875 1045 565.51171875 1045 544.51171875 1045 c 0,12,13
 463.51171875 1045 463.51171875 1045 423.78515625 1012 c 128,-1,14
 384.05859375 979 384.05859375 979 373.288085938 911 c 0,4,5
360.624023438 629 m 0,15,16
 263.624023438 629 263.624023438 629 222.685546875 702 c 128,-1,17
 181.748046875 775 181.748046875 775 199.01171875 884 c 0,18,19
 224.353515625 1044 224.353515625 1044 321.9453125 1123.5 c 128,-1,20
 419.536132812 1203 419.536132812 1203 567.536132812 1203 c 0,21,22
 581.536132812 1203 581.536132812 1203 601.536132812 1203 c 1,23,24
 614.909179688 1319 614.909179688 1319 595.293945312 1353 c 128,-1,25
 575.6796875 1387 575.6796875 1387 528.6796875 1387 c 0,26,27
 486.6796875 1387 486.6796875 1387 454.224609375 1371.5 c 128,-1,28
 421.76953125 1356 421.76953125 1356 383.275390625 1315 c 1,29,-1
 311.856445312 1426 l 1,30,31
 364.250976562 1479 364.250976562 1479 428.819335938 1511 c 128,-1,32
 493.38671875 1543 493.38671875 1543 572.38671875 1543 c 0,33,34
 655.38671875 1543 655.38671875 1543 707.16015625 1510 c 128,-1,35
 758.93359375 1477 758.93359375 1477 775.099609375 1386.5 c 128,-1,36
 791.266601562 1296 791.266601562 1296 763.70703125 1122 c 2,37,-1
 688.791015625 649 l 1,38,-1
 516.791015625 649 l 1,39,-1
 528.987304688 726 l 1,40,41
 493.1171875 670 493.1171875 670 452.37109375 649.5 c 128,-1,42
 411.624023438 629 411.624023438 629 360.624023438 629 c 0,15,16
EndSplineSet
EndChar

StartChar: ordmasculine
Encoding: 186 186 471
Width: 768
VWidth: 2430
GlyphClass: 1
Flags: HW
LayerCount: 2
Fore
SplineSet
102.418945312 533 m 1,0,-1
 732.418945312 533 l 1,1,-1
 701.534179688 338 l 1,2,-1
 71.5341796875 338 l 1,3,-1
 102.418945312 533 l 1,0,-1
457.232421875 797 m 128,-1,5
 566.232421875 797 566.232421875 797 612.213867188 1081 c 0,6,7
 636.762695312 1236 636.762695312 1236 621.508789062 1307 c 128,-1,8
 606.25390625 1378 606.25390625 1378 549.25390625 1378 c 0,9,10
 498.25390625 1378 498.25390625 1378 458.008789062 1307 c 128,-1,11
 417.762695312 1236 417.762695312 1236 393.213867188 1081 c 0,12,4
 348.232421875 797 348.232421875 797 457.232421875 797 c 128,-1,5
430.940429688 631 m 128,-1,14
 307.940429688 631 307.940429688 631 245.25390625 734 c 128,-1,15
 182.567382812 837 182.567382812 837 220.896484375 1079 c 0,16,17
 260.967773438 1332 260.967773438 1332 356.177734375 1437.5 c 128,-1,18
 451.38671875 1543 451.38671875 1543 575.38671875 1543 c 0,19,20
 698.38671875 1543 698.38671875 1543 761.098632812 1437 c 128,-1,21
 823.809570312 1331 823.809570312 1331 783.896484375 1079 c 0,22,23
 745.7265625 838 745.7265625 838 649.833007812 734.5 c 128,-1,13
 553.940429688 631 553.940429688 631 430.940429688 631 c 128,-1,14
EndSplineSet
EndChar

StartChar: uni2124
Encoding: 8484 8484 473
Width: 768
VWidth: 2430
GlyphClass: 1
Flags: HW
LayerCount: 2
Fore
SplineSet
778.977539062 1351 m 1,0,-1
 685.977539062 1351 l 1,1,-1
 147.341796875 160 l 1,2,-1
 242.341796875 160 l 1,3,-1
 778.977539062 1351 l 1,0,-1
935.793945312 1514 m 1,4,-1
 909.977539062 1351 l 1,5,-1
 366.341796875 160 l 1,6,-1
 609.341796875 160 l 2,7,8
 651.341796875 160 651.341796875 160 668.395507812 163.5 c 128,-1,9
 685.450195312 167 685.450195312 167 702.984375 183 c 1,10,-1
 722.984375 183 l 1,11,-1
 694 0 l 1,12,-1
 -9 0 l 1,13,-1
 16.81640625 163 l 1,14,-1
 559.977539062 1351 l 1,15,-1
 207.977539062 1351 l 1,16,-1
 233.793945312 1514 l 1,17,-1
 935.793945312 1514 l 1,4,-1
EndSplineSet
EndChar

StartChar: zero
Encoding: 48 48 474
Width: 768
VWidth: 2430
GlyphClass: 1
Flags: HW
LayerCount: 2
Fore
SplineSet
358.2421875 172 m 0,0,1
 439.2421875 172 439.2421875 172 498.2578125 311 c 128,-1,2
 557.2734375 450 557.2734375 450 604.629882812 749 c 0,3,4
 615.716796875 819 615.716796875 819 625.219726562 879 c 1,5,-1
 258.720703125 396 l 1,6,7
 261.2421875 172 261.2421875 172 358.2421875 172 c 0,0,1
291.629882812 749 m 0,8,9
 278.80078125 668 278.80078125 668 270.505859375 603 c 1,10,-1
 639.698242188 1103 l 1,11,12
 637.701171875 1324 637.701171875 1324 540.701171875 1324 c 0,13,14
 382.701171875 1324 382.701171875 1324 291.629882812 749 c 0,8,9
326.723632812 -27 m 128,-1,16
 163.723632812 -27 163.723632812 -27 93.3662109375 157 c 128,-1,17
 23.0087890625 341 23.0087890625 341 87.6298828125 749 c 0,18,19
 151.142578125 1150 151.142578125 1150 280.577148438 1339 c 128,-1,20
 410.01171875 1528 410.01171875 1528 573.01171875 1528 c 128,-1,21
 736.01171875 1528 736.01171875 1528 806.077148438 1339 c 128,-1,22
 876.142578125 1150 876.142578125 1150 812.629882812 749 c 0,23,24
 747.534179688 338 747.534179688 338 618.62890625 155.5 c 128,-1,15
 489.723632812 -27 489.723632812 -27 326.723632812 -27 c 128,-1,16
EndSplineSet
Substitution2: "'ss02' Style Set 2 in Latin lookup 36 subtable" zero.ss02
Substitution2: "'zero' Slashed Zero in Latin lookup 33 subtable" zero.zero
Substitution2: "'frac' Diagonal Fractions in Latin lookup 24 subtable" zero.numr
Substitution2: "'dnom' Denominators in Latin lookup 22 subtable" zero.dnom
Substitution2: "'numr' Numerators in Latin lookup 21 subtable" zero.numr
Substitution2: "'sups' Superscript in Latin lookup 20 subtable" uni2070
Substitution2: "'subs' Subscript in Latin lookup 19 subtable" uni2080
AlternateSubs2: "'aalt' Access All Alternates in Latin lookup 1 subtable" zero.zero zero.ss02 uni2080 zero.dnom zero.numr uni2070
EndChar

StartChar: one
Encoding: 49 49 475
Width: 768
VWidth: 2430
GlyphClass: 1
Flags: HW
LayerCount: 2
Fore
SplineSet
249 0 m 1,0,-1
 442.229492188 1220 l 1,1,-1
 244.499023438 1127 l 1,2,-1
 231.69140625 1305 l 1,3,-1
 552.110351562 1516 l 1,4,-1
 702.110351562 1516 l 1,5,-1
 462 0 l 1,6,-1
 249 0 l 1,0,-1
EndSplineSet
Substitution2: "'frac' Diagonal Fractions in Latin lookup 24 subtable" one.numr
Substitution2: "'dnom' Denominators in Latin lookup 22 subtable" one.dnom
Substitution2: "'numr' Numerators in Latin lookup 21 subtable" one.numr
Substitution2: "'sups' Superscript in Latin lookup 20 subtable" uni00B9
Substitution2: "'subs' Subscript in Latin lookup 19 subtable" uni2081
AlternateSubs2: "'aalt' Access All Alternates in Latin lookup 1 subtable" uni2081 one.dnom one.numr uni00B9
EndChar

StartChar: two
Encoding: 50 50 476
Width: 768
VWidth: 2430
GlyphClass: 1
Flags: HW
LayerCount: 2
Fore
SplineSet
34.92578125 170 m 1,0,1
 176.166992188 342 176.166992188 342 280.598632812 471 c 128,-1,2
 385.030273438 600 385.030273438 600 457.58203125 704.5 c 128,-1,3
 530.1328125 809 530.1328125 809 571.521484375 903 c 128,-1,4
 612.909179688 997 612.909179688 997 631.588867188 1096 c 0,5,6
 632.641601562 1101.94433594 632.641601562 1101.94433594 633.560546875 1107.7421875 c 0,0,0
 649.170898438 1206.30566406 649.170898438 1206.30566406 625.959960938 1262.5 c 128,-1,7
 601.383789062 1322 601.383789062 1322 540.383789062 1322 c 0,8,9
 496.383789062 1322 496.383789062 1322 458.454101562 1303.5 c 128,-1,10
 420.524414062 1285 420.524414062 1285 382.23828125 1239 c 1,11,12
 359.853515625 1205 359.853515625 1205 353.161132812 1188 c 128,-1,13
 346.467773438 1171 346.467773438 1171 348.458984375 1152 c 1,14,-1
 335.608398438 1134 l 1,15,-1
 318.350585938 1145 l 1,16,-1
 172.020507812 1225 l 1,17,18
 247.353515625 1366 247.353515625 1366 348.182617188 1447 c 128,-1,19
 449.01171875 1528 449.01171875 1528 581.01171875 1528 c 0,20,21
 729.01171875 1528 729.01171875 1528 801.3515625 1416.5 c 128,-1,22
 873.69140625 1305 873.69140625 1305 840.272460938 1094 c 0,23,24
 815.72265625 939 815.72265625 939 745.26171875 803.5 c 128,-1,25
 674.80078125 668 674.80078125 668 566.310546875 526 c 128,-1,26
 457.819335938 384 457.819335938 384 312.310546875 204 c 1,27,-1
 594.310546875 204 l 2,28,29
 633.310546875 204 633.310546875 204 652.102539062 209 c 128,-1,30
 670.89453125 214 670.89453125 214 688.270507812 229 c 1,31,-1
 707.270507812 229 l 1,32,-1
 671 0 l 1,33,-1
 8 0 l 1,34,-1
 34.92578125 170 l 1,0,1
EndSplineSet
Substitution2: "'frac' Diagonal Fractions in Latin lookup 24 subtable" two.numr
Substitution2: "'dnom' Denominators in Latin lookup 22 subtable" two.dnom
Substitution2: "'numr' Numerators in Latin lookup 21 subtable" two.numr
Substitution2: "'sups' Superscript in Latin lookup 20 subtable" uni00B2
Substitution2: "'subs' Subscript in Latin lookup 19 subtable" uni2082
AlternateSubs2: "'aalt' Access All Alternates in Latin lookup 1 subtable" uni2082 two.dnom two.numr uni00B2
EndChar

StartChar: three
Encoding: 51 51 477
Width: 768
VWidth: 2430
GlyphClass: 1
Flags: HW
LayerCount: 2
Fore
SplineSet
304.723632812 -27 m 0,0,1
 200.723632812 -27 200.723632812 -27 122.30078125 24 c 128,-1,2
 43.87890625 75 43.87890625 75 4.1337890625 165 c 1,3,-1
 151.565429688 294 l 1,4,-1
 170.940429688 309 l 1,5,-1
 182.040039062 297 l 1,6,7
 179.34765625 280 179.34765625 280 181.155273438 263 c 128,-1,8
 182.962890625 246 182.962890625 246 200.2109375 216 c 1,9,10
 244.81640625 163 244.81640625 163 320.81640625 163 c 0,11,12
 392.81640625 163 392.81640625 163 445.032226562 227.5 c 128,-1,13
 497.248046875 292 497.248046875 292 518.313476562 425 c 0,14,15
 544.447265625 590 544.447265625 590 488.108398438 651 c 128,-1,16
 445.150390625 697.512695312 445.150390625 697.512695312 355.87109375 697.512695312 c 0,0,0
 328.0625 697.512695312 328.0625 697.512695312 295.760742188 693 c 1,17,-1
 325.6953125 882 l 1,18,19
 331.34375 881.888671875 331.34375 881.888671875 336.850585938 881.888671875 c 0,0,0
 430.455078125 881.888671875 430.455078125 881.888671875 482.763671875 914 c 128,-1,20
 538.1484375 948 538.1484375 948 564.072265625 1007.5 c 128,-1,21
 589.99609375 1067 589.99609375 1067 601.55859375 1140 c 0,22,23
 616.604492188 1235 616.604492188 1235 593.26171875 1286.5 c 128,-1,24
 569.91796875 1338 569.91796875 1338 513.91796875 1338 c 0,25,26
 423.91796875 1338 423.91796875 1338 341.337890625 1227 c 1,27,-1
 217.28515625 1334 l 1,28,29
 288.6484375 1431 288.6484375 1431 377.330078125 1479.5 c 128,-1,30
 466.01171875 1528 466.01171875 1528 556.01171875 1528 c 0,31,32
 692.01171875 1528 692.01171875 1528 765.1484375 1431 c 128,-1,33
 838.28515625 1334 838.28515625 1334 808.666992188 1147 c 0,34,35
 789.501953125 1026 789.501953125 1026 734.748046875 936 c 128,-1,36
 679.993164062 846 679.993164062 846 597.81640625 807 c 1,37,38
 673.84765625 763 673.84765625 763 713.458984375 669 c 128,-1,39
 753.071289062 575 753.071289062 575 728.205078125 418 c 0,40,41
 695.577148438 212 695.577148438 212 580.150390625 92.5 c 128,-1,42
 464.723632812 -27 464.723632812 -27 304.723632812 -27 c 0,0,1
EndSplineSet
Substitution2: "'frac' Diagonal Fractions in Latin lookup 24 subtable" three.numr
Substitution2: "'dnom' Denominators in Latin lookup 22 subtable" three.dnom
Substitution2: "'numr' Numerators in Latin lookup 21 subtable" three.numr
Substitution2: "'sups' Superscript in Latin lookup 20 subtable" uni00B3
Substitution2: "'subs' Subscript in Latin lookup 19 subtable" uni2083
AlternateSubs2: "'aalt' Access All Alternates in Latin lookup 1 subtable" uni2083 three.dnom three.numr uni00B3
EndChar

StartChar: four
Encoding: 52 52 478
Width: 768
VWidth: 2430
GlyphClass: 1
Flags: HW
LayerCount: 2
Fore
SplineSet
277.061523438 556 m 1,0,-1
 492.061523438 556 l 1,1,-1
 566.34375 1025 l 1,2,-1
 277.061523438 556 l 1,0,-1
401 0 m 1,3,-1
 457.2265625 355 l 1,4,-1
 42.2265625 355 l 1,5,-1
 69.78515625 529 l 1,6,-1
 692.110351562 1516 l 1,7,-1
 849.110351562 1516 l 1,8,-1
 697.061523438 556 l 1,9,-1
 810.061523438 556 l 1,10,-1
 777.750976562 352 l 1,11,-1
 664.750976562 352 l 1,12,-1
 609 0 l 1,13,-1
 401 0 l 1,3,-1
EndSplineSet
Substitution2: "'frac' Diagonal Fractions in Latin lookup 24 subtable" four.numr
Substitution2: "'dnom' Denominators in Latin lookup 22 subtable" four.dnom
Substitution2: "'numr' Numerators in Latin lookup 21 subtable" four.numr
Substitution2: "'sups' Superscript in Latin lookup 20 subtable" uni2074
Substitution2: "'subs' Subscript in Latin lookup 19 subtable" uni2084
AlternateSubs2: "'aalt' Access All Alternates in Latin lookup 1 subtable" uni2084 four.dnom four.numr uni2074
EndChar

StartChar: five
Encoding: 53 53 479
Width: 768
VWidth: 2430
GlyphClass: 1
Flags: HW
LayerCount: 2
Fore
SplineSet
328.723632812 -27 m 0,0,1
 216.723632812 -27 216.723632812 -27 135.934570312 28 c 128,-1,2
 55.1455078125 83 55.1455078125 83 21.310546875 204 c 1,3,-1
 191.57421875 313 l 1,4,-1
 210.474609375 325 l 1,5,-1
 217.2578125 311 l 1,6,7
 212.565429688 294 212.565429688 294 213.53125 278 c 128,-1,8
 214.497070312 262 214.497070312 262 229.586914062 231 c 1,9,10
 271.400390625 173 271.400390625 173 351.2421875 172 c 0,11,12
 423.2421875 172 423.2421875 172 478.284179688 257.5 c 128,-1,13
 533.326171875 343 533.326171875 343 555.340820312 482 c 0,14,15
 580.366210938 640 580.366210938 640 555.090820312 723.5 c 128,-1,16
 529.81640625 807 529.81640625 807 455.81640625 807 c 0,17,18
 360.81640625 807 360.81640625 807 281.552734375 698 c 1,19,-1
 153.461914062 729 l 1,20,-1
 310.793945312 1514 l 1,21,-1
 874.793945312 1514 l 1,22,-1
 842.80078125 1312 l 1,23,-1
 468.80078125 1312 l 1,24,-1
 396.040039062 941 l 1,25,26
 465.909179688 997 465.909179688 997 554.909179688 997 c 0,27,28
 688.909179688 997 688.909179688 997 747.374023438 870.5 c 128,-1,29
 805.837890625 744 805.837890625 744 764.974609375 486 c 0,30,31
 725.37890625 236 725.37890625 236 607.05078125 104.5 c 128,-1,32
 488.723632812 -27 488.723632812 -27 328.723632812 -27 c 0,0,1
EndSplineSet
Substitution2: "'frac' Diagonal Fractions in Latin lookup 24 subtable" five.numr
Substitution2: "'dnom' Denominators in Latin lookup 22 subtable" five.dnom
Substitution2: "'numr' Numerators in Latin lookup 21 subtable" five.numr
Substitution2: "'sups' Superscript in Latin lookup 20 subtable" uni2075
Substitution2: "'subs' Subscript in Latin lookup 19 subtable" uni2085
AlternateSubs2: "'aalt' Access All Alternates in Latin lookup 1 subtable" uni2085 five.dnom five.numr uni2075
EndChar

StartChar: six
Encoding: 54 54 480
Width: 768
VWidth: 2430
GlyphClass: 1
Flags: HW
LayerCount: 2
Fore
SplineSet
381.192382812 178 m 0,0,1
 434.192382812 178 434.192382812 178 479.9921875 252.5 c 128,-1,2
 525.791992188 327 525.791992188 327 551.450195312 489 c 0,3,4
 575.682617188 642 575.682617188 642 551.76953125 712 c 128,-1,5
 527.856445312 782 527.856445312 782 476.856445312 782 c 0,6,7
 427.856445312 782 427.856445312 782 388.416992188 744.5 c 128,-1,8
 348.977539062 707 348.977539062 707 314 644 c 1,9,10
 306.266601562 605.612304688 306.266601562 605.612304688 300.616210938 569.940429688 c 0,0,0
 275.505859375 411.3984375 275.505859375 411.3984375 291.544921875 306.5 c 128,-1,11
 311.192382812 178 311.192382812 178 381.192382812 178 c 0,0,1
347.19921875 -24 m 0,12,13
 175.19921875 -24 175.19921875 -24 112.208007812 156 c 128,-1,14
 49.216796875 336 49.216796875 336 105.760742188 693 c 0,15,16
 173.07421875 1118 173.07421875 1118 315.438476562 1325.5 c 128,-1,17
 457.803710938 1533 457.803710938 1533 644.803710938 1533 c 0,18,19
 722.803710938 1533 722.803710938 1533 786.705078125 1494.5 c 128,-1,20
 850.607421875 1456 850.607421875 1456 885.25390625 1378 c 1,21,-1
 751.654296875 1229 l 1,22,-1
 738.120117188 1213 l 1,23,-1
 723.545898438 1222 l 1,24,25
 724.23828125 1239 724.23828125 1239 720.930664062 1256 c 128,-1,26
 717.623046875 1273 717.623046875 1273 700.583007812 1298 c 1,27,28
 669.375 1327.03222656 669.375 1327.03222656 624.203125 1327.03222656 c 0,0,0
 622.697265625 1327.03222656 622.697265625 1327.03222656 621.17578125 1327 c 0,29,30
 579.17578125 1327 579.17578125 1327 529.44921875 1294 c 128,-1,31
 479.72265625 1261 479.72265625 1261 432.017578125 1165 c 128,-1,32
 384.3125 1069 384.3125 1069 346.219726562 879 c 1,33,34
 434.692382812 983 434.692382812 983 552.850585938 984 c 0,35,36
 673.850585938 984 673.850585938 984 733.290039062 860.5 c 128,-1,37
 792.729492188 737 792.729492188 737 753.450195312 489 c 0,38,39
 716.387695312 255 716.387695312 255 608.29296875 115.5 c 128,-1,40
 500.19921875 -24 500.19921875 -24 347.19921875 -24 c 0,12,13
EndSplineSet
Substitution2: "'frac' Diagonal Fractions in Latin lookup 24 subtable" six.numr
Substitution2: "'dnom' Denominators in Latin lookup 22 subtable" six.dnom
Substitution2: "'numr' Numerators in Latin lookup 21 subtable" six.numr
Substitution2: "'sups' Superscript in Latin lookup 20 subtable" uni2076
Substitution2: "'subs' Subscript in Latin lookup 19 subtable" uni2086
AlternateSubs2: "'aalt' Access All Alternates in Latin lookup 1 subtable" uni2086 six.dnom six.numr uni2076
EndChar

StartChar: seven
Encoding: 55 55 481
Width: 768
VWidth: 2430
GlyphClass: 1
Flags: HW
LayerCount: 2
Fore
SplineSet
110 0 m 1,0,1
 239.326171875 343 239.326171875 343 360.034179688 660 c 128,-1,2
 480.741210938 977 480.741210938 977 623.166992188 1308 c 1,3,-1
 225.166992188 1308 l 1,4,-1
 257.793945312 1514 l 1,5,-1
 901.793945312 1514 l 1,6,-1
 879.778320312 1375 l 1,7,8
 725.135742188 1030 725.135742188 1030 595.735351562 696 c 128,-1,9
 466.334960938 362 466.334960938 362 336 0 c 1,10,-1
 110 0 l 1,0,1
EndSplineSet
Substitution2: "'frac' Diagonal Fractions in Latin lookup 24 subtable" seven.numr
Substitution2: "'dnom' Denominators in Latin lookup 22 subtable" seven.dnom
Substitution2: "'numr' Numerators in Latin lookup 21 subtable" seven.numr
Substitution2: "'sups' Superscript in Latin lookup 20 subtable" uni2077
Substitution2: "'subs' Subscript in Latin lookup 19 subtable" uni2087
AlternateSubs2: "'aalt' Access All Alternates in Latin lookup 1 subtable" uni2087 seven.dnom seven.numr uni2077
EndChar

StartChar: eight
Encoding: 56 56 482
Width: 768
VWidth: 2430
GlyphClass: 1
Flags: HW
LayerCount: 2
Fore
SplineSet
361.192382812 178 m 0,0,1
 502.192382812 178 502.192382812 178 537.51171875 401 c 0,2,3
 554.776367188 510 554.776367188 510 525.337890625 583 c 128,-1,4
 495.900390625 656 495.900390625 656 427.869140625 700 c 1,5,6
 363.216796875 658 363.216796875 658 317.892578125 586.5 c 128,-1,7
 272.568359375 515 272.568359375 515 255.62109375 408 c 0,8,9
 237.248046875 292 237.248046875 292 268.720703125 235 c 128,-1,10
 300.192382812 178 300.192382812 178 361.192382812 178 c 0,0,1
502.387695312 899 m 1,11,12
 555.040039062 941 555.040039062 941 587.28515625 1012 c 128,-1,13
 619.530273438 1083 619.530273438 1083 631.567382812 1159 c 0,14,15
 643.921875 1237 643.921875 1237 622.603515625 1285.5 c 128,-1,16
 601.28515625 1334 601.28515625 1334 547.28515625 1334 c 0,17,18
 494.28515625 1334 494.28515625 1334 460.76171875 1286.5 c 128,-1,19
 427.23828125 1239 427.23828125 1239 415.67578125 1166 c 0,20,21
 399.837890625 1066 399.837890625 1066 424.255859375 1005.5 c 128,-1,22
 448.672851562 945 448.672851562 945 502.387695312 899 c 1,11,12
327.19921875 -24 m 0,23,24
 167.19921875 -24 167.19921875 -24 91.5966796875 89 c 128,-1,25
 15.994140625 202 15.994140625 202 44.8193359375 384 c 0,26,27
 68.2607421875 532 68.2607421875 532 137.9453125 640.5 c 128,-1,28
 207.629882812 749 207.629882812 749 308.924804688 814 c 1,29,30
 180.08984375 935 180.08984375 935 215.250976562 1157 c 0,31,32
 241.701171875 1324 241.701171875 1324 342.41015625 1429.5 c 128,-1,33
 443.120117188 1535 443.120117188 1535 584.120117188 1535 c 0,34,35
 732.120117188 1535 732.120117188 1535 793.96484375 1433 c 128,-1,36
 855.809570312 1331 855.809570312 1331 830.467773438 1171 c 0,37,38
 812.412109375 1057 812.412109375 1057 762.548828125 960 c 128,-1,39
 712.685546875 863 712.685546875 863 633.024414062 802 c 1,40,41
 786.1171875 670 786.1171875 670 743.403320312 394 c 0,42,43
 712.994140625 202 712.994140625 202 601.596679688 89 c 128,-1,44
 490.19921875 -24 490.19921875 -24 327.19921875 -24 c 0,23,24
EndSplineSet
Substitution2: "'frac' Diagonal Fractions in Latin lookup 24 subtable" eight.numr
Substitution2: "'dnom' Denominators in Latin lookup 22 subtable" eight.dnom
Substitution2: "'numr' Numerators in Latin lookup 21 subtable" eight.numr
Substitution2: "'sups' Superscript in Latin lookup 20 subtable" uni2078
Substitution2: "'subs' Subscript in Latin lookup 19 subtable" uni2088
AlternateSubs2: "'aalt' Access All Alternates in Latin lookup 1 subtable" uni2088 eight.dnom eight.numr uni2078
EndChar

StartChar: nine
Encoding: 57 57 483
Width: 768
VWidth: 2430
GlyphClass: 1
Flags: HW
LayerCount: 2
Fore
SplineSet
355.34375 1025 m 0,0,1
 333.329101562 886 333.329101562 886 362.2421875 816 c 128,-1,2
 391.155273438 746 391.155273438 746 454.155273438 746 c 0,3,4
 542.155273438 746 542.155273438 746 599.024414062 802 c 1,5,6
 631.334960938 1006 631.334960938 1006 633.890625 1120 c 128,-1,7
 636.446289062 1234 636.446289062 1234 611.969726562 1281.5 c 128,-1,8
 587.493164062 1329 587.493164062 1329 538.493164062 1329 c 0,9,10
 475.493164062 1329 475.493164062 1329 428.088867188 1257 c 128,-1,11
 380.685546875 1185 380.685546875 1185 355.34375 1025 c 0,0,1
286.19921875 -24 m 0,12,13
 99.19921875 -24 99.19921875 -24 14.84765625 119 c 1,14,-1
 144.713867188 276 l 1,15,-1
 162.040039062 297 l 1,16,-1
 174.931640625 290 l 1,17,18
 176.921875 271 176.921875 271 180.4921875 252.5 c 128,-1,19
 184.061523438 234 184.061523438 234 203.626953125 206 c 1,20,21
 244.55859375 174 244.55859375 174 302.55859375 174 c 0,22,23
 390.55859375 174 390.55859375 174 454.881835938 296 c 128,-1,24
 519.205078125 418 519.205078125 418 560.030273438 600 c 1,25,26
 490.953125 549 490.953125 549 405.953125 549 c 0,27,28
 269.953125 549 269.953125 549 193.592773438 673 c 128,-1,29
 117.232421875 797 117.232421875 797 153.819335938 1028 c 0,30,31
 192.306640625 1271 192.306640625 1271 311.159179688 1399.5 c 128,-1,32
 430.01171875 1528 430.01171875 1528 570.01171875 1528 c 0,33,34
 748.01171875 1528 748.01171875 1528 804.377929688 1363 c 128,-1,35
 860.744140625 1198 860.744140625 1198 807.685546875 863 c 0,36,37
 734.1953125 399 734.1953125 399 605.35546875 188.5 c 128,-1,38
 476.515625 -22 476.515625 -22 286.19921875 -24 c 0,12,13
EndSplineSet
Substitution2: "'frac' Diagonal Fractions in Latin lookup 24 subtable" nine.numr
Substitution2: "'dnom' Denominators in Latin lookup 22 subtable" nine.dnom
Substitution2: "'numr' Numerators in Latin lookup 21 subtable" nine.numr
Substitution2: "'sups' Superscript in Latin lookup 20 subtable" uni2079
Substitution2: "'subs' Subscript in Latin lookup 19 subtable" uni2089
AlternateSubs2: "'aalt' Access All Alternates in Latin lookup 1 subtable" uni2089 nine.dnom nine.numr uni2079
EndChar

StartChar: zero.zero
Encoding: 65541 -1 484
Width: 768
VWidth: 2430
GlyphClass: 1
Flags: HW
LayerCount: 2
Fore
SplineSet
434.583007812 654 m 128,-1,1
 388.583007812 654 388.583007812 654 360.73046875 686.5 c 128,-1,2
 332.877929688 719 332.877929688 719 340.639648438 768 c 0,3,4
 347.924804688 814 347.924804688 814 386.309570312 848 c 128,-1,5
 424.6953125 882 424.6953125 882 470.6953125 882 c 128,-1,6
 516.6953125 882 516.6953125 882 544.809570312 848 c 128,-1,7
 572.924804688 814 572.924804688 814 565.639648438 768 c 128,-1,8
 558.353515625 722 558.353515625 722 519.46875 688 c 128,-1,0
 480.583007812 654 480.583007812 654 434.583007812 654 c 128,-1,1
358.2421875 172 m 0,9,10
 439.2421875 172 439.2421875 172 498.2578125 311 c 128,-1,11
 557.2734375 450 557.2734375 450 604.629882812 749 c 0,12,13
 695.701171875 1324 695.701171875 1324 540.701171875 1324 c 0,14,15
 382.701171875 1324 382.701171875 1324 291.629882812 749 c 0,16,17
 244.2734375 450 244.2734375 450 263.7578125 311 c 128,-1,18
 283.2421875 172 283.2421875 172 358.2421875 172 c 0,9,10
326.723632812 -27 m 128,-1,20
 163.723632812 -27 163.723632812 -27 93.3662109375 157 c 128,-1,21
 23.0087890625 341 23.0087890625 341 87.6298828125 749 c 0,22,23
 151.142578125 1150 151.142578125 1150 280.577148438 1339 c 128,-1,24
 410.01171875 1528 410.01171875 1528 573.01171875 1528 c 128,-1,25
 736.01171875 1528 736.01171875 1528 806.077148438 1339 c 128,-1,26
 876.142578125 1150 876.142578125 1150 812.629882812 749 c 0,27,28
 747.534179688 338 747.534179688 338 618.62890625 155.5 c 128,-1,19
 489.723632812 -27 489.723632812 -27 326.723632812 -27 c 128,-1,20
EndSplineSet
EndChar

StartChar: zero.ss02
Encoding: 65542 -1 485
Width: 768
VWidth: 2430
GlyphClass: 1
Flags: HW
LayerCount: 2
Fore
SplineSet
358.2421875 172 m 0,0,1
 439.2421875 172 439.2421875 172 498.2578125 311 c 128,-1,2
 557.2734375 450 557.2734375 450 604.629882812 749 c 0,3,4
 695.701171875 1324 695.701171875 1324 540.701171875 1324 c 0,5,6
 382.701171875 1324 382.701171875 1324 291.629882812 749 c 0,7,8
 244.2734375 450 244.2734375 450 263.7578125 311 c 128,-1,9
 283.2421875 172 283.2421875 172 358.2421875 172 c 0,0,1
326.723632812 -27 m 128,-1,11
 163.723632812 -27 163.723632812 -27 93.3662109375 157 c 128,-1,12
 23.0087890625 341 23.0087890625 341 87.6298828125 749 c 0,13,14
 151.142578125 1150 151.142578125 1150 280.577148438 1339 c 128,-1,15
 410.01171875 1528 410.01171875 1528 573.01171875 1528 c 128,-1,16
 736.01171875 1528 736.01171875 1528 806.077148438 1339 c 128,-1,17
 876.142578125 1150 876.142578125 1150 812.629882812 749 c 0,18,19
 747.534179688 338 747.534179688 338 618.62890625 155.5 c 128,-1,10
 489.723632812 -27 489.723632812 -27 326.723632812 -27 c 128,-1,11
EndSplineSet
EndChar

StartChar: uni2070
Encoding: 8304 8304 516
Width: 768
VWidth: 2430
GlyphClass: 1
Flags: HW
LayerCount: 2
Fore
SplineSet
444.877929688 719 m 0,0,1
 500.877929688 719 500.877929688 719 537.9453125 801.5 c 128,-1,2
 575.01171875 884 575.01171875 884 603.204101562 1062 c 0,3,4
 609.380859375 1101 609.380859375 1101 614.608398438 1134 c 1,5,-1
 376.309570312 848 l 1,6,7
 379.877929688 719 379.877929688 719 444.877929688 719 c 0,0,1
394.204101562 1062 m 0,8,9
 387.551757812 1020 387.551757812 1020 382.166992188 986 c 1,10,-1
 624.20703125 1283 l 1,11,12
 616.372070312 1404 616.372070312 1404 553.530273438 1405 c 0,13,14
 448.530273438 1405 448.530273438 1405 394.204101562 1062 c 0,8,9
422.86328125 580 m 128,-1,16
 310.86328125 580 310.86328125 580 259.498046875 694.5 c 128,-1,17
 208.1328125 809 208.1328125 809 248.204101562 1062 c 0,18,19
 287.80078125 1312 287.80078125 1312 375.831054688 1429 c 128,-1,20
 463.862304688 1546 463.862304688 1546 575.862304688 1546 c 128,-1,21
 687.862304688 1546 687.862304688 1546 738.331054688 1429 c 128,-1,22
 788.80078125 1312 788.80078125 1312 749.204101562 1062 c 0,23,24
 708.81640625 807 708.81640625 807 621.83984375 693.5 c 128,-1,15
 534.86328125 580 534.86328125 580 422.86328125 580 c 128,-1,16
EndSplineSet
Substitution2: "'ss02' Style Set 2 in Latin lookup 36 subtable" uni2070.ss02
Substitution2: "'zero' Slashed Zero in Latin lookup 33 subtable" uni2070.zero
AlternateSubs2: "'aalt' Access All Alternates in Latin lookup 1 subtable" uni2070.ss02 uni2070.zero
EndChar

StartChar: uni00B9
Encoding: 185 185 517
Width: 768
VWidth: 2430
GlyphClass: 1
Flags: HW
LayerCount: 2
Fore
SplineSet
364.713867188 598 m 1,0,-1
 481.91796875 1338 l 1,1,-1
 354.415039062 1278 l 1,2,-1
 342.846679688 1407 l 1,3,-1
 557.595703125 1538 l 1,4,-1
 669.595703125 1538 l 1,5,-1
 520.713867188 598 l 1,6,-1
 364.713867188 598 l 1,0,-1
EndSplineSet
EndChar

StartChar: uni00B2
Encoding: 178 178 518
Width: 768
VWidth: 2430
GlyphClass: 1
Flags: HW
LayerCount: 2
Fore
SplineSet
217.76953125 712 m 1,0,1
 347.893554688 858 347.893554688 858 429.940429688 953 c 128,-1,2
 511.987304688 1048 511.987304688 1048 556.20703125 1122 c 128,-1,3
 600.427734375 1196 600.427734375 1196 616.415039062 1278 c 0,4,5
 624.809570312 1331 624.809570312 1331 609.51171875 1367 c 128,-1,6
 594.212890625 1403 594.212890625 1403 550.212890625 1403 c 0,7,8
 508.212890625 1403 508.212890625 1403 482.362304688 1385 c 1,9,10
 453.293945312 1353 453.293945312 1353 444.1015625 1336 c 128,-1,11
 434.909179688 1319 434.909179688 1319 431.899414062 1300 c 1,12,-1
 418.524414062 1285 l 1,13,-1
 403.899414062 1300 l 1,14,-1
 301.561523438 1361 l 1,15,16
 354.499023438 1449 354.499023438 1449 421.680664062 1497.5 c 128,-1,17
 488.862304688 1546 488.862304688 1546 580.862304688 1546 c 0,18,19
 680.862304688 1546 680.862304688 1546 732.854492188 1476.5 c 128,-1,20
 784.846679688 1407 784.846679688 1407 764.098632812 1276 c 0,21,22
 749.051757812 1181 749.051757812 1181 707.540039062 1102 c 128,-1,23
 666.02734375 1023 666.02734375 1023 596.564453125 938 c 128,-1,24
 527.1015625 853 527.1015625 853 431.521484375 742 c 1,25,-1
 575.521484375 742 l 2,26,27
 614.521484375 742 614.521484375 742 633.234375 746.5 c 128,-1,28
 651.946289062 751 651.946289062 751 668.84765625 763 c 1,29,-1
 687.84765625 763 l 1,30,-1
 661.713867188 598 l 1,31,-1
 199.713867188 598 l 1,32,-1
 217.76953125 712 l 1,0,1
EndSplineSet
EndChar

StartChar: uni00B3
Encoding: 179 179 519
Width: 768
VWidth: 2430
GlyphClass: 1
Flags: HW
LayerCount: 2
Fore
SplineSet
405.86328125 580 m 0,0,1
 254.86328125 580 254.86328125 580 196.869140625 700 c 1,2,-1
 298.124023438 790 l 1,3,-1
 318.81640625 807 l 1,4,-1
 328.916015625 795 l 1,5,6
 325.90625 776 325.90625 776 331.768554688 762.5 c 128,-1,7
 337.629882812 749 337.629882812 749 361.669921875 724 c 1,8,9
 387.245117188 715 387.245117188 715 418.086914062 714 c 0,10,11
 467.086914062 714 467.086914062 714 500.288085938 750 c 128,-1,12
 533.490234375 786 533.490234375 786 545.685546875 863 c 0,13,14
 561.524414062 963 561.524414062 963 522.830078125 996.5 c 0,15,16
 494.340820312 1021.16503906 494.340820312 1021.16503906 435.92578125 1021.16503906 c 0,17,18
 415 1021.16503906 415 1021.16503906 390.235351562 1018 c 1,19,-1
 411.458984375 1152 l 1,20,21
 416.081054688 1151.90917969 416.081054688 1151.90917969 420.567382812 1151.90917969 c 0,22,23
 514.78515625 1151.90917969 514.78515625 1151.90917969 549.293945312 1192 c 0,24,25
 585.446289062 1234 585.446289062 1234 595.899414062 1300 c 0,26,27
 604.293945312 1353 604.293945312 1353 588.625 1383.5 c 128,-1,28
 572.956054688 1414 572.956054688 1414 532.956054688 1414 c 0,29,30
 469.956054688 1414 469.956054688 1414 416.34375 1347 c 1,31,-1
 328.856445312 1426 l 1,32,33
 377.517578125 1487 377.517578125 1487 439.190429688 1516.5 c 128,-1,34
 500.862304688 1546 500.862304688 1546 561.862304688 1546 c 0,35,36
 656.862304688 1546 656.862304688 1546 709.859375 1486 c 128,-1,37
 762.856445312 1426 762.856445312 1426 744.483398438 1310 c 0,38,39
 732.129882812 1232 732.129882812 1232 695.418945312 1177 c 128,-1,40
 658.70703125 1122 658.70703125 1122 607.064453125 1099 c 1,41,42
 655.788085938 1072 655.788085938 1072 683.522460938 1013.5 c 128,-1,43
 711.256835938 955 711.256835938 955 695.893554688 858 c 0,44,45
 674.987304688 726 674.987304688 726 596.424804688 653 c 128,-1,46
 517.86328125 580 517.86328125 580 405.86328125 580 c 0,0,1
EndSplineSet
EndChar

StartChar: uni2074
Encoding: 8308 8308 520
Width: 768
VWidth: 2430
GlyphClass: 1
Flags: HW
LayerCount: 2
Fore
SplineSet
389.940429688 953 m 1,0,-1
 525.940429688 953 l 1,1,-1
 567.120117188 1213 l 1,2,-1
 389.940429688 953 l 1,0,-1
466.713867188 598 m 1,3,-1
 500.608398438 812 l 1,4,-1
 219.608398438 812 l 1,5,-1
 238.772460938 933 l 1,6,-1
 652.595703125 1538 l 1,7,-1
 764.595703125 1538 l 1,8,-1
 672.256835938 955 l 1,9,-1
 752.256835938 955 l 1,10,-1
 729.608398438 812 l 1,11,-1
 649.608398438 812 l 1,12,-1
 615.713867188 598 l 1,13,-1
 466.713867188 598 l 1,3,-1
EndSplineSet
EndChar

StartChar: uni2075
Encoding: 8309 8309 521
Width: 768
VWidth: 2430
GlyphClass: 1
Flags: HW
LayerCount: 2
Fore
SplineSet
424.86328125 580 m 0,0,1
 346.86328125 580 346.86328125 580 290.327148438 614.5 c 128,-1,2
 233.791015625 649 233.791015625 649 210.987304688 726 c 1,3,-1
 330.340820312 804 l 1,4,-1
 348.2421875 816 l 1,5,-1
 356.024414062 802 l 1,6,7
 351.33203125 785 351.33203125 785 357.693359375 771.5 c 128,-1,8
 364.055664062 758 364.055664062 758 383.779296875 731 c 1,9,10
 409.353515625 722 409.353515625 722 438.1953125 721 c 0,11,12
 489.1953125 721 489.1953125 721 523.456054688 770 c 128,-1,13
 557.716796875 819 557.716796875 819 570.071289062 897 c 0,14,15
 600.005859375 1086.00488281 600.005859375 1086.00488281 501.05078125 1086.00488281 c 0,16,17
 500.530273438 1086.00488281 500.530273438 1086.00488281 500.005859375 1086 c 0,18,19
 437.005859375 1086 437.005859375 1086 388.02734375 1023 c 1,20,-1
 292.51171875 1045 l 1,21,-1
 395.120117188 1535 l 1,22,-1
 784.120117188 1535 l 1,23,-1
 762.421875 1398 l 1,24,-1
 509.421875 1398 l 1,25,-1
 464.369140625 1183 l 1,26,27
 512.229492188 1220 512.229492188 1220 572.229492188 1220 c 0,28,29
 662.229492188 1220 662.229492188 1220 704.875 1142 c 128,-1,30
 747.521484375 1064 747.521484375 1064 721.862304688 902 c 0,31,32
 697.313476562 747 697.313476562 747 617.087890625 663.5 c 128,-1,33
 536.86328125 580 536.86328125 580 424.86328125 580 c 0,0,1
EndSplineSet
EndChar

StartChar: uni2076
Encoding: 8310 8310 522
Width: 768
VWidth: 2430
GlyphClass: 1
Flags: HW
LayerCount: 2
Fore
SplineSet
460.669921875 724 m 0,0,1
 497.669921875 724 497.669921875 724 525.901367188 766.5 c 128,-1,2
 554.1328125 809 554.1328125 809 568.862304688 902 c 0,3,4
 583.1171875 992 583.1171875 992 565.874023438 1031.5 c 128,-1,5
 548.629882812 1071 548.629882812 1071 515.629882812 1071 c 0,6,7
 483.629882812 1071 483.629882812 1071 458.3828125 1050.5 c 128,-1,8
 433.135742188 1030 433.135742188 1030 411.909179688 997 c 1,9,10
 407.662109375 975.360351562 407.662109375 975.360351562 404.4921875 955.34765625 c 0,11,12
 388.326171875 853.278320312 388.326171875 853.278320312 400.177734375 793.5 c 0,13,14
 413.967773438 723.9453125 413.967773438 723.9453125 458.173828125 723.9453125 c 0,15,16
 459.41015625 723.9453125 459.41015625 723.9453125 460.669921875 724 c 0,0,1
436.49609375 584 m 0,17,18
 190.49609375 584 190.49609375 584 260.34375 1025 c 0,19,20
 302.31640625 1290 302.31640625 1290 399.485351562 1420.5 c 128,-1,21
 496.654296875 1551 496.654296875 1551 622.654296875 1551 c 0,22,23
 675.654296875 1551 675.654296875 1551 721.7734375 1526.5 c 128,-1,24
 767.893554688 1502 767.893554688 1502 796.815429688 1451 c 1,25,-1
 699.977539062 1351 l 1,26,-1
 685.28515625 1334 l 1,27,-1
 672.869140625 1344 l 1,28,29
 673.877929688 1363 673.877929688 1363 665.8828125 1372.5 c 128,-1,30
 657.887695312 1382 657.887695312 1382 631.530273438 1405 c 0,31,32
 626.530273438 1405 626.530273438 1405 620.530273438 1405 c 128,-1,33
 614.530273438 1405 614.530273438 1405 610.530273438 1405 c 0,34,35
 583.530273438 1405 583.530273438 1405 550.099609375 1386.5 c 128,-1,36
 516.669921875 1368 516.669921875 1368 485.879882812 1312.5 c 128,-1,37
 455.088867188 1257 455.088867188 1257 433.142578125 1150 c 1,38,39
 487.90625 1210.01660156 487.90625 1210.01660156 564.139648438 1210.01660156 c 0,40,41
 565.389648438 1210.01660156 565.389648438 1210.01660156 566.645507812 1210 c 0,42,43
 654.645507812 1210 654.645507812 1210 695.924804688 1136 c 128,-1,44
 737.204101562 1062 737.204101562 1062 712.1796875 904 c 0,45,46
 689.055664062 758 689.055664062 758 616.276367188 671 c 128,-1,47
 543.49609375 584 543.49609375 584 436.49609375 584 c 0,17,18
EndSplineSet
EndChar

StartChar: uni2077
Encoding: 8311 8311 523
Width: 768
VWidth: 2430
GlyphClass: 1
Flags: HW
LayerCount: 2
Fore
SplineSet
269.713867188 598 m 1,0,1
 353.81640625 807 353.81640625 807 433.225585938 999 c 128,-1,2
 512.635742188 1191 512.635742188 1191 603.99609375 1389 c 1,3,-1
 331.99609375 1389 l 1,4,-1
 355.120117188 1535 l 1,5,-1
 803.120117188 1535 l 1,6,-1
 787.440429688 1436 l 1,7,8
 689.020507812 1225 689.020507812 1225 603.52734375 1023 c 128,-1,9
 518.033203125 821 518.033203125 821 430.713867188 598 c 1,10,-1
 269.713867188 598 l 1,0,1
EndSplineSet
EndChar

StartChar: uni2078
Encoding: 8312 8312 524
Width: 768
VWidth: 2430
GlyphClass: 1
Flags: HW
LayerCount: 2
Fore
SplineSet
447.669921875 724 m 0,0,1
 493.669921875 724 493.669921875 724 521.763671875 753 c 128,-1,2
 549.856445312 782 549.856445312 782 560.309570312 848 c 0,3,4
 570.60546875 913 570.60546875 913 548.415039062 956 c 128,-1,5
 526.225585938 999 526.225585938 999 479.02734375 1023 c 1,6,7
 438.225585938 999 438.225585938 999 411.153320312 957.5 c 128,-1,8
 384.080078125 916 384.080078125 916 374.1015625 853 c 0,9,10
 363.33203125 785 363.33203125 785 384.500976562 754.5 c 128,-1,11
 405.669921875 724 405.669921875 724 447.669921875 724 c 0,0,1
536.567382812 1159 m 1,12,13
 569.893554688 1180 569.893554688 1180 589.862304688 1224 c 128,-1,14
 609.831054688 1268 609.831054688 1268 616.80078125 1312 c 128,-1,15
 623.76953125 1356 623.76953125 1356 608.545898438 1383 c 128,-1,16
 593.322265625 1410 593.322265625 1410 556.322265625 1410 c 0,17,18
 522.322265625 1410 522.322265625 1410 501.545898438 1383 c 128,-1,19
 480.76953125 1356 480.76953125 1356 474.592773438 1317 c 0,20,21
 465.40625 1259 465.40625 1259 481.887695312 1221 c 128,-1,22
 498.369140625 1183 498.369140625 1183 536.567382812 1159 c 1,12,13
423.49609375 584 m 128,-1,24
 311.49609375 584 311.49609375 584 257.345703125 652.5 c 128,-1,25
 203.1953125 721 203.1953125 721 221.567382812 837 c 0,26,27
 236.614257812 932 236.614257812 932 281.909179688 997 c 128,-1,28
 327.204101562 1062 327.204101562 1062 393.698242188 1103 c 1,29,30
 311.051757812 1181 311.051757812 1181 331.80078125 1312 c 0,31,32
 348.272460938 1416 348.272460938 1416 417.962890625 1483.5 c 128,-1,33
 487.654296875 1551 487.654296875 1551 584.654296875 1551 c 0,34,35
 684.654296875 1551 684.654296875 1551 729.859375 1486 c 128,-1,36
 775.064453125 1421 775.064453125 1421 759.383789062 1322 c 0,37,38
 747.98046875 1250 747.98046875 1250 716.635742188 1191 c 128,-1,39
 685.291015625 1132 685.291015625 1132 635.272460938 1094 c 1,40,41
 734.443359375 1013 734.443359375 1013 707.676757812 844 c 0,42,43
 688.829101562 725 688.829101562 725 612.163085938 654.5 c 128,-1,23
 535.49609375 584 535.49609375 584 423.49609375 584 c 128,-1,24
EndSplineSet
EndChar

StartChar: uni2079
Encoding: 8313 8313 525
Width: 768
VWidth: 2430
GlyphClass: 1
Flags: HW
LayerCount: 2
Fore
SplineSet
433.654296875 1229 m 0,0,1
 408.3125 1069 408.3125 1069 502.3125 1069 c 0,2,3
 560.3125 1069 560.3125 1069 595.380859375 1101 c 1,4,5
 624.365234375 1284 624.365234375 1284 612.106445312 1345.5 c 128,-1,6
 599.846679688 1407 599.846679688 1407 550.846679688 1407 c 0,7,8
 508.846679688 1407 508.846679688 1407 478.774414062 1365.5 c 128,-1,9
 448.701171875 1324 448.701171875 1324 433.654296875 1229 c 0,0,1
394.49609375 584 m 0,10,11
 260.49609375 584 260.49609375 584 202.592773438 673 c 1,12,-1
 297.490234375 786 l 1,13,-1
 315.340820312 804 l 1,14,-1
 328.598632812 793 l 1,15,16
 327.58984375 774 327.58984375 774 336.109375 761.5 c 128,-1,17
 344.629882812 749 344.629882812 749 370.987304688 726 c 1,18,19
 387.1953125 721 387.1953125 721 407.1953125 721 c 0,20,21
 460.1953125 721 460.1953125 721 501.1484375 787 c 128,-1,22
 542.1015625 853 542.1015625 853 568.366210938 962 c 1,23,24
 524.297851562 930 524.297851562 930 466.297851562 930 c 0,25,26
 373.297851562 930 373.297851562 930 320.4140625 1006.5 c 128,-1,27
 267.530273438 1083 267.530273438 1083 291.129882812 1232 c 0,28,29
 315.362304688 1385 315.362304688 1385 395.612304688 1465.5 c 128,-1,30
 475.862304688 1546 475.862304688 1546 575.862304688 1546 c 0,31,32
 696.862304688 1546 696.862304688 1546 738.127929688 1443.5 c 128,-1,33
 779.393554688 1341 779.393554688 1341 745.499023438 1127 c 0,34,35
 700.359375 842 700.359375 842 613.427734375 713 c 128,-1,36
 526.49609375 584 526.49609375 584 394.49609375 584 c 0,10,11
EndSplineSet
EndChar

StartChar: fraction
Encoding: 8260 8260 526
Width: 768
VWidth: 2430
GlyphClass: 1
Flags: HW
LayerCount: 2
Fore
SplineSet
98.5283203125 -104 m 1,0,-1
 -10.65234375 -42 l 1,1,-1
 793.166992188 1630 l 1,2,-1
 904.5546875 1563 l 1,3,-1
 98.5283203125 -104 l 1,0,-1
EndSplineSet
EndChar

StartChar: onehalf
Encoding: 189 189 527
Width: 768
VWidth: 2430
GlyphClass: 1
Flags: HW
LayerCount: 2
Fore
SplineSet
295.07421875 -170 m 1,0,-1
 310.596679688 -72 l 1,1,2
 405.65234375 42 405.65234375 42 464.373046875 116 c 128,-1,3
 523.092773438 190 523.092773438 190 555.12109375 247 c 128,-1,4
 587.1484375 304 587.1484375 304 597.126953125 367 c 0,5,6
 602.987304688 404 602.987304688 404 593.947265625 429 c 128,-1,7
 584.90625 454 584.90625 454 556.90625 454 c 0,8,9
 527.90625 454 527.90625 454 504.768554688 440.5 c 128,-1,10
 481.629882812 427 481.629882812 427 455.502929688 382 c 1,11,-1
 377.897460938 435 l 1,12,13
 417.192382812 500 417.192382812 500 466.02734375 540 c 128,-1,14
 514.86328125 580 514.86328125 580 580.86328125 580 c 0,15,16
 653.86328125 580 653.86328125 580 691.572265625 524.5 c 128,-1,17
 729.282226562 469 729.282226562 469 713.126953125 367 c 0,18,19
 701.248046875 292 701.248046875 292 672.086914062 231 c 128,-1,20
 642.92578125 170 642.92578125 170 595.7890625 106 c 128,-1,21
 548.65234375 42 548.65234375 42 479.713867188 -46 c 1,22,-1
 647.713867188 -46 l 1,23,-1
 628.07421875 -170 l 1,24,-1
 295.07421875 -170 l 1,0,-1
75.5283203125 -104 m 1,25,-1
 -21.65234375 -42 l 1,26,-1
 729.166992188 1630 l 1,27,-1
 828.5546875 1563 l 1,28,-1
 75.5283203125 -104 l 1,25,-1
171.188476562 923 m 1,29,-1
 262.1015625 1497 l 1,30,-1
 173.815429688 1451 l 1,31,-1
 166.5546875 1563 l 1,32,-1
 321.02734375 1667 l 1,33,-1
 409.02734375 1667 l 1,34,-1
 291.188476562 923 l 1,35,-1
 171.188476562 923 l 1,29,-1
EndSplineSet
EndChar

StartChar: onequarter
Encoding: 188 188 528
Width: 768
VWidth: 2430
GlyphClass: 1
Flags: HW
LayerCount: 2
Fore
SplineSet
415.373046875 116 m 1,0,-1
 500.373046875 116 l 1,1,-1
 529.040039062 297 l 1,2,-1
 415.373046875 116 l 1,0,-1
453.07421875 -170 m 1,3,-1
 479.208007812 -5 l 1,4,-1
 284.208007812 -5 l 1,5,-1
 300.838867188 100 l 1,6,-1
 600.75390625 573 l 1,7,-1
 682.75390625 573 l 1,8,-1
 610.373046875 116 l 1,9,-1
 665.373046875 116 l 1,10,-1
 646.208007812 -5 l 1,11,-1
 591.208007812 -5 l 1,12,-1
 565.07421875 -170 l 1,13,-1
 453.07421875 -170 l 1,3,-1
66.5283203125 -104 m 1,14,-1
 -29.65234375 -42 l 1,15,-1
 715.166992188 1630 l 1,16,-1
 814.5546875 1563 l 1,17,-1
 66.5283203125 -104 l 1,14,-1
162.188476562 923 m 1,18,-1
 253.1015625 1497 l 1,19,-1
 164.815429688 1451 l 1,20,-1
 158.5546875 1563 l 1,21,-1
 312.02734375 1667 l 1,22,-1
 398.02734375 1667 l 1,23,-1
 280.188476562 923 l 1,24,-1
 162.188476562 923 l 1,18,-1
EndSplineSet
EndChar

StartChar: threequarters
Encoding: 190 190 529
Width: 768
VWidth: 2430
GlyphClass: 1
Flags: HW
LayerCount: 2
Fore
SplineSet
480.373046875 116 m 1,0,-1
 509.040039062 297 l 1,1,-1
 398.373046875 116 l 1,2,-1
 480.373046875 116 l 1,0,-1
459.208007812 -5 m 1,3,-1
 271.208007812 -5 l 1,4,-1
 287.838867188 100 l 1,5,-1
 580.75390625 573 l 1,6,-1
 659.75390625 573 l 1,7,-1
 587.373046875 116 l 1,8,-1
 640.373046875 116 l 1,9,-1
 621.208007812 -5 l 1,10,-1
 568.208007812 -5 l 1,11,-1
 542.07421875 -170 l 1,12,-1
 433.07421875 -170 l 1,13,-1
 459.208007812 -5 l 1,3,-1
59.5283203125 -104 m 1,14,-1
 -32.65234375 -42 l 1,15,-1
 697.166992188 1630 l 1,16,-1
 791.5546875 1563 l 1,17,-1
 59.5283203125 -104 l 1,14,-1
191.288085938 911 m 0,18,19
 85.2880859375 911 85.2880859375 911 45.017578125 1004 c 1,20,-1
 117.213867188 1081 l 1,21,-1
 134.588867188 1096 l 1,22,-1
 144.005859375 1086 l 1,23,24
 136.204101562 1062 136.204101562 1062 162.453125 1032 c 1,25,26
 177.02734375 1023 177.02734375 1023 201.02734375 1023 c 0,27,28
 231.02734375 1023 231.02734375 1023 252.56640625 1048.5 c 128,-1,29
 274.104492188 1074 274.104492188 1074 283.291015625 1132 c 0,30,31
 295.645507812 1210 295.645507812 1210 271.18359375 1235.5 c 128,-1,32
 253.103515625 1254.34765625 253.103515625 1254.34765625 214.283203125 1254.34765625 c 0,0,0
 200.58203125 1254.34765625 200.58203125 1254.34765625 184.296875 1252 c 1,33,-1
 202.353515625 1366 l 1,34,35
 206.455078125 1365.87890625 206.455078125 1365.87890625 210.400390625 1365.87890625 c 0,0,0
 271.545898438 1365.87890625 271.545898438 1365.87890625 294.946289062 1395 c 128,-1,36
 319.856445312 1426 319.856445312 1426 327.6171875 1475 c 0,37,38
 341.080078125 1560 341.080078125 1560 288.080078125 1560 c 0,39,40
 244.080078125 1560 244.080078125 1560 209.001953125 1509 c 1,41,-1
 145.772460938 1577 l 1,42,43
 181.533203125 1626 181.533203125 1626 225.833984375 1650 c 128,-1,44
 270.135742188 1674 270.135742188 1674 312.135742188 1674 c 0,45,46
 376.135742188 1674 376.135742188 1674 414.112304688 1626.5 c 128,-1,47
 452.088867188 1579 452.088867188 1579 437.04296875 1484 c 0,48,49
 427.380859375 1423 427.380859375 1423 400.649414062 1380.5 c 128,-1,50
 373.91796875 1338 373.91796875 1338 341.909179688 1319 c 1,51,52
 372.583007812 1298 372.583007812 1298 390.456054688 1253 c 128,-1,53
 408.328125 1208 408.328125 1208 395.499023438 1127 c 0,54,55
 379.34375 1025 379.34375 1025 323.31640625 968 c 128,-1,56
 267.288085938 911 267.288085938 911 191.288085938 911 c 0,18,19
EndSplineSet
EndChar

StartChar: uni2070.ss02
Encoding: 65566 -1 533
Width: 768
VWidth: 2430
GlyphClass: 1
Flags: HW
LayerCount: 2
Fore
SplineSet
444.877929688 719 m 0,0,1
 500.877929688 719 500.877929688 719 537.9453125 801.5 c 128,-1,2
 575.01171875 884 575.01171875 884 603.204101562 1062 c 0,3,4
 657.530273438 1405 657.530273438 1405 553.530273438 1405 c 128,-1,5
 449.530273438 1405 449.530273438 1405 394.204101562 1062 c 0,6,7
 366.01171875 884 366.01171875 884 379.9453125 801.5 c 128,-1,8
 393.877929688 719 393.877929688 719 444.877929688 719 c 0,0,1
422.86328125 580 m 128,-1,10
 310.86328125 580 310.86328125 580 259.498046875 694.5 c 128,-1,11
 208.1328125 809 208.1328125 809 248.204101562 1062 c 0,12,13
 287.80078125 1312 287.80078125 1312 375.831054688 1429 c 128,-1,14
 463.862304688 1546 463.862304688 1546 575.862304688 1546 c 128,-1,15
 687.862304688 1546 687.862304688 1546 738.331054688 1429 c 128,-1,16
 788.80078125 1312 788.80078125 1312 749.204101562 1062 c 0,17,18
 708.81640625 807 708.81640625 807 621.83984375 693.5 c 128,-1,9
 534.86328125 580 534.86328125 580 422.86328125 580 c 128,-1,10
EndSplineSet
EndChar

StartChar: uni2070.zero
Encoding: 65570 -1 537
Width: 768
VWidth: 2430
GlyphClass: 1
Flags: HW
LayerCount: 2
Fore
SplineSet
498.34375 1025 m 0,0,1
 468.34375 1025 468.34375 1025 452.432617188 1044.5 c 128,-1,2
 436.521484375 1064 436.521484375 1064 441.272460938 1094 c 128,-1,3
 446.024414062 1124 446.024414062 1124 468.69140625 1144 c 128,-1,4
 491.359375 1164 491.359375 1164 520.359375 1164 c 0,5,6
 547.359375 1164 547.359375 1164 563.533203125 1143 c 128,-1,7
 579.70703125 1122 579.70703125 1122 575.272460938 1094 c 0,8,9
 570.99609375 1067 570.99609375 1067 548.169921875 1046 c 128,-1,10
 525.34375 1025 525.34375 1025 498.34375 1025 c 0,0,1
444.877929688 719 m 0,11,12
 500.877929688 719 500.877929688 719 537.9453125 801.5 c 128,-1,13
 575.01171875 884 575.01171875 884 603.204101562 1062 c 0,14,15
 657.530273438 1405 657.530273438 1405 553.530273438 1405 c 128,-1,16
 449.530273438 1405 449.530273438 1405 394.204101562 1062 c 0,17,18
 366.01171875 884 366.01171875 884 379.9453125 801.5 c 128,-1,19
 393.877929688 719 393.877929688 719 444.877929688 719 c 0,11,12
422.86328125 580 m 128,-1,21
 310.86328125 580 310.86328125 580 259.498046875 694.5 c 128,-1,22
 208.1328125 809 208.1328125 809 248.204101562 1062 c 0,23,24
 287.80078125 1312 287.80078125 1312 375.831054688 1429 c 128,-1,25
 463.862304688 1546 463.862304688 1546 575.862304688 1546 c 128,-1,26
 687.862304688 1546 687.862304688 1546 738.331054688 1429 c 128,-1,27
 788.80078125 1312 788.80078125 1312 749.204101562 1062 c 0,28,29
 708.81640625 807 708.81640625 807 621.83984375 693.5 c 128,-1,20
 534.86328125 580 534.86328125 580 422.86328125 580 c 128,-1,21
EndSplineSet
EndChar

StartChar: period
Encoding: 46 46 538
Width: 768
VWidth: 2596
GlyphClass: 1
Flags: HW
LayerCount: 2
Fore
SplineSet
338.540039062 136 m 0,0,1
 277.540039062 136 277.540039062 136 242.008789062 180 c 128,-1,2
 206.478515625 224 206.478515625 224 216.456054688 287 c 0,3,4
 226.118164062 348 226.118164062 348 275.5078125 391.5 c 128,-1,5
 324.897460938 435 324.897460938 435 385.897460938 435 c 0,6,7
 443.897460938 435 443.897460938 435 479.586914062 392 c 128,-1,8
 515.276367188 349 515.276367188 349 505.456054688 287 c 0,9,10
 495.478515625 224 495.478515625 224 446.008789062 180 c 128,-1,11
 396.540039062 136 396.540039062 136 338.540039062 136 c 0,0,1
EndSplineSet
EndChar

StartChar: comma
Encoding: 44 44 539
Width: 768
VWidth: 2596
GlyphClass: 1
Flags: HW
LayerCount: 2
Fore
SplineSet
246.196289062 -245 m 1,0,-1
 135.717773438 -147 l 1,1,2
 198.6953125 -84 198.6953125 -84 240.252929688 -20.5 c 128,-1,3
 281.810546875 43 281.810546875 43 288.9375 88 c 0,4,5
 294.323242188 122 294.323242188 122 279.7578125 150 c 128,-1,6
 265.192382812 178 265.192382812 178 249.918945312 211 c 128,-1,7
 234.645507812 244 234.645507812 244 242.248046875 292 c 0,8,9
 253.334960938 362 253.334960938 362 302.670898438 402 c 128,-1,10
 352.005859375 442 352.005859375 442 409.005859375 442 c 0,11,12
 474.005859375 442 474.005859375 442 511.745117188 393 c 128,-1,13
 549.484375 344 549.484375 344 534.12109375 247 c 0,14,15
 496.375976562 15 496.375976562 15 246.196289062 -245 c 1,0,-1
EndSplineSet
EndChar

StartChar: colon
Encoding: 58 58 540
Width: 768
VWidth: 2705
GlyphClass: 1
Flags: HW
LayerCount: 2
Fore
SplineSet
347.803710938 245 m 0,0,1
 286.803710938 245 286.803710938 245 251.2734375 289 c 128,-1,2
 215.7421875 333 215.7421875 333 225.403320312 394 c 128,-1,3
 235.064453125 455 235.064453125 455 286.350585938 501 c 128,-1,4
 337.63671875 547 337.63671875 547 395.63671875 547 c 128,-1,5
 453.63671875 547 453.63671875 547 492.087890625 502.5 c 128,-1,6
 530.540039062 458 530.540039062 458 520.403320312 394 c 0,7,8
 511.216796875 336 511.216796875 336 461.010742188 290.5 c 128,-1,9
 410.803710938 245 410.803710938 245 347.803710938 245 c 0,0,1
469.6015625 1014 m 0,10,11
 411.6015625 1014 411.6015625 1014 374.650390625 1058.5 c 128,-1,12
 337.698242188 1103 337.698242188 1103 347.201171875 1163 c 0,13,14
 356.862304688 1224 356.862304688 1224 407.831054688 1268 c 128,-1,15
 458.80078125 1312 458.80078125 1312 516.80078125 1312 c 128,-1,16
 574.80078125 1312 574.80078125 1312 613.411132812 1268.5 c 128,-1,17
 652.020507812 1225 652.020507812 1225 642.201171875 1163 c 0,18,19
 633.014648438 1105 633.014648438 1105 581.80859375 1059.5 c 128,-1,20
 530.6015625 1014 530.6015625 1014 469.6015625 1014 c 0,10,11
EndSplineSet
EndChar

StartChar: semicolon
Encoding: 59 59 541
Width: 768
VWidth: 2705
GlyphClass: 1
Flags: HW
LayerCount: 2
Fore
SplineSet
244.459960938 -136 m 1,0,-1
 135.981445312 -38 l 1,1,2
 198.959960938 25 198.959960938 25 240.516601562 88.5 c 128,-1,3
 282.07421875 152 282.07421875 152 289.202148438 197 c 0,4,5
 294.586914062 231 294.586914062 231 278.521484375 259 c 128,-1,6
 262.456054688 287 262.456054688 287 248.182617188 320 c 128,-1,7
 233.91015625 353 233.91015625 353 241.51171875 401 c 0,8,9
 252.598632812 471 252.598632812 471 302.934570312 511 c 128,-1,10
 353.26953125 551 353.26953125 551 408.26953125 551 c 0,11,12
 473.26953125 551 473.26953125 551 511.008789062 502 c 128,-1,13
 548.748046875 453 548.748046875 453 533.384765625 356 c 0,14,15
 496.639648438 124 496.639648438 124 244.459960938 -136 c 1,0,-1
469.6015625 1014 m 0,16,17
 411.6015625 1014 411.6015625 1014 374.650390625 1058.5 c 128,-1,18
 337.698242188 1103 337.698242188 1103 347.201171875 1163 c 0,19,20
 356.862304688 1224 356.862304688 1224 407.831054688 1268 c 128,-1,21
 458.80078125 1312 458.80078125 1312 516.80078125 1312 c 128,-1,22
 574.80078125 1312 574.80078125 1312 613.411132812 1268.5 c 128,-1,23
 652.020507812 1225 652.020507812 1225 642.201171875 1163 c 0,24,25
 633.014648438 1105 633.014648438 1105 581.80859375 1059.5 c 128,-1,26
 530.6015625 1014 530.6015625 1014 469.6015625 1014 c 0,16,17
EndSplineSet
EndChar

StartChar: ellipsis
Encoding: 8230 8230 542
Width: 768
VWidth: 2430
GlyphClass: 1
Flags: HW
LayerCount: 2
Fore
SplineSet
18.19921875 -24 m 0,0,1
 -27.80078125 -24 -27.80078125 -24 -54.861328125 13.5 c 128,-1,2
 -81.9228515625 51 -81.9228515625 51 -73.052734375 107 c 0,3,4
 -64.658203125 160 -64.658203125 160 -25.6396484375 198 c 128,-1,5
 13.37890625 236 13.37890625 236 59.37890625 236 c 0,6,7
 103.37890625 236 103.37890625 236 129.360351562 198 c 128,-1,8
 155.341796875 160 155.341796875 160 146.947265625 107 c 0,9,10
 138.077148438 51 138.077148438 51 100.138671875 13.5 c 128,-1,11
 62.19921875 -24 62.19921875 -24 18.19921875 -24 c 0,0,1
274.19921875 -24 m 0,12,13
 228.19921875 -24 228.19921875 -24 202.138671875 13.5 c 128,-1,14
 176.077148438 51 176.077148438 51 184.947265625 107 c 0,15,16
 193.341796875 160 193.341796875 160 231.860351562 198 c 128,-1,17
 270.37890625 236 270.37890625 236 315.37890625 236 c 0,18,19
 359.37890625 236 359.37890625 236 386.360351562 198 c 128,-1,20
 413.341796875 160 413.341796875 160 404.947265625 107 c 0,21,22
 396.077148438 51 396.077148438 51 357.138671875 13.5 c 128,-1,23
 318.19921875 -24 318.19921875 -24 274.19921875 -24 c 0,12,13
534.19921875 -24 m 128,-1,25
 488.19921875 -24 488.19921875 -24 462.638671875 13.5 c 128,-1,26
 437.077148438 51 437.077148438 51 445.947265625 107 c 0,27,28
 454.341796875 160 454.341796875 160 491.860351562 198 c 128,-1,29
 529.37890625 236 529.37890625 236 575.37890625 236 c 128,-1,30
 621.37890625 236 621.37890625 236 646.360351562 198 c 128,-1,31
 671.341796875 160 671.341796875 160 662.947265625 107 c 0,32,33
 654.077148438 51 654.077148438 51 617.138671875 13.5 c 128,-1,24
 580.19921875 -24 580.19921875 -24 534.19921875 -24 c 128,-1,25
EndSplineSet
EndChar

StartChar: exclam
Encoding: 33 33 543
Width: 768
VWidth: 2430
GlyphClass: 1
Flags: HW
LayerCount: 2
Fore
SplineSet
312.723632812 -27 m 128,-1,1
 251.723632812 -27 251.723632812 -27 214.692382812 17 c 128,-1,2
 177.661132812 61 177.661132812 61 187.1640625 121 c 0,3,4
 196.826171875 182 196.826171875 182 247.953125 227 c 128,-1,5
 299.081054688 272 299.081054688 272 360.081054688 272 c 128,-1,6
 421.081054688 272 421.081054688 272 457.294921875 226 c 128,-1,7
 493.508789062 180 493.508789062 180 484.1640625 121 c 0,8,9
 474.502929688 60 474.502929688 60 424.11328125 16.5 c 128,-1,0
 373.723632812 -27 373.723632812 -27 312.723632812 -27 c 128,-1,1
318.974609375 486 m 1,10,-1
 410.70703125 1444 l 2,11,12
 411.3359375 1448.61523438 411.3359375 1448.61523438 412.047851562 1453.11523438 c 0,13,14
 425.232421875 1536.359375 425.232421875 1536.359375 467.247070312 1580 c 0,15,16
 511.533203125 1626 511.533203125 1626 569.533203125 1626 c 0,17,18
 625.533203125 1626 625.533203125 1626 657.16796875 1579.5 c 0,19,20
 687.259765625 1535.26855469 687.259765625 1535.26855469 671.583984375 1436.29492188 c 0,21,22
 670.780273438 1431.21972656 670.780273438 1431.21972656 669.856445312 1426 c 1,23,-1
 455.974609375 486 l 1,24,-1
 318.974609375 486 l 1,10,-1
EndSplineSet
EndChar

StartChar: question
Encoding: 63 63 545
Width: 768
VWidth: 2430
GlyphClass: 1
Flags: HW
LayerCount: 2
Fore
SplineSet
358.248046875 -30 m 0,0,1
 297.248046875 -30 297.248046875 -30 261.717773438 14 c 128,-1,2
 226.186523438 58 226.186523438 58 236.1640625 121 c 0,3,4
 245.826171875 182 245.826171875 182 295.215820312 225.5 c 128,-1,5
 344.60546875 269 344.60546875 269 405.60546875 269 c 0,6,7
 463.60546875 269 463.60546875 269 499.294921875 226 c 128,-1,8
 534.984375 183 534.984375 183 525.1640625 121 c 0,9,10
 515.186523438 58 515.186523438 58 465.717773438 14 c 128,-1,11
 416.248046875 -30 416.248046875 -30 358.248046875 -30 c 0,0,1
351.853515625 561 m 2,12,13
 368.325195312 665 368.325195312 665 401.571289062 736 c 128,-1,14
 434.81640625 807 434.81640625 807 473.790039062 860.5 c 128,-1,15
 512.763671875 914 512.763671875 914 551.4453125 962.5 c 128,-1,16
 590.126953125 1011 590.126953125 1011 621.8671875 1072.5 c 128,-1,17
 653.608398438 1134 653.608398438 1134 668.337890625 1227 c 0,18,19
 682.592773438 1317 682.592773438 1317 652.328125 1369 c 128,-1,20
 622.064453125 1421 622.064453125 1421 558.064453125 1421 c 0,21,22
 477.064453125 1421 477.064453125 1421 409.66015625 1349 c 1,23,24
 385.275390625 1315 385.275390625 1315 377.00390625 1297.5 c 128,-1,25
 368.732421875 1280 368.732421875 1280 370.72265625 1261 c 1,26,-1
 358.188476562 1245 l 1,27,-1
 341.088867188 1257 l 1,28,-1
 224.353515625 1366 l 1,29,30
 299.517578125 1487 299.517578125 1487 396.629882812 1554 c 128,-1,31
 493.741210938 1621 493.741210938 1621 614.741210938 1621 c 0,32,33
 755.741210938 1621 755.741210938 1621 824.190429688 1516.5 c 128,-1,34
 892.638671875 1412 892.638671875 1412 862.545898438 1222 c 0,35,36
 844.806640625 1110 844.806640625 1110 811.32421875 1037.5 c 128,-1,37
 777.840820312 965 777.840820312 965 738.025390625 912.5 c 128,-1,38
 698.2109375 860 698.2109375 860 658.1875 812.5 c 128,-1,39
 618.1640625 765 618.1640625 765 586.977539062 707 c 128,-1,40
 555.791015625 649 555.791015625 649 541.853515625 561 c 2,41,-1
 524.58984375 452 l 1,42,-1
 334.58984375 452 l 1,43,-1
 351.853515625 561 l 2,12,13
EndSplineSet
EndChar

StartChar: periodcentered
Encoding: 183 183 547
Width: 768
VWidth: 2430
GlyphClass: 1
Flags: HW
LayerCount: 2
Fore
SplineSet
422.008789062 663 m 128,-1,1
 361.008789062 663 361.008789062 663 325.477539062 707 c 128,-1,2
 289.946289062 751 289.946289062 751 299.608398438 812 c 128,-1,3
 309.26953125 873 309.26953125 873 358.659179688 916.5 c 128,-1,4
 408.048828125 960 408.048828125 960 469.048828125 960 c 0,5,6
 527.048828125 960 527.048828125 960 563.580078125 916 c 128,-1,7
 600.111328125 872 600.111328125 872 590.608398438 812 c 0,8,9
 580.946289062 751 580.946289062 751 531.977539062 707 c 128,-1,0
 483.008789062 663 483.008789062 663 422.008789062 663 c 128,-1,1
EndSplineSet
Substitution2: "Single Substitution lookup 11 subtable" periodcentered.loclCAT
Substitution2: "Single Substitution lookup 10 subtable" periodcentered.loclCAT
Substitution2: "'aalt' Access All Alternates in Latin lookup 0 subtable" periodcentered.loclCAT
EndChar

StartChar: bullet
Encoding: 8226 8226 548
Width: 768
VWidth: 2430
GlyphClass: 1
Flags: HW
LayerCount: 2
Fore
SplineSet
415.984375 505 m 0,0,1
 327.984375 505 327.984375 505 277.461914062 568 c 128,-1,2
 226.940429688 631 226.940429688 631 240.561523438 717 c 0,3,4
 254.81640625 807 254.81640625 807 328.056640625 868.5 c 128,-1,5
 401.297851562 930 401.297851562 930 483.297851562 930 c 0,6,7
 568.297851562 930 568.297851562 930 620.819335938 867 c 128,-1,8
 673.340820312 804 673.340820312 804 659.561523438 717 c 0,9,10
 646.098632812 632 646.098632812 632 573.541992188 568.5 c 128,-1,11
 500.984375 505 500.984375 505 415.984375 505 c 0,0,1
EndSplineSet
EndChar

StartChar: asterisk
Encoding: 42 42 549
Width: 768
VWidth: 2430
GlyphClass: 1
Flags: HW
LayerCount: 2
Fore
SplineSet
210.2890625 267 m 1,0,-1
 65.521484375 420 l 1,1,-1
 328.055664062 758 l 1,2,-1
 90.78515625 851 l 1,3,-1
 199.48046875 1089 l 1,4,-1
 396.297851562 930 l 1,5,-1
 421.592773438 1317 l 1,6,-1
 655.592773438 1317 l 1,7,-1
 551.297851562 930 l 1,8,-1
 795.421875 1076 l 1,9,-1
 826.309570312 848 l 1,10,-1
 553.055664062 758 l 1,11,-1
 706.837890625 422 l 1,12,-1
 514.2890625 267 l 1,13,-1
 419.723632812 617 l 1,14,-1
 210.2890625 267 l 1,0,-1
EndSplineSet
Substitution2: "'ss01' Style Set 1 in Latin lookup 35 subtable" asterisk.ss01
Substitution2: "'salt' Stylistic Alternatives in Latin lookup 34 subtable" asterisk.ss01
Substitution2: "'aalt' Access All Alternates in Latin lookup 0 subtable" asterisk.ss01
EndChar

StartChar: uni2E12
Encoding: 11794 11794 550
Width: 768
VWidth: 2194
GlyphClass: 1
Flags: HW
LayerCount: 2
Fore
SplineSet
169.037109375 -246 m 1,0,-1
 191.2109375 -106 l 1,1,2
 238.2109375 -106 238.2109375 -106 271.259765625 -61.5 c 128,-1,3
 304.307617188 -17 304.307617188 -17 314.760742188 49 c 0,4,5
 324.897460938 113 324.897460938 113 307.841796875 160 c 128,-1,6
 290.78515625 207 290.78515625 207 240.78515625 207 c 1,7,-1
 262.326171875 343 l 1,8,9
 363.326171875 343 363.326171875 343 414.684570312 269.5 c 128,-1,10
 466.04296875 196 466.04296875 196 442.444335938 47 c 0,11,12
 419.63671875 -97 419.63671875 -97 344.836914062 -171.5 c 128,-1,13
 270.037109375 -246 270.037109375 -246 169.037109375 -246 c 1,0,-1
EndSplineSet
EndChar

StartChar: numbersign
Encoding: 35 35 551
Width: 768
VWidth: 2430
GlyphClass: 1
Flags: HW
LayerCount: 2
Fore
SplineSet
326.505859375 603 m 1,0,-1
 452.505859375 603 l 1,1,-1
 537.256835938 955 l 1,2,-1
 409.256835938 955 l 1,3,-1
 326.505859375 603 l 1,0,-1
314.326171875 21 m 1,4,-1
 415.580078125 433 l 1,5,-1
 288.580078125 433 l 1,6,-1
 191.384765625 34 l 1,7,-1
 36.068359375 32 l 1,8,-1
 130.629882812 427 l 1,9,-1
 5.6298828125 427 l 1,10,-1
 39.7138671875 598 l 1,11,-1
 169.713867188 598 l 1,12,-1
 254.940429688 953 l 1,13,-1
 110.940429688 953 l 1,14,-1
 143.182617188 1125 l 1,15,-1
 290.182617188 1125 l 1,16,-1
 385.110351562 1516 l 1,17,-1
 543.90234375 1521 l 1,18,-1
 448.974609375 1130 l 1,19,-1
 575.974609375 1130 l 1,20,-1
 668.477539062 1512 l 1,21,-1
 829.793945312 1514 l 1,22,-1
 738.608398438 1134 l 1,23,-1
 853.608398438 1134 l 1,24,-1
 813.048828125 960 l 1,25,-1
 702.048828125 960 l 1,26,-1
 614.614257812 610 l 1,27,-1
 744.614257812 610 l 1,28,-1
 707.689453125 440 l 1,29,-1
 578.689453125 440 l 1,30,-1
 479.384765625 34 l 1,31,-1
 314.326171875 21 l 1,4,-1
EndSplineSet
EndChar

StartChar: slash
Encoding: 47 47 552
Width: 768
VWidth: 2430
GlyphClass: 1
Flags: HW
LayerCount: 2
Fore
SplineSet
165.844726562 -102 m 1,0,-1
 -21.068359375 -32 l 1,1,-1
 740.265625 1618 l 1,2,-1
 926.120117188 1535 l 1,3,-1
 165.844726562 -102 l 1,0,-1
EndSplineSet
Substitution2: "'frac' Diagonal Fractions in Latin lookup 23 subtable" fraction
Substitution2: "'aalt' Access All Alternates in Latin lookup 0 subtable" fraction
EndChar

StartChar: backslash
Encoding: 92 92 553
Width: 768
VWidth: 2430
GlyphClass: 1
Flags: HW
LayerCount: 2
Fore
SplineSet
469.528320312 -104 m 1,0,-1
 227.595703125 1538 l 1,1,-1
 437.94921875 1616 l 1,2,-1
 680.931640625 -32 l 1,3,-1
 469.528320312 -104 l 1,0,-1
EndSplineSet
EndChar

StartChar: asterisk.ss01
Encoding: 65572 -1 555
Width: 768
VWidth: 2430
GlyphClass: 1
Flags: HW
LayerCount: 2
Fore
SplineSet
233.413085938 413 m 1,0,-1
 88.6455078125 566 l 1,1,-1
 351.1796875 904 l 1,2,-1
 113.909179688 997 l 1,3,-1
 222.446289062 1234 l 1,4,-1
 419.421875 1076 l 1,5,-1
 444.716796875 1463 l 1,6,-1
 678.716796875 1463 l 1,7,-1
 574.421875 1076 l 1,8,-1
 818.545898438 1222 l 1,9,-1
 849.434570312 994 l 1,10,-1
 576.1796875 904 l 1,11,-1
 729.961914062 568 l 1,12,-1
 537.413085938 413 l 1,13,-1
 442.84765625 763 l 1,14,-1
 233.413085938 413 l 1,0,-1
EndSplineSet
EndChar

StartChar: parenleft
Encoding: 40 40 556
Width: 768
VWidth: 2435
GlyphClass: 1
Flags: HW
LayerCount: 2
Fore
SplineSet
510.037109375 -246 m 1,0,1
 372.400390625 -149 372.400390625 -149 286.2421875 11 c 128,-1,2
 200.083984375 171 200.083984375 171 172.260742188 371 c 128,-1,3
 144.4375 571 144.4375 571 178.6484375 787 c 128,-1,4
 212.859375 1003 212.859375 1003 301.744140625 1198 c 128,-1,5
 390.629882812 1393 390.629882812 1393 524.520507812 1547 c 128,-1,6
 658.412109375 1701 658.412109375 1701 824.93359375 1799 c 1,7,-1
 885.682617188 1608 l 1,8,9
 700.725585938 1482 700.725585938 1482 566.569335938 1269.5 c 128,-1,10
 432.412109375 1057 432.412109375 1057 388.856445312 782 c 0,11,12
 360.34765625 602 360.34765625 602 379.689453125 440 c 128,-1,13
 399.03125 278 399.03125 278 461.782226562 147 c 128,-1,14
 524.534179688 16 524.534179688 16 624.913085938 -70 c 1,15,-1
 510.037109375 -246 l 1,0,1
EndSplineSet
EndChar

StartChar: parenright
Encoding: 41 41 557
Width: 768
VWidth: 2435
GlyphClass: 1
Flags: HW
LayerCount: 2
Fore
SplineSet
107.037109375 -246 m 1,0,1
 275.400390625 -149 275.400390625 -149 412.7421875 11 c 0,2,3
 549.083984375 171 549.083984375 171 639.760742188 371 c 0,4,5
 730.4375 571 730.4375 571 766.6484375 787 c 0,6,7
 800.859375 1003 800.859375 1003 771.744140625 1198 c 0,8,9
 744.629882812 1393 744.629882812 1393 660.020507812 1547 c 0,10,11
 575.412109375 1701 575.412109375 1701 440.93359375 1799 c 1,12,-1
 318.682617188 1608 l 1,13,14
 463.725585938 1482 463.725585938 1482 529.990234375 1269 c 0,15,16
 597.412109375 1057 597.412109375 1057 553.856445312 782 c 0,17,18
 525.34765625 602 525.34765625 602 454.689453125 440 c 0,19,20
 384.03125 278 384.03125 278 280.282226562 147 c 0,21,22
 175.534179688 16 175.534179688 16 47.9130859375 -70 c 1,23,-1
 107.037109375 -246 l 1,0,1
EndSplineSet
EndChar

StartChar: braceleft
Encoding: 123 123 558
Width: 768
VWidth: 2475
GlyphClass: 1
Flags: HW
LayerCount: 2
Fore
SplineSet
522.124023438 -176 m 2,0,1
 401.124023438 -176 401.124023438 -176 315.905273438 -139.5 c 128,-1,2
 230.686523438 -103 230.686523438 -103 193.995117188 -9.5 c 128,-1,3
 160.551757812 75.7255859375 160.551757812 75.7255859375 184.116210938 224.510742188 c 0,0,0
 186.404296875 238.956054688 186.404296875 238.956054688 189.229492188 254 c 2,4,-1
 231.608398438 490 l 2,5,6
 247.447265625 590 247.447265625 590 239.287109375 639.5 c 128,-1,7
 231.126953125 689 231.126953125 689 204.58203125 704.5 c 128,-1,8
 178.037109375 720 178.037109375 720 134.037109375 720 c 2,9,-1
 88.037109375 720 l 1,10,-1
 120.030273438 922 l 1,11,-1
 166.030273438 922 l 2,12,13
 234.030273438 922 234.030273438 922 276.81640625 968 c 128,-1,14
 319.6015625 1014 319.6015625 1014 340.19140625 1144 c 2,15,-1
 364.967773438 1332 l 1,16,17
 398.38671875 1543 398.38671875 1543 513.913085938 1650.5 c 128,-1,18
 629.439453125 1758 629.439453125 1758 784.439453125 1758 c 2,19,-1
 903.439453125 1758 l 1,20,-1
 873.504882812 1569 l 1,21,-1
 745.504882812 1569 l 2,22,23
 682.504882812 1569 682.504882812 1569 638.690429688 1516.5 c 128,-1,24
 594.875 1464 594.875 1464 577.927734375 1357 c 2,25,-1
 551.1015625 1175 l 2,26,27
 530.669921875 1046 530.669921875 1046 478.07421875 957 c 128,-1,28
 425.477539062 868 425.477539062 868 349.192382812 822 c 1,29,30
 407.540039062 780 407.540039062 780 432.706054688 689.5 c 128,-1,31
 457.872070312 599 457.872070312 599 434.748046875 453 c 2,32,-1
 398.546875 256 l 1,33,34
 379.323242188 122 379.323242188 122 411.032226562 66.5 c 128,-1,35
 442.7421875 11 442.7421875 11 529.7421875 11 c 2,36,-1
 624.7421875 11 l 1,37,-1
 595.124023438 -176 l 1,38,-1
 522.124023438 -176 l 2,0,1
EndSplineSet
EndChar

StartChar: braceright
Encoding: 125 125 559
Width: 768
VWidth: 2475
GlyphClass: 1
Flags: HW
LayerCount: 2
Fore
SplineSet
48.1240234375 -176 m 2,0,1
 169.124023438 -176 169.124023438 -176 266.826171875 -140 c 0,2,3
 363.686523438 -103 363.686523438 -103 428.416015625 -10 c 0,4,5
 489.512695312 77.1640625 489.512695312 77.1640625 513.66796875 229.674804688 c 0,0,0
 515.5625 241.63671875 515.5625 241.63671875 517.229492188 254 c 2,1,-1
 549.608398438 490 l 2,2,3
 565.447265625 590 565.447265625 590 588.208007812 639 c 0,4,5
 611.126953125 689 611.126953125 689 644.661132812 705 c 0,6,7
 677.037109375 720 677.037109375 720 720.037109375 720 c 2,8,-1
 766.037109375 720 l 1,9,-1
 798.030273438 922 l 1,10,-1
 752.030273438 922 l 2,11,12
 684.030273438 922 684.030273438 922 656.31640625 968 c 0,13,14
 627.6015625 1014 627.6015625 1014 648.19140625 1144 c 2,15,-1
 682.967773438 1332 l 1,16,17
 716.38671875 1543 716.38671875 1543 635.651367188 1652 c 0,18,19
 555.348632812 1758.00878906 555.348632812 1758.00878906 401.325195312 1758.00878906 c 0,0,0
 399.885742188 1758.00878906 399.885742188 1758.00878906 398.439453125 1758 c 2,1,-1
 279.439453125 1758 l 1,2,-1
 249.504882812 1569 l 1,3,-1
 377.504882812 1569 l 2,4,5
 440.504882812 1569 440.504882812 1569 468.110351562 1516 c 0,6,7
 495.124023438 1465.40527344 495.124023438 1465.40527344 478.864257812 1362.74316406 c 0,0,0
 478.413085938 1359.89160156 478.413085938 1359.89160156 477.927734375 1357 c 2,1,-1
 447.1015625 1175 l 2,2,3
 426.669921875 1046 426.669921875 1046 451.57421875 957 c 0,4,5
 476.477539062 868 476.477539062 868 537.192382812 822 c 1,6,7
 465.540039062 780 465.540039062 780 411.28515625 690 c 0,8,9
 357.872070312 599 357.872070312 599 334.748046875 453 c 2,10,-1
 308.546875 256 l 1,11,12
 285.323242188 122 285.323242188 122 235.453125 66 c 0,13,14
 187.44140625 10.982421875 187.44140625 10.982421875 102.77734375 10.982421875 c 0,0,0
 101.265625 10.982421875 101.265625 10.982421875 99.7421875 11 c 2,1,-1
 4.7421875 11 l 1,2,-1
 -24.8759765625 -176 l 1,3,-1
 48.1240234375 -176 l 2,0,1
EndSplineSet
EndChar

StartChar: bracketleft
Encoding: 91 91 560
Width: 768
VWidth: 2505
GlyphClass: 1
Flags: HW
LayerCount: 2
Fore
SplineSet
66.66796875 -141 m 1,0,-1
 358.728515625 1703 l 1,1,-1
 896.728515625 1703 l 1,2,-1
 863.943359375 1496 l 1,3,-1
 531.943359375 1496 l 1,4,-1
 304.186523438 58 l 1,5,-1
 639.186523438 58 l 1,6,-1
 607.66796875 -141 l 1,7,-1
 66.66796875 -141 l 1,0,-1
EndSplineSet
EndChar

StartChar: bracketright
Encoding: 93 93 561
Width: 768
VWidth: 2505
GlyphClass: 1
Flags: HW
LayerCount: 2
Fore
SplineSet
600.66796875 -141 m 1,0,-1
 892.728515625 1703 l 1,1,-1
 353.728515625 1703 l 1,2,-1
 320.943359375 1496 l 1,3,-1
 652.943359375 1496 l 1,4,-1
 425.186523438 58 l 1,5,-1
 89.1865234375 58 l 1,6,-1
 57.66796875 -141 l 1,7,-1
 600.66796875 -141 l 1,0,-1
EndSplineSet
EndChar

StartChar: hyphen
Encoding: 45 45 562
Width: 768
VWidth: 2430
GlyphClass: 1
Flags: HW
LayerCount: 2
Fore
SplineSet
190.1171875 670 m 1,0,-1
 222.903320312 877 l 1,1,-1
 722.903320312 877 l 1,2,-1
 690.1171875 670 l 1,3,-1
 190.1171875 670 l 1,0,-1
EndSplineSet
EndChar

StartChar: endash
Encoding: 8211 8211 564
Width: 768
VWidth: 2430
GlyphClass: 1
Flags: HW
LayerCount: 2
Fore
SplineSet
121.1171875 670 m 1,0,-1
 153.903320312 877 l 1,1,-1
 790.903320312 877 l 1,2,-1
 758.1171875 670 l 1,3,-1
 121.1171875 670 l 1,0,-1
EndSplineSet
EndChar

StartChar: emdash
Encoding: 8212 8212 565
Width: 768
VWidth: 2430
GlyphClass: 1
Flags: HW
LayerCount: 2
Fore
SplineSet
25.1171875 670 m 1,0,-1
 57.9033203125 877 l 1,1,-1
 793.903320312 877 l 1,2,-1
 761.1171875 670 l 1,3,-1
 25.1171875 670 l 1,0,-1
EndSplineSet
EndChar

StartChar: underscore
Encoding: 95 95 569
Width: 768
VWidth: 2430
GlyphClass: 1
Flags: HW
LayerCount: 2
Fore
SplineSet
-82.1708984375 -241 m 1,0,-1
 -50.1767578125 -39 l 1,1,-1
 685.823242188 -39 l 1,2,-1
 653.829101562 -241 l 1,3,-1
 -82.1708984375 -241 l 1,0,-1
EndSplineSet
EndChar

StartChar: quotedblleft
Encoding: 8220 8220 572
Width: 768
VWidth: 2430
GlyphClass: 1
Flags: HW
LayerCount: 2
Fore
SplineSet
450.080078125 1560 m 1,0,-1
 548.716796875 1463 l 1,1,2
 487.73828125 1400 487.73828125 1400 443.522460938 1335.5 c 128,-1,3
 399.306640625 1271 399.306640625 1271 389.645507812 1210 c 0,4,5
 383.78515625 1173 383.78515625 1173 400.483398438 1149 c 128,-1,6
 417.182617188 1125 417.182617188 1125 431.748046875 1097 c 128,-1,7
 446.3125 1069 446.3125 1069 439.02734375 1023 c 0,8,9
 428.732421875 958 428.732421875 958 383.421875 915 c 128,-1,10
 338.111328125 872 338.111328125 872 280.111328125 872 c 0,11,12
 224.111328125 872 224.111328125 872 185.79296875 920.5 c 128,-1,13
 147.474609375 969 147.474609375 969 161.095703125 1055 c 0,14,15
 178.834960938 1167 178.834960938 1167 249.236328125 1289.5 c 128,-1,16
 319.638671875 1412 319.638671875 1412 450.080078125 1560 c 1,0,-1
812.080078125 1560 m 1,17,-1
 909.716796875 1463 l 1,18,19
 848.73828125 1400 848.73828125 1400 805.022460938 1335.5 c 128,-1,20
 761.306640625 1271 761.306640625 1271 751.645507812 1210 c 0,21,22
 745.78515625 1173 745.78515625 1173 762.483398438 1149 c 128,-1,23
 779.182617188 1125 779.182617188 1125 793.748046875 1097 c 128,-1,24
 808.3125 1069 808.3125 1069 801.02734375 1023 c 0,25,26
 790.732421875 958 790.732421875 958 745.421875 915 c 128,-1,27
 700.111328125 872 700.111328125 872 642.111328125 872 c 0,28,29
 586.111328125 872 586.111328125 872 547.79296875 920.5 c 128,-1,30
 509.474609375 969 509.474609375 969 523.095703125 1055 c 0,31,32
 540.834960938 1167 540.834960938 1167 611.236328125 1289.5 c 128,-1,33
 681.638671875 1412 681.638671875 1412 812.080078125 1560 c 1,17,-1
EndSplineSet
EndChar

StartChar: quoteleft
Encoding: 8216 8216 574
Width: 768
VWidth: 2430
GlyphClass: 1
Flags: HW
LayerCount: 2
Fore
SplineSet
622.080078125 1560 m 1,0,-1
 726.716796875 1463 l 1,1,2
 663.73828125 1400 663.73828125 1400 617.522460938 1335.5 c 128,-1,3
 571.306640625 1271 571.306640625 1271 561.645507812 1210 c 0,4,5
 555.78515625 1173 555.78515625 1173 572.483398438 1149 c 128,-1,6
 589.182617188 1125 589.182617188 1125 605.748046875 1097 c 128,-1,7
 622.3125 1069 622.3125 1069 615.02734375 1023 c 0,8,9
 604.732421875 958 604.732421875 958 557.421875 915 c 128,-1,10
 510.111328125 872 510.111328125 872 450.111328125 872 c 0,11,12
 392.111328125 872 392.111328125 872 352.29296875 920.5 c 128,-1,13
 312.474609375 969 312.474609375 969 326.095703125 1055 c 0,14,15
 343.834960938 1167 343.834960938 1167 415.236328125 1289.5 c 128,-1,16
 486.638671875 1412 486.638671875 1412 622.080078125 1560 c 1,0,-1
EndSplineSet
EndChar

StartChar: quoteright
Encoding: 8217 8217 575
Width: 768
VWidth: 2430
GlyphClass: 1
Flags: HW
LayerCount: 2
Fore
SplineSet
389.111328125 872 m 1,0,-1
 284.474609375 969 l 1,1,2
 347.453125 1032 347.453125 1032 392.748046875 1097 c 128,-1,3
 438.04296875 1162 438.04296875 1162 447.229492188 1220 c 0,4,5
 453.40625 1259 453.40625 1259 436.286132812 1283.5 c 128,-1,6
 419.166992188 1308 419.166992188 1308 404.022460938 1335.5 c 128,-1,7
 388.877929688 1363 388.877929688 1363 396.322265625 1410 c 0,8,9
 406.6171875 1475 406.6171875 1475 453.848632812 1517.5 c 128,-1,10
 501.080078125 1560 501.080078125 1560 559.080078125 1560 c 128,-1,11
 617.080078125 1560 617.080078125 1560 657.8984375 1511.5 c 128,-1,12
 698.716796875 1463 698.716796875 1463 685.25390625 1378 c 0,13,14
 667.514648438 1266 667.514648438 1266 596.033203125 1143 c 128,-1,15
 524.551757812 1020 524.551757812 1020 389.111328125 872 c 1,0,-1
EndSplineSet
EndChar

StartChar: guillemotleft
Encoding: 171 171 576
Width: 768
VWidth: 2430
GlyphClass: 1
Flags: HW
LayerCount: 2
Fore
SplineSet
594.055664062 114 m 1,0,-1
 382.427734375 552 l 1,1,-1
 394.940429688 631 l 1,2,-1
 729.918945312 1016 l 1,3,-1
 816.903320312 877 l 1,4,-1
 560.288085938 589 l 1,5,-1
 730.487304688 243 l 1,6,-1
 594.055664062 114 l 1,0,-1
293.055664062 114 m 1,7,-1
 78.427734375 552 l 1,8,-1
 90.9404296875 631 l 1,9,-1
 430.918945312 1016 l 1,10,-1
 510.01171875 884 l 1,11,-1
 261.288085938 589 l 1,12,-1
 422.170898438 241 l 1,13,-1
 293.055664062 114 l 1,7,-1
EndSplineSet
EndChar

StartChar: guilsinglleft
Encoding: 8249 8249 578
Width: 768
VWidth: 2430
GlyphClass: 1
Flags: HW
LayerCount: 2
Fore
SplineSet
413.471679688 104 m 1,0,-1
 200.844726562 542 l 1,1,-1
 213.83203125 624 l 1,2,-1
 552.126953125 1011 l 1,3,-1
 656.577148438 856 l 1,4,-1
 415.86328125 580 l 1,5,-1
 569.1796875 260 l 1,6,-1
 413.471679688 104 l 1,0,-1
EndSplineSet
EndChar

StartChar: guilsinglright
Encoding: 8250 8250 579
Width: 768
VWidth: 2430
GlyphClass: 1
Flags: HW
LayerCount: 2
Fore
SplineSet
249.471679688 104 m 1,0,-1
 146.1796875 260 l 1,1,-1
 400.86328125 580 l 1,2,-1
 247.577148438 856 l 1,3,-1
 399.126953125 1011 l 1,4,-1
 616.83203125 624 l 1,5,-1
 603.844726562 542 l 1,6,-1
 249.471679688 104 l 1,0,-1
EndSplineSet
EndChar

StartChar: quotedbl
Encoding: 34 34 580
Width: 768
VWidth: 2430
GlyphClass: 1
Flags: HW
LayerCount: 2
Fore
SplineSet
339.94921875 1616 m 1,0,-1
 537.94921875 1616 l 1,1,2
 514.825195312 1470 514.825195312 1470 498.887695312 1382 c 0,3,4
 482.94921875 1294 482.94921875 1294 466.604492188 1235 c 0,5,6
 451.259765625 1176 451.259765625 1176 437.548828125 1121 c 0,7,8
 422.837890625 1066 422.837890625 1066 400.80078125 990 c 1,9,-1
 278.80078125 990 l 1,10,11
 282.154296875 1068 282.154296875 1068 284.548828125 1121 c 0,12,13
 287.259765625 1176 287.259765625 1176 290.446289062 1234 c 0,14,15
 293.6328125 1292 293.6328125 1292 304.728515625 1381 c 0,16,17
 316.825195312 1470 316.825195312 1470 339.94921875 1616 c 1,0,-1
634.94921875 1616 m 1,18,-1
 834.94921875 1616 l 1,19,20
 811.825195312 1470 811.825195312 1470 794.887695312 1382 c 0,21,22
 778.94921875 1294 778.94921875 1294 763.604492188 1235 c 0,23,24
 748.259765625 1176 748.259765625 1176 733.548828125 1121 c 0,25,26
 718.837890625 1066 718.837890625 1066 697.80078125 990 c 1,27,-1
 575.80078125 990 l 1,28,29
 579.154296875 1068 579.154296875 1068 580.548828125 1121 c 0,30,31
 583.259765625 1176 583.259765625 1176 586.446289062 1234 c 0,32,33
 589.6328125 1292 589.6328125 1292 600.728515625 1381 c 0,34,35
 611.825195312 1470 611.825195312 1470 634.94921875 1616 c 1,18,-1
EndSplineSet
Substitution2: "'ss03' Style Set 3 in Latin lookup 37 subtable" quotedbl.ss03
Substitution2: "'aalt' Access All Alternates in Latin lookup 0 subtable" quotedbl.ss03
EndChar

StartChar: quotesingle
Encoding: 39 39 581
Width: 768
VWidth: 2430
GlyphClass: 1
Flags: HW
LayerCount: 2
Fore
SplineSet
486.94921875 1616 m 1,0,-1
 685.94921875 1616 l 1,1,2
 662.825195312 1470 662.825195312 1470 647.045898438 1383 c 128,-1,3
 631.266601562 1296 631.266601562 1296 615.762695312 1236 c 128,-1,4
 600.259765625 1176 600.259765625 1176 585.627929688 1121.5 c 128,-1,5
 570.99609375 1067 570.99609375 1067 548.80078125 990 c 1,6,-1
 426.80078125 990 l 1,7,8
 430.154296875 1068 430.154296875 1068 432.70703125 1122 c 128,-1,9
 435.259765625 1176 435.259765625 1176 438.525390625 1234.5 c 128,-1,10
 441.791015625 1293 441.791015625 1293 452.807617188 1381.5 c 128,-1,11
 463.825195312 1470 463.825195312 1470 486.94921875 1616 c 1,0,-1
EndSplineSet
Substitution2: "'ss03' Style Set 3 in Latin lookup 37 subtable" quotesingle.ss03
Substitution2: "'aalt' Access All Alternates in Latin lookup 0 subtable" quotesingle.ss03
EndChar

StartChar: quotesingle.ss03
Encoding: 65574 -1 583
Width: 768
VWidth: 2430
GlyphClass: 1
Flags: HW
LayerCount: 2
Fore
SplineSet
526.741210938 977 m 1,0,-1
 378.334960938 1006 l 1,1,2
 423.390625 1120 423.390625 1120 443.244140625 1198 c 0,3,4
 459.7890625 1263 459.7890625 1263 468.709960938 1319.31933594 c 0,5,6
 470.494140625 1330.58300781 470.494140625 1330.58300781 471.97265625 1341.5 c 0,7,8
 480.846679688 1407 480.846679688 1407 493.04296875 1484 c 0,9,10
 516.166992188 1630 516.166992188 1630 623.166992188 1630 c 0,11,12
 672.166992188 1630 672.166992188 1630 695.514648438 1588 c 128,-1,13
 718.862304688 1546 718.862304688 1546 706.508789062 1468 c 0,14,15
 693.045898438 1383 693.045898438 1383 651.598632812 1276 c 128,-1,16
 610.151367188 1169 610.151367188 1169 526.741210938 977 c 1,0,-1
EndSplineSet
EndChar

StartChar: hyphen_greater.dlig
Encoding: 65575 -1 584
Width: 768
VWidth: 2430
GlyphClass: 1
Flags: HW
LayerCount: 2
Fore
SplineSet
44.9091796875 675 m 1,0,-1
 77.2197265625 879 l 1,1,-1
 538.219726562 879 l 1,2,-1
 505.909179688 675 l 1,3,-1
 44.9091796875 675 l 1,0,-1
266.046875 95 m 1,4,-1
 306.118164062 348 l 1,5,-1
 685.064453125 777 l 1,6,-1
 437.359375 1164 l 1,7,-1
 476.638671875 1412 l 1,8,-1
 808.78515625 851 l 1,9,-1
 786.453125 710 l 1,10,-1
 266.046875 95 l 1,4,-1
EndSplineSet
Ligature2: "'dlig' Discretionary Ligatures in Latin lookup 32 subtable" hyphen greater
EndChar

StartChar: exclam_equal_equal.dlig
Encoding: 65576 -1 585
Width: 768
VWidth: 2400
GlyphClass: 1
Flags: HW
LayerCount: 2
Fore
SplineSet
-64.7734375 33 m 1,0,-1
 -34.046875 227 l 1,1,-1
 266.953125 227 l 1,2,-1
 332.866210938 479 l 1,3,-1
 94.8662109375 479 l 1,4,-1
 127.018554688 682 l 1,5,-1
 385.018554688 682 l 1,6,-1
 452.08984375 935 l 1,7,-1
 78.08984375 935 l 1,8,-1
 109.1328125 1131 l 1,9,-1
 502.1328125 1131 l 1,10,-1
 580.331054688 1429 l 1,11,-1
 623.51171875 1367 l 1,12,-1
 562.1328125 1131 l 1,13,-1
 845.1328125 1131 l 1,14,-1
 814.08984375 935 l 1,15,-1
 510.08984375 935 l 1,16,-1
 445.018554688 682 l 1,17,-1
 685.018554688 682 l 1,18,-1
 652.866210938 479 l 1,19,-1
 391.866210938 479 l 1,20,-1
 325.953125 227 l 1,21,-1
 701.953125 227 l 1,22,-1
 671.2265625 33 l 1,23,-1
 275.2265625 33 l 1,24,-1
 203.037109375 -246 l 1,25,-1
 159.065429688 -189 l 1,26,-1
 216.2265625 33 l 1,27,-1
 -64.7734375 33 l 1,0,-1
EndSplineSet
Ligature2: "'dlig' Discretionary Ligatures in Latin lookup 32 subtable" exclam equal equal
EndChar

StartChar: uni20B5
Encoding: 8373 8373 594
Width: 768
VWidth: 2430
GlyphClass: 2
Flags: HW
AnchorPoint: "Anchor-2" 362 0 basechar 0
AnchorPoint: "Anchor-0" 592.794 1514 basechar 0
LayerCount: 2
Fore
SplineSet
284.055664062 758 m 0,0,1
 247.46875 527 247.46875 527 266.586914062 392 c 128,-1,2
 285.705078125 257 285.705078125 257 341.418945312 211 c 1,3,-1
 512.791015625 1293 l 1,4,5
 444.505859375 1247 444.505859375 1247 382.811523438 1119.5 c 128,-1,6
 321.1171875 992 321.1171875 992 284.055664062 758 c 0,0,1
280.7578125 -172 m 1,7,-1
 304.990234375 -19 l 1,8,9
 211.68359375 -2 211.68359375 -2 145.512695312 79 c 128,-1,10
 79.341796875 160 79.341796875 160 58.158203125 323 c 128,-1,11
 36.974609375 486 36.974609375 486 76.6298828125 749 c 0,12,13
 120.34375 1025 120.34375 1025 197.501953125 1187 c 128,-1,14
 274.66015625 1349 274.66015625 1349 367.77734375 1425.5 c 128,-1,15
 460.893554688 1502 460.893554688 1502 548.90234375 1521 c 1,16,-1
 567.75 1640 l 1,17,-1
 722.75 1640 l 1,18,-1
 703.90234375 1521 l 1,19,20
 783.893554688 1502 783.893554688 1502 831.786132812 1444.5 c 128,-1,21
 879.6796875 1387 879.6796875 1387 900.375 1303 c 1,22,-1
 773.55859375 1140 l 1,23,-1
 758.390625 1120 l 1,24,-1
 745.291015625 1132 l 1,25,26
 742.983398438 1149 742.983398438 1149 747.364257812 1173.5 c 128,-1,27
 751.744140625 1198 751.744140625 1198 738.446289062 1234 c 1,28,29
 710.524414062 1285 710.524414062 1285 670.166992188 1308 c 1,30,-1
 494.518554688 199 l 1,31,32
 564.903320312 233 564.903320312 233 632.534179688 338 c 1,33,-1
 704.92578125 170 l 1,34,35
 595.692382812 17 595.692382812 17 460.782226562 -14 c 1,36,-1
 435.7578125 -172 l 1,37,-1
 280.7578125 -172 l 1,7,-1
EndSplineSet
EndChar

